<svg width="196" height="46" viewBox="0 0 196 46" fill="none" xmlns="http://www.w3.org/2000/svg">
<rect x="5" y="3" width="189" height="41" rx="20.5" stroke="white" stroke-width="4"/>
<path d="M82.6016 18.2422C82.5859 18.1953 82.6328 18.0781 82.7422 17.8906C82.8516 17.6875 82.9688 17.4453 83.0938 17.1641C83.2344 16.8672 83.3672 16.5391 83.4922 16.1797C83.6328 15.8047 83.7266 15.4219 83.7734 15.0312C83.8359 14.6406 83.8359 14.25 83.7734 13.8594C83.7109 13.4688 83.5469 13.0938 83.2812 12.7344C83.125 12.5469 82.8906 12.4453 82.5781 12.4297C82.2812 12.3984 81.9375 12.4453 81.5469 12.5703C81.1719 12.6797 80.7734 12.8594 80.3516 13.1094C79.9453 13.3438 79.5703 13.625 79.2266 13.9531C78.8828 14.2656 78.5859 14.6172 78.3359 15.0078C78.1016 15.3984 77.9688 15.7969 77.9375 16.2031C77.9062 16.5312 77.9141 16.8359 77.9609 17.1172C78.0234 17.3984 78.1016 17.6562 78.1953 17.8906C78.2891 18.125 78.3906 18.3438 78.5 18.5469C78.6094 18.75 78.7109 18.9297 78.8047 19.0859C78.9297 19.3047 79.125 19.5469 79.3906 19.8125C79.6562 20.0781 79.9453 20.3828 80.2578 20.7266C80.5703 21.0547 80.8828 21.4297 81.1953 21.8516C81.5078 22.2734 81.7812 22.75 82.0156 23.2812C82.25 23.8125 82.4141 24.4062 82.5078 25.0625C82.6016 25.7188 82.5938 26.4453 82.4844 27.2422C82.3125 28.3984 82.0391 29.3594 81.6641 30.125C81.2891 30.9062 80.875 31.5312 80.4219 32C79.9844 32.4688 79.5391 32.8047 79.0859 33.0078C78.6328 33.2266 78.2578 33.3672 77.9609 33.4297C77.7266 33.4766 77.4453 33.5156 77.1172 33.5469C76.8047 33.5938 76.4688 33.5859 76.1094 33.5234C75.7656 33.4766 75.4141 33.3672 75.0547 33.1953C74.6953 33.0391 74.375 32.7891 74.0938 32.4453C73.7656 32.0547 73.5078 31.6328 73.3203 31.1797C73.1484 30.7891 73.0234 30.3359 72.9453 29.8203C72.8516 29.3203 72.8906 28.7969 73.0625 28.25C73.1875 28.1094 73.3203 27.9844 73.4609 27.875C73.6016 27.7656 73.7422 27.6719 73.8828 27.5938C74.0391 27.5 74.2031 27.4141 74.375 27.3359C74.5781 27.2734 74.7812 27.2188 74.9844 27.1719C75.1562 27.1406 75.3359 27.125 75.5234 27.125C75.7266 27.1094 75.9141 27.1328 76.0859 27.1953C75.8516 27.4609 75.6875 27.7109 75.5938 27.9453C75.5312 28.0703 75.4844 28.1797 75.4531 28.2734C75.3906 28.5703 75.3672 28.9219 75.3828 29.3281C75.4141 29.75 75.5 30.1484 75.6406 30.5234C75.7969 30.9141 76.0156 31.2422 76.2969 31.5078C76.5781 31.7891 76.9531 31.9375 77.4219 31.9531C78.5625 31.9844 79.5312 31.0938 80.3281 29.2812C80.5938 28.7188 80.7266 28.1484 80.7266 27.5703C80.7422 26.9922 80.6719 26.4375 80.5156 25.9062C80.375 25.375 80.1797 24.8828 79.9297 24.4297C79.6953 23.9609 79.4531 23.5625 79.2031 23.2344C78.9531 22.9062 78.6484 22.5547 78.2891 22.1797C77.9453 21.7891 77.6016 21.3672 77.2578 20.9141C76.9141 20.4609 76.6016 19.9688 76.3203 19.4375C76.0547 18.9062 75.875 18.3281 75.7812 17.7031C75.6562 16.8281 75.7344 16.0312 76.0156 15.3125C76.3125 14.5781 76.7031 13.9375 77.1875 13.3906C77.6875 12.8438 78.2266 12.3984 78.8047 12.0547C79.3984 11.7109 79.9219 11.4922 80.375 11.3984C82.8906 10.8984 84.5391 11.3203 85.3203 12.6641C85.6484 13.1797 85.8281 13.7266 85.8594 14.3047C85.8906 14.8828 85.8516 15.4219 85.7422 15.9219C85.6484 16.4062 85.5234 16.8203 85.3672 17.1641C85.2266 17.4922 85.1328 17.6719 85.0859 17.7031C84.9922 17.7969 84.8438 17.8984 84.6406 18.0078C84.4375 18.1172 84.1094 18.2188 83.6562 18.3125C83.5312 18.3438 83.4062 18.3594 83.2812 18.3594C83.1719 18.3594 83.0547 18.3516 82.9297 18.3359C82.8047 18.3203 82.6953 18.2891 82.6016 18.2422ZM94.0391 23.0703C94.1016 22.9766 94.1797 22.9219 94.2734 22.9062C94.3828 22.875 94.4688 22.8828 94.5312 22.9297C94.5938 22.9766 94.625 23.0547 94.625 23.1641C94.6406 23.2734 94.6016 23.4219 94.5078 23.6094C94.1953 24.2031 93.7812 24.8438 93.2656 25.5312C92.7656 26.2188 92.2344 26.8672 91.6719 27.4766C91.1094 28.0703 90.5625 28.5625 90.0312 28.9531C89.5 29.3438 89.0547 29.5391 88.6953 29.5391C88.1797 29.5391 87.75 29.4375 87.4062 29.2344C87.0625 29.0312 86.7891 28.7812 86.5859 28.4844C86.3984 28.1875 86.2656 27.8672 86.1875 27.5234C86.1094 27.1641 86.0859 26.8359 86.1172 26.5391C86.1328 26.2891 86.1875 25.8438 86.2812 25.2031C86.375 24.5469 86.5 23.7969 86.6562 22.9531C86.8125 22.0938 86.9844 21.1797 87.1719 20.2109C87.375 19.2266 87.5859 18.2812 87.8047 17.375C87.5391 17.4062 87.2734 17.4375 87.0078 17.4688C86.7422 17.5 86.5 17.5156 86.2812 17.5156C85.7812 17.5156 85.3125 17.4609 84.875 17.3516C84.4219 17.2266 84.0859 17.1094 83.8672 17C83.7422 16.9375 83.6875 16.8516 83.7031 16.7422C83.7188 16.6172 83.7656 16.5 83.8438 16.3906C83.9219 16.2656 84.0234 16.1641 84.1484 16.0859C84.2578 15.9922 84.3594 15.9453 84.4531 15.9453C84.75 15.9766 85.0703 16.0078 85.4141 16.0391C85.7578 16.0547 86.1328 16.0547 86.5391 16.0391C86.8359 16.0234 87.1172 16 87.3828 15.9688C87.6641 15.9375 87.9375 15.8984 88.2031 15.8516C88.4062 15.1016 88.6016 14.4531 88.7891 13.9062C88.9922 13.3438 89.1719 12.9531 89.3281 12.7344C89.375 12.6562 89.4766 12.5938 89.6328 12.5469C89.8047 12.4844 89.9844 12.4453 90.1719 12.4297C90.3594 12.3984 90.5391 12.3984 90.7109 12.4297C90.8828 12.4453 91.0078 12.5 91.0859 12.5938C91.1641 12.7188 91.1953 13.0391 91.1797 13.5547C91.1641 14.0703 91.0781 14.7266 90.9219 15.5234C91.5781 15.5234 92.1562 15.5625 92.6562 15.6406C93.1719 15.7031 93.6094 15.7812 93.9688 15.875C94.3281 15.9531 94.6172 16.0391 94.8359 16.1328C95.0547 16.2109 95.2188 16.2656 95.3281 16.2969C95.4375 16.3281 95.4922 16.4062 95.4922 16.5312C95.5078 16.6562 95.4844 16.7891 95.4219 16.9297C95.375 17.0547 95.2891 17.1641 95.1641 17.2578C95.0391 17.3516 94.8984 17.3828 94.7422 17.3516C94.5859 17.3359 94.4062 17.3047 94.2031 17.2578C94.0156 17.2109 93.7812 17.1719 93.5 17.1406C93.2344 17.1094 92.9141 17.0781 92.5391 17.0469C92.1641 17.0156 91.7266 17 91.2266 17C91.1328 17 91.0234 17.0078 90.8984 17.0234C90.7891 17.0234 90.6719 17.0234 90.5469 17.0234C90.4844 17.2734 90.4219 17.5234 90.3594 17.7734C90.3125 18.0078 90.2422 18.2578 90.1484 18.5234C89.9453 19.1484 89.7109 19.8281 89.4453 20.5625C89.2109 21.2031 88.9297 21.9375 88.6016 22.7656C88.2734 23.5938 87.9062 24.4766 87.5 25.4141C87.4062 26.0859 87.4141 26.6016 87.5234 26.9609C87.6484 27.3047 87.7969 27.5547 87.9688 27.7109C88.1719 27.8828 88.4219 27.9766 88.7188 27.9922C88.9531 28.0234 89.2344 27.9453 89.5625 27.7578C89.9062 27.5547 90.2578 27.2891 90.6172 26.9609C90.9766 26.6328 91.3359 26.2734 91.6953 25.8828C92.0703 25.4922 92.4141 25.1094 92.7266 24.7344C93.0391 24.3594 93.3125 24.0234 93.5469 23.7266C93.7812 23.4141 93.9453 23.1953 94.0391 23.0703ZM104.656 24.3359C104.438 24.6484 104.156 25.0391 103.812 25.5078C103.469 25.9609 103.109 26.4219 102.734 26.8906C102.375 27.3438 102.016 27.7656 101.656 28.1562C101.312 28.5312 101.023 28.7969 100.789 28.9531C100.633 29.0469 100.453 29.125 100.25 29.1875C100.047 29.25 99.8359 29.2891 99.6172 29.3047C99.4141 29.3203 99.2188 29.3047 99.0312 29.2578C98.8438 29.2266 98.6797 29.1641 98.5391 29.0703C98.3984 28.9609 98.2812 28.8047 98.1875 28.6016C98.1094 28.4297 98.0312 28.2031 97.9531 27.9219C97.8906 27.6406 97.8672 27.2891 97.8828 26.8672C97.5078 27.4922 97.0938 27.9766 96.6406 28.3203C96.1875 28.6484 95.7578 28.8906 95.3516 29.0469C94.8828 29.2188 94.4141 29.3203 93.9453 29.3516C93.7266 29.3516 93.4922 29.2734 93.2422 29.1172C92.9922 28.9766 92.7812 28.75 92.6094 28.4375C92.4375 28.1094 92.3281 27.6953 92.2812 27.1953C92.2344 26.6797 92.2969 26.0703 92.4688 25.3672C92.6875 24.4141 93.0312 23.5469 93.5 22.7656C93.9844 21.9844 94.5078 21.3203 95.0703 20.7734C95.6328 20.2109 96.1875 19.7891 96.7344 19.5078C97.2812 19.2266 97.7344 19.1016 98.0938 19.1328C98.5156 19.2109 98.8594 19.3359 99.125 19.5078C99.3438 19.6641 99.4844 19.8984 99.5469 20.2109C99.625 20.5078 99.5 20.9062 99.1719 21.4062C99.3906 21.3594 99.5703 21.3281 99.7109 21.3125C99.8672 21.2969 99.9844 21.2891 100.062 21.2891C100.156 21.2891 100.219 21.2969 100.25 21.3125C100.266 21.3438 100.273 21.4141 100.273 21.5234C100.273 21.6172 100.25 21.7969 100.203 22.0625C100.156 22.3281 100.086 22.6875 99.9922 23.1406C99.8984 23.5938 99.7734 24.1797 99.6172 24.8984C99.5859 25.0391 99.5547 25.1719 99.5234 25.2969C99.5078 25.4062 99.4844 25.5234 99.4531 25.6484C99.4375 25.7578 99.4141 25.8906 99.3828 26.0469C99.3516 26.2031 99.3125 26.3984 99.2656 26.6328C99.25 26.7734 99.2422 26.9297 99.2422 27.1016C99.2578 27.2578 99.2891 27.4062 99.3359 27.5469C99.3828 27.6875 99.4531 27.8047 99.5469 27.8984C99.6562 27.9766 99.8047 28.0156 99.9922 28.0156C100.148 28.0156 100.352 27.9219 100.602 27.7344C100.852 27.5312 101.117 27.2812 101.398 26.9844C101.68 26.6719 101.969 26.3359 102.266 25.9766C102.578 25.6016 102.867 25.2422 103.133 24.8984C103.398 24.5547 103.633 24.25 103.836 23.9844C104.055 23.7188 104.211 23.5234 104.305 23.3984C104.43 23.2578 104.555 23.1797 104.68 23.1641C104.805 23.1328 104.898 23.1641 104.961 23.2578C105.023 23.3516 105.031 23.4922 104.984 23.6797C104.953 23.8672 104.844 24.0859 104.656 24.3359ZM97.7891 25.3672C97.8672 25.0547 97.9609 24.6875 98.0703 24.2656C98.1797 23.8438 98.2734 23.4375 98.3516 23.0469C98.4297 22.6562 98.4844 22.3359 98.5156 22.0859C98.5625 21.8203 98.5547 21.6953 98.4922 21.7109C98.4141 21.7266 98.3281 21.75 98.2344 21.7812C98.1562 21.8125 98.0547 21.8359 97.9297 21.8516C97.8047 21.8672 97.6797 21.8906 97.5547 21.9219C97.6797 21.6719 97.75 21.4688 97.7656 21.3125C97.7969 21.1406 97.8047 21.0078 97.7891 20.9141C97.7734 20.8047 97.7422 20.7188 97.6953 20.6562C97.5234 20.5156 97.2188 20.6328 96.7812 21.0078C96.3594 21.3672 95.8672 22.0391 95.3047 23.0234C95.0703 23.4297 94.8828 23.8672 94.7422 24.3359C94.6016 24.7891 94.5 25.2188 94.4375 25.625C94.3906 26.0312 94.3828 26.3906 94.4141 26.7031C94.4453 27 94.5078 27.1953 94.6016 27.2891C94.7734 27.4609 94.9688 27.5469 95.1875 27.5469C95.4062 27.5312 95.625 27.4688 95.8438 27.3594C96.0781 27.2344 96.3047 27.0781 96.5234 26.8906C96.7578 26.7031 96.9609 26.5078 97.1328 26.3047C97.3203 26.1016 97.4688 25.9141 97.5781 25.7422C97.7031 25.5703 97.7734 25.4453 97.7891 25.3672ZM102.195 28.8828C102.086 29.0547 101.969 29.1641 101.844 29.2109C101.703 29.2734 101.586 29.2812 101.492 29.2344C101.383 29.2031 101.312 29.125 101.281 29C101.25 28.875 101.281 28.7188 101.375 28.5312C101.422 28.4375 101.531 28.2266 101.703 27.8984C101.859 27.5703 102.055 27.1797 102.289 26.7266C102.508 26.2578 102.75 25.7578 103.016 25.2266C103.281 24.6797 103.531 24.1641 103.766 23.6797C104.016 23.1953 104.242 22.7656 104.445 22.3906C104.648 22 104.797 21.7188 104.891 21.5469C104.719 21.3906 104.602 21.2812 104.539 21.2188C104.477 21.1406 104.43 20.9844 104.398 20.75C104.367 20.5469 104.414 20.2812 104.539 19.9531C104.664 19.625 104.828 19.3125 105.031 19.0156C105.234 18.7031 105.461 18.4375 105.711 18.2188C105.961 18 106.203 17.8906 106.438 17.8906C106.875 17.8906 107.18 18.0312 107.352 18.3125C107.539 18.5938 107.648 18.8828 107.68 19.1797C107.711 19.3828 107.695 19.6406 107.633 19.9531C107.57 20.2656 107.453 20.5469 107.281 20.7969C107.328 20.8281 107.391 20.8672 107.469 20.9141C107.547 20.9453 107.672 20.9609 107.844 20.9609C108.094 20.9609 108.266 20.9453 108.359 20.9141C108.469 20.8828 108.633 20.8672 108.852 20.8672C109.117 20.8672 109.336 20.9375 109.508 21.0781C109.68 21.2031 109.82 21.3672 109.93 21.5703C110.039 21.7578 110.117 21.9688 110.164 22.2031C110.227 22.4219 110.266 22.625 110.281 22.8125C110.328 23.2031 110.227 23.6094 109.977 24.0312C109.727 24.4531 109.422 24.9141 109.062 25.4141C108.844 25.7266 108.625 26.0781 108.406 26.4688C108.188 26.8594 108.094 27.2109 108.125 27.5234C108.156 27.7266 108.211 27.8906 108.289 28.0156C108.367 28.1406 108.586 28.2031 108.945 28.2031C109.211 28.2031 109.5 28.1094 109.812 27.9219C110.141 27.7188 110.469 27.4688 110.797 27.1719C111.141 26.8594 111.477 26.5234 111.805 26.1641C112.133 25.7891 112.438 25.4297 112.719 25.0859C113 24.7266 113.234 24.4062 113.422 24.125C113.625 23.8438 113.773 23.6406 113.867 23.5156C113.945 23.3906 114.047 23.3047 114.172 23.2578C114.297 23.2109 114.406 23.2109 114.5 23.2578C114.594 23.3047 114.648 23.3984 114.664 23.5391C114.695 23.6797 114.641 23.8672 114.5 24.1016C114.406 24.2578 114.242 24.5078 114.008 24.8516C113.789 25.1953 113.516 25.5781 113.188 26C112.875 26.4219 112.523 26.8594 112.133 27.3125C111.742 27.75 111.328 28.1562 110.891 28.5312C110.469 28.8906 110.039 29.1875 109.602 29.4219C109.18 29.6562 108.773 29.7734 108.383 29.7734C107.977 29.7734 107.641 29.6953 107.375 29.5391C107.109 29.3828 106.891 29.1953 106.719 28.9766C106.562 28.7422 106.445 28.4922 106.367 28.2266C106.305 27.9453 106.281 27.6875 106.297 27.4531C106.312 27.2656 106.359 27.0703 106.438 26.8672C106.531 26.6484 106.633 26.4297 106.742 26.2109C106.867 25.9766 106.992 25.75 107.117 25.5312C107.258 25.2969 107.383 25.0703 107.492 24.8516C107.758 24.3984 107.969 24.0156 108.125 23.7031C108.297 23.375 108.383 23.1016 108.383 22.8828C108.383 22.7422 108.352 22.6172 108.289 22.5078C108.227 22.3984 108.125 22.3438 107.984 22.3438C107.891 22.3438 107.82 22.3516 107.773 22.3672C107.742 22.3672 107.703 22.3672 107.656 22.3672C107.625 22.3672 107.57 22.375 107.492 22.3906C107.43 22.3906 107.328 22.3906 107.188 22.3906C106.984 22.3906 106.812 22.3594 106.672 22.2969C106.531 22.2344 106.398 22.1875 106.273 22.1562C106.211 22.2656 106.07 22.5 105.852 22.8594C105.633 23.2188 105.375 23.6406 105.078 24.125C104.797 24.6094 104.492 25.1172 104.164 25.6484C103.852 26.1797 103.555 26.6797 103.273 27.1484C102.992 27.6016 102.758 27.9922 102.57 28.3203C102.367 28.6328 102.242 28.8203 102.195 28.8828ZM121.484 23.0703C121.547 22.9766 121.625 22.9219 121.719 22.9062C121.828 22.875 121.914 22.8828 121.977 22.9297C122.039 22.9766 122.07 23.0547 122.07 23.1641C122.086 23.2734 122.047 23.4219 121.953 23.6094C121.641 24.2031 121.227 24.8438 120.711 25.5312C120.211 26.2188 119.68 26.8672 119.117 27.4766C118.555 28.0703 118.008 28.5625 117.477 28.9531C116.945 29.3438 116.5 29.5391 116.141 29.5391C115.625 29.5391 115.195 29.4375 114.852 29.2344C114.508 29.0312 114.234 28.7812 114.031 28.4844C113.844 28.1875 113.711 27.8672 113.633 27.5234C113.555 27.1641 113.531 26.8359 113.562 26.5391C113.578 26.2891 113.633 25.8438 113.727 25.2031C113.82 24.5469 113.945 23.7969 114.102 22.9531C114.258 22.0938 114.43 21.1797 114.617 20.2109C114.82 19.2266 115.031 18.2812 115.25 17.375C114.984 17.4062 114.719 17.4375 114.453 17.4688C114.188 17.5 113.945 17.5156 113.727 17.5156C113.227 17.5156 112.758 17.4609 112.32 17.3516C111.867 17.2266 111.531 17.1094 111.312 17C111.188 16.9375 111.133 16.8516 111.148 16.7422C111.164 16.6172 111.211 16.5 111.289 16.3906C111.367 16.2656 111.469 16.1641 111.594 16.0859C111.703 15.9922 111.805 15.9453 111.898 15.9453C112.195 15.9766 112.516 16.0078 112.859 16.0391C113.203 16.0547 113.578 16.0547 113.984 16.0391C114.281 16.0234 114.562 16 114.828 15.9688C115.109 15.9375 115.383 15.8984 115.648 15.8516C115.852 15.1016 116.047 14.4531 116.234 13.9062C116.438 13.3438 116.617 12.9531 116.773 12.7344C116.82 12.6562 116.922 12.5938 117.078 12.5469C117.25 12.4844 117.43 12.4453 117.617 12.4297C117.805 12.3984 117.984 12.3984 118.156 12.4297C118.328 12.4453 118.453 12.5 118.531 12.5938C118.609 12.7188 118.641 13.0391 118.625 13.5547C118.609 14.0703 118.523 14.7266 118.367 15.5234C119.023 15.5234 119.602 15.5625 120.102 15.6406C120.617 15.7031 121.055 15.7812 121.414 15.875C121.773 15.9531 122.062 16.0391 122.281 16.1328C122.5 16.2109 122.664 16.2656 122.773 16.2969C122.883 16.3281 122.938 16.4062 122.938 16.5312C122.953 16.6562 122.93 16.7891 122.867 16.9297C122.82 17.0547 122.734 17.1641 122.609 17.2578C122.484 17.3516 122.344 17.3828 122.188 17.3516C122.031 17.3359 121.852 17.3047 121.648 17.2578C121.461 17.2109 121.227 17.1719 120.945 17.1406C120.68 17.1094 120.359 17.0781 119.984 17.0469C119.609 17.0156 119.172 17 118.672 17C118.578 17 118.469 17.0078 118.344 17.0234C118.234 17.0234 118.117 17.0234 117.992 17.0234C117.93 17.2734 117.867 17.5234 117.805 17.7734C117.758 18.0078 117.688 18.2578 117.594 18.5234C117.391 19.1484 117.156 19.8281 116.891 20.5625C116.656 21.2031 116.375 21.9375 116.047 22.7656C115.719 23.5938 115.352 24.4766 114.945 25.4141C114.852 26.0859 114.859 26.6016 114.969 26.9609C115.094 27.3047 115.242 27.5547 115.414 27.7109C115.617 27.8828 115.867 27.9766 116.164 27.9922C116.398 28.0234 116.68 27.9453 117.008 27.7578C117.352 27.5547 117.703 27.2891 118.062 26.9609C118.422 26.6328 118.781 26.2734 119.141 25.8828C119.516 25.4922 119.859 25.1094 120.172 24.7344C120.484 24.3594 120.758 24.0234 120.992 23.7266C121.227 23.4141 121.391 23.1953 121.484 23.0703Z" fill="white"/>
</svg>
