<svg width="257" height="142" viewBox="0 0 257 142" fill="none" xmlns="http://www.w3.org/2000/svg">
<path d="M3.8125 20.875C3.3125 21.0417 2.9375 21.0625 2.6875 20.9375C2.4375 20.8125 2.25 20.6042 2.125 20.3125C2 20.0208 1.9375 19.7083 1.9375 19.375C1.9375 19 1.95833 18.6458 2 18.3125C2.04167 18.0208 2.10417 17.6875 2.1875 17.3125C2.3125 16.9375 2.45833 16.5833 2.625 16.25C2.79167 15.9167 2.97917 15.6458 3.1875 15.4375C3.4375 15.1875 3.75 15.0208 4.125 14.9375C6.04167 14.6042 7.89583 14.3542 9.6875 14.1875C11.5208 14.0208 13.1667 13.8958 14.625 13.8125C16.2917 13.6875 17.8958 13.625 19.4375 13.625C19.7708 13.625 20.1042 13.6458 20.4375 13.6875C20.7708 13.6875 21.1042 13.6875 21.4375 13.6875C21.8125 13.6042 22.1042 13.5833 22.3125 13.625C22.5625 13.625 22.7708 13.6458 22.9375 13.6875C24.1458 13.7292 25.3958 13.7917 26.6875 13.875C27.7708 13.9583 28.9792 14.0625 30.3125 14.1875C31.6875 14.2708 33.0417 14.3958 34.375 14.5625C34.5 14.8958 34.5208 15.3125 34.4375 15.8125C34.3958 16.0625 34.3542 16.3125 34.3125 16.5625C34.2708 16.8125 34.1667 17.0417 34 17.25C33.875 17.4583 33.7083 17.6667 33.5 17.875C33.3333 18.0417 33.125 18.1875 32.875 18.3125C31.4583 18.2708 30.0833 18.25 28.75 18.25C27.4583 18.2083 26.3125 18.1875 25.3125 18.1875H21.9375C21.3958 20.1042 20.7292 22.4792 19.9375 25.3125C19.1458 28.1042 18.3333 31.0625 17.5 34.1875C16.7083 37.2708 15.9375 40.3542 15.1875 43.4375C14.4792 46.4792 13.9167 49.2292 13.5 51.6875C13.0833 54.0625 12.6667 56.3958 12.25 58.6875C12.0833 59.6458 11.8958 60.6458 11.6875 61.6875C11.5208 62.7292 11.3542 63.75 11.1875 64.75C11.0625 65.75 10.9375 66.7083 10.8125 67.625C10.6875 68.5417 10.5833 69.375 10.5 70.125C9.83333 70.4583 9.20833 70.7083 8.625 70.875C8.04167 71.0833 7.52083 71.2292 7.0625 71.3125C6.52083 71.4375 6.02083 71.5 5.5625 71.5C4.5625 71.5 3.9375 71.375 3.6875 71.125C3.47917 70.9167 3.45833 70.4792 3.625 69.8125C3.75 69.2292 4.125 67.6458 4.75 65.0625C5 63.9792 5.3125 62.6042 5.6875 60.9375C6.10417 59.3125 6.58333 57.3333 7.125 55C7.66667 52.625 8.3125 49.875 9.0625 46.75C9.8125 43.5833 10.6667 39.9583 11.625 35.875L15.8125 18.5C14.5625 18.6667 13.3333 18.8542 12.125 19.0625C10.9167 19.2708 9.77083 19.5 8.6875 19.75C7.64583 19.9583 6.6875 20.1667 5.8125 20.375C4.97917 20.5833 4.3125 20.75 3.8125 20.875ZM30.9375 20.875C30.4375 21.0417 30.0625 21.0625 29.8125 20.9375C29.5625 20.8125 29.375 20.6042 29.25 20.3125C29.125 20.0208 29.0625 19.7083 29.0625 19.375C29.0625 19 29.0833 18.6458 29.125 18.3125C29.1667 18.0208 29.2292 17.6875 29.3125 17.3125C29.4375 16.9375 29.5833 16.5833 29.75 16.25C29.9167 15.9167 30.1042 15.6458 30.3125 15.4375C30.5625 15.1875 30.875 15.0208 31.25 14.9375C33.1667 14.6042 35.0208 14.3542 36.8125 14.1875C38.6458 14.0208 40.2917 13.8958 41.75 13.8125C43.4167 13.6875 45.0208 13.625 46.5625 13.625C46.8958 13.625 47.2292 13.6458 47.5625 13.6875C47.8958 13.6875 48.2292 13.6875 48.5625 13.6875C48.9375 13.6042 49.2292 13.5833 49.4375 13.625C49.6875 13.625 49.8958 13.6458 50.0625 13.6875C51.2708 13.7292 52.5208 13.7917 53.8125 13.875C54.8958 13.9583 56.1042 14.0625 57.4375 14.1875C58.8125 14.2708 60.1667 14.3958 61.5 14.5625C61.625 14.8958 61.6458 15.3125 61.5625 15.8125C61.5208 16.0625 61.4792 16.3125 61.4375 16.5625C61.3958 16.8125 61.2917 17.0417 61.125 17.25C61 17.4583 60.8333 17.6667 60.625 17.875C60.4583 18.0417 60.25 18.1875 60 18.3125C58.5833 18.2708 57.2083 18.25 55.875 18.25C54.5833 18.2083 53.4375 18.1875 52.4375 18.1875H49.0625C48.5208 20.1042 47.8542 22.4792 47.0625 25.3125C46.2708 28.1042 45.4583 31.0625 44.625 34.1875C43.8333 37.2708 43.0625 40.3542 42.3125 43.4375C41.6042 46.4792 41.0417 49.2292 40.625 51.6875C40.2083 54.0625 39.7917 56.3958 39.375 58.6875C39.2083 59.6458 39.0208 60.6458 38.8125 61.6875C38.6458 62.7292 38.4792 63.75 38.3125 64.75C38.1875 65.75 38.0625 66.7083 37.9375 67.625C37.8125 68.5417 37.7083 69.375 37.625 70.125C36.9583 70.4583 36.3333 70.7083 35.75 70.875C35.1667 71.0833 34.6458 71.2292 34.1875 71.3125C33.6458 71.4375 33.1458 71.5 32.6875 71.5C31.6875 71.5 31.0625 71.375 30.8125 71.125C30.6042 70.9167 30.5833 70.4792 30.75 69.8125C30.875 69.2292 31.25 67.6458 31.875 65.0625C32.125 63.9792 32.4375 62.6042 32.8125 60.9375C33.2292 59.3125 33.7083 57.3333 34.25 55C34.7917 52.625 35.4375 49.875 36.1875 46.75C36.9375 43.5833 37.7917 39.9583 38.75 35.875L42.9375 18.5C41.6875 18.6667 40.4583 18.8542 39.25 19.0625C38.0417 19.2708 36.8958 19.5 35.8125 19.75C34.7708 19.9583 33.8125 20.1667 32.9375 20.375C32.1042 20.5833 31.4375 20.75 30.9375 20.875ZM68 23.1875C67.875 23.6458 67.625 24.1042 67.25 24.5625C66.9167 24.9792 66.5208 25.3333 66.0625 25.625C65.6458 25.875 65.2083 26.0417 64.75 26.125C64.2917 26.2083 63.9167 26.125 63.625 25.875C62.75 25.2083 62.2917 24.5 62.25 23.75C62.2083 22.9583 62.3958 22.2292 62.8125 21.5625C63.2292 20.8542 63.75 20.2708 64.375 19.8125C65 19.3125 65.5417 19.0208 66 18.9375C66.4583 18.8542 66.8333 18.9583 67.125 19.25C67.4583 19.5 67.7083 19.8542 67.875 20.3125C68.0417 20.7292 68.125 21.2083 68.125 21.75C68.1667 22.2917 68.125 22.7708 68 23.1875ZM59.375 36.5C59.5833 36.25 59.9792 36.0417 60.5625 35.875C61.1458 35.7083 61.75 35.5833 62.375 35.5C63 35.375 63.5625 35.3125 64.0625 35.3125C64.6042 35.2708 64.9167 35.2708 65 35.3125C65.0417 35.3542 64.9375 35.7917 64.6875 36.625C64.4375 37.4583 64.125 38.4375 63.75 39.5625C63.375 40.6875 62.9792 41.8542 62.5625 43.0625C62.1458 44.2292 61.8333 45.1875 61.625 45.9375C61.4167 46.6875 61.1667 47.5417 60.875 48.5C60.5833 49.4167 60.3125 50.3333 60.0625 51.25C59.8542 52.125 59.7083 52.9583 59.625 53.75C59.5417 54.5417 59.6042 55.1458 59.8125 55.5625C60.0208 56.0625 60.25 56.4167 60.5 56.625C60.75 56.7917 61.0208 56.875 61.3125 56.875C62.1458 56.875 63.1875 56.4167 64.4375 55.5C65.7292 54.5833 67.0208 53.5 68.3125 52.25C69.6458 50.9583 70.875 49.6667 72 48.375C73.125 47.0417 73.9583 45.9792 74.5 45.1875C74.8333 44.7708 75.1667 44.5 75.5 44.375C75.875 44.25 76.1667 44.2708 76.375 44.4375C76.625 44.6042 76.75 44.875 76.75 45.25C76.7917 45.625 76.6667 46.0625 76.375 46.5625C75.7083 47.7292 74.7292 49.125 73.4375 50.75C72.1458 52.3333 70.7708 53.875 69.3125 55.375C67.8542 56.8333 66.4167 58.0833 65 59.125C63.625 60.1667 62.5 60.7083 61.625 60.75C60.9167 60.7917 60.2083 60.6667 59.5 60.375C58.8333 60.125 58.2083 59.7708 57.625 59.3125C57.0833 58.8125 56.625 58.25 56.25 57.625C55.875 56.9583 55.6667 56.2708 55.625 55.5625C55.5 54.5208 55.5 53.1042 55.625 51.3125C55.75 49.4792 55.9792 47.625 56.3125 45.75C56.6458 43.8333 57.0625 42.0208 57.5625 40.3125C58.1042 38.6042 58.7083 37.3333 59.375 36.5ZM90.375 61.5625C89.4167 61.5625 88.5833 61.375 87.875 61C87.2083 60.6667 86.6667 60.2083 86.25 59.625C85.8333 59.0417 85.5625 58.375 85.4375 57.625C85.3125 56.8333 85.3542 56 85.5625 55.125C85.6875 54.5417 85.8958 53.7708 86.1875 52.8125C86.4792 51.8125 86.7708 50.75 87.0625 49.625C87.3958 48.4583 87.6875 47.3125 87.9375 46.1875C88.2292 45.0208 88.4167 43.9792 88.5 43.0625C88.5833 42.1042 88.5417 41.3333 88.375 40.75C88.2083 40.125 87.8542 39.8125 87.3125 39.8125C86.6458 39.8125 85.9583 40.0417 85.25 40.5C84.5417 40.9167 83.8125 41.5 83.0625 42.25C82.3542 43 81.625 43.875 80.875 44.875C80.1667 45.8333 79.4583 46.8333 78.75 47.875C78.375 49.2917 78.0625 50.5417 77.8125 51.625C77.5625 52.6667 77.3333 53.625 77.125 54.5C76.9583 55.3333 76.7917 56.0833 76.625 56.75C76.4583 57.375 76.3125 57.9792 76.1875 58.5625C76.0625 58.9792 75.6875 59.3958 75.0625 59.8125C74.4375 60.1875 73.7708 60.5 73.0625 60.75C72.3542 61 71.75 61.125 71.25 61.125C70.7083 61.125 70.4792 60.9375 70.5625 60.5625C70.6042 60.3125 70.75 59.75 71 58.875C71.2083 58 71.4792 56.9792 71.8125 55.8125C72.1042 54.6042 72.4167 53.3333 72.75 52C73.0833 50.6667 73.3958 49.3958 73.6875 48.1875C73.8958 47.2292 74.125 46.1667 74.375 45C74.5833 44 74.8333 42.8333 75.125 41.5C75.4583 40.1667 75.8333 38.7083 76.25 37.125C76.5417 36.875 76.8333 36.6875 77.125 36.5625C77.4583 36.3958 77.7917 36.2708 78.125 36.1875C78.4583 36.0625 78.8125 35.9792 79.1875 35.9375C79.5208 35.9375 79.8542 35.9583 80.1875 36C80.4792 36.0417 80.7708 36.125 81.0625 36.25C81.3958 36.3333 81.6875 36.4792 81.9375 36.6875C81.8125 36.9792 81.6667 37.3958 81.5 37.9375C81.3333 38.4375 81.1667 38.9792 81 39.5625C80.8333 40.2292 80.625 40.9167 80.375 41.625C80.9167 40.875 81.5208 40.125 82.1875 39.375C82.8958 38.5833 83.6458 37.875 84.4375 37.25C85.2708 36.625 86.1458 36.125 87.0625 35.75C87.9792 35.3333 88.9167 35.125 89.875 35.125C90.6667 35.125 91.375 35.3542 92 35.8125C92.625 36.2708 93.1042 36.9167 93.4375 37.75C93.8125 38.5417 94.0208 39.5 94.0625 40.625C94.1458 41.75 94 42.9792 93.625 44.3125L92.9375 47.0625C92.7292 47.9375 92.4583 48.9792 92.125 50.1875C91.8333 51.3542 91.4583 52.6458 91 54.0625C90.75 54.9792 90.6458 55.7708 90.6875 56.4375C90.7708 57.1042 91.1875 57.4375 91.9375 57.4375C92.6875 57.4375 93.625 56.9792 94.75 56.0625C95.9167 55.1458 97.0833 54.0417 98.25 52.75C99.4167 51.4583 100.521 50.1458 101.562 48.8125C102.604 47.4375 103.396 46.3333 103.938 45.5C104.312 44.9583 104.667 44.6042 105 44.4375C105.333 44.2708 105.583 44.25 105.75 44.375C105.958 44.5 106.062 44.7917 106.062 45.25C106.062 45.6667 105.896 46.2083 105.562 46.875C105.271 47.4583 104.812 48.2292 104.188 49.1875C103.604 50.1458 102.896 51.1667 102.062 52.25C101.229 53.3333 100.333 54.4375 99.375 55.5625C98.4167 56.6458 97.4167 57.6458 96.375 58.5625C95.3333 59.4375 94.2917 60.1458 93.25 60.6875C92.25 61.2708 91.2917 61.5625 90.375 61.5625ZM117.875 68.9375C117.667 69.9375 117.396 71.1875 117.062 72.6875C116.771 74.1875 116.417 75.7708 116 77.4375C115.625 79.1042 115.167 80.75 114.625 82.375C114.125 84.0417 113.562 85.5208 112.938 86.8125C112.312 88.1458 111.625 89.2292 110.875 90.0625C110.125 90.8958 109.292 91.3125 108.375 91.3125C107 91.3125 105.812 90.8958 104.812 90.0625C103.854 89.2708 103.042 88.25 102.375 87C101.708 85.7917 101.229 84.4792 100.938 83.0625C100.604 81.6458 100.438 80.3333 100.438 79.125C100.438 77.4583 100.583 76.0625 100.875 74.9375C101.167 73.8542 101.667 72.8125 102.375 71.8125C103.125 70.8125 104.125 69.75 105.375 68.625C106.625 67.5 108.229 66.1042 110.188 64.4375C111.146 63.6042 112.062 62.8125 112.938 62.0625C113.812 61.3125 114.646 60.625 115.438 60C115.646 59.1667 115.833 58.3958 116 57.6875C116.208 56.9375 116.375 56.2708 116.5 55.6875C115.417 57.1458 114.104 58.375 112.562 59.375C111.062 60.375 109.333 60.875 107.375 60.875C105.583 60.875 104.125 60.0833 103 58.5C101.917 56.875 101.375 54.5 101.375 51.375C101.375 49.8333 101.667 48.0625 102.25 46.0625C102.833 44.0625 103.667 42.1875 104.75 40.4375C105.833 38.6875 107.167 37.2083 108.75 36C110.333 34.7917 112.104 34.1875 114.062 34.1875C114.979 34.1875 115.771 34.4167 116.438 34.875C117.104 35.3333 117.667 35.9167 118.125 36.625C118.583 37.2917 118.938 38.0208 119.188 38.8125C119.438 39.5625 119.625 40.2708 119.75 40.9375C119.833 40.6875 119.896 40.4375 119.938 40.1875C119.979 39.8958 120.042 39.6458 120.125 39.4375C120.542 38.0208 121 37.0625 121.5 36.5625C122.042 36.0208 122.833 35.75 123.875 35.75C124.458 35.75 124.938 35.8542 125.312 36.0625C125.729 36.2708 125.938 36.4583 125.938 36.625C125.729 37.0833 125.562 37.4375 125.438 37.6875C125.312 37.9375 125.188 38.2083 125.062 38.5C124.938 38.75 124.812 39.0833 124.688 39.5C124.562 39.9167 124.396 40.5208 124.188 41.3125C124.104 41.6042 123.938 42.2917 123.688 43.375C123.479 44.4167 123.188 45.6667 122.812 47.125C122.479 48.5833 122.104 50.1875 121.688 51.9375C121.312 53.6875 120.938 55.3958 120.562 57.0625C121.729 56.3958 122.938 55.5833 124.188 54.625C125.438 53.6667 126.625 52.6875 127.75 51.6875C128.875 50.6875 129.875 49.75 130.75 48.875C131.625 47.9583 132.271 47.2083 132.688 46.625C133.021 46.125 133.396 45.7708 133.812 45.5625C134.229 45.3542 134.583 45.2917 134.875 45.375C135.208 45.4167 135.396 45.6042 135.438 45.9375C135.521 46.2292 135.396 46.6458 135.062 47.1875C134.104 48.7292 132.938 50.2292 131.562 51.6875C130.188 53.1042 128.771 54.4375 127.312 55.6875C125.896 56.8958 124.5 57.9792 123.125 58.9375C121.792 59.8542 120.646 60.6042 119.688 61.1875C119.271 63.0625 118.917 64.5833 118.625 65.75C118.333 66.9167 118.083 67.9792 117.875 68.9375ZM110 56.625C110.875 56.625 111.688 56.3958 112.438 55.9375C113.229 55.4792 113.938 54.9583 114.562 54.375C115.188 53.75 115.708 53.125 116.125 52.5C116.542 51.875 116.854 51.375 117.062 51C117.229 50.625 117.417 50.125 117.625 49.5C117.875 48.875 118.062 48.2708 118.188 47.6875C118.312 47.1042 118.354 46.5833 118.312 46.125C118.312 45.6667 118.167 45.4167 117.875 45.375C117.625 45.3333 117.417 45.1667 117.25 44.875C117.125 44.5833 117.021 44.25 116.938 43.875C116.854 43.5 116.792 43.125 116.75 42.75C116.75 42.375 116.729 42.0417 116.688 41.75C116.479 40.2917 116.125 39.2292 115.625 38.5625C115.125 37.8958 114.562 37.5625 113.938 37.5625C112.896 37.5625 111.896 37.9792 110.938 38.8125C110.021 39.6458 109.188 40.7292 108.438 42.0625C107.729 43.3542 107.167 44.7917 106.75 46.375C106.333 47.9167 106.125 49.3958 106.125 50.8125C106.125 52.5625 106.375 53.9792 106.875 55.0625C107.375 56.1042 108.417 56.625 110 56.625ZM107.125 85.625C107.958 85.625 108.625 85 109.125 83.75C109.667 82.5417 110.229 80.875 110.812 78.75C110.938 78.25 111.104 77.5208 111.312 76.5625C111.562 75.6458 111.833 74.5833 112.125 73.375C112.458 72.1667 112.792 70.8542 113.125 69.4375C113.458 68.0625 113.812 66.6667 114.188 65.25C113.854 65.5417 113.5 65.8333 113.125 66.125C112.792 66.4583 112.438 66.8333 112.062 67.25C111.146 68.125 110.25 68.9583 109.375 69.75C108.542 70.5833 107.792 71.4375 107.125 72.3125C106.458 73.2292 105.917 74.2083 105.5 75.25C105.125 76.2917 104.938 77.5 104.938 78.875C104.938 80.25 104.979 81.375 105.062 82.25C105.188 83.125 105.333 83.8125 105.5 84.3125C105.708 84.8125 105.938 85.1458 106.188 85.3125C106.479 85.5208 106.792 85.625 107.125 85.625ZM150.188 71.6875C148.562 71.7292 147.229 71.4375 146.188 70.8125C145.104 70.1875 144.271 69.2708 143.688 68.0625C143.062 66.8958 142.667 65.4583 142.5 63.75C142.333 62.0833 142.333 60.25 142.5 58.25C142.708 56.7083 143.083 55.1042 143.625 53.4375C144.083 52.0208 144.792 50.4583 145.75 48.75C146.667 47.0417 147.917 45.375 149.5 43.75C149.833 43.8333 150.104 43.9375 150.312 44.0625C150.521 44.1458 150.688 44.25 150.812 44.375C150.938 44.5417 151.021 44.6875 151.062 44.8125C151.146 45.2708 151.021 45.7917 150.688 46.375C150.354 46.9583 150.021 47.5833 149.688 48.25C148.771 50.1667 148.083 51.9792 147.625 53.6875C147.167 55.3958 146.875 56.9792 146.75 58.4375C146.667 59.6875 146.688 60.8125 146.812 61.8125C146.896 62.8542 147.042 63.7292 147.25 64.4375C147.458 65.1875 147.688 65.75 147.938 66.125C148.188 66.5417 148.417 66.75 148.625 66.75C148.833 66.75 149.042 66.6042 149.25 66.3125C149.5 66.0208 149.729 65.6667 149.938 65.25C150.188 64.8333 150.479 64.1875 150.812 63.3125C151.146 62.4792 151.5 61.5 151.875 60.375C152.25 59.25 152.604 58.0417 152.938 56.75C153.312 55.4167 153.646 54.0833 153.938 52.75C154.521 50.0833 155.146 47.0833 155.812 43.75C156.479 40.375 157.458 36.8542 158.75 33.1875C159.167 31.6458 159.688 29.9583 160.312 28.125C160.812 26.5417 161.438 24.7083 162.188 22.625C162.979 20.5 163.875 18.2083 164.875 15.75C164.875 15.5417 165.042 15.3542 165.375 15.1875C165.75 14.9792 166.167 14.7708 166.625 14.5625C167.125 14.3542 167.688 14.1458 168.312 13.9375C169.146 13.6458 169.792 13.4792 170.25 13.4375C170.75 13.3958 171.125 13.4583 171.375 13.625C171.625 13.7917 171.792 14.0208 171.875 14.3125C171.958 14.5625 172 14.8542 172 15.1875C172.083 16.5625 172.125 17.8542 172.125 19.0625C172.167 20.2708 172.208 21.3333 172.25 22.25C172.292 23.3333 172.312 24.3125 172.312 25.1875C172.354 26.3542 172.292 27.9167 172.125 29.875C171.958 31.7917 171.771 33.8125 171.562 35.9375C171.396 38.0625 171.229 40.1458 171.062 42.1875C170.938 44.1875 170.917 45.8542 171 47.1875C171 47.8958 171.021 48.5625 171.062 49.1875C171.146 49.7708 171.229 50.3542 171.312 50.9375C171.854 49.4375 172.458 47.875 173.125 46.25C173.792 44.5833 174.458 43 175.125 41.5C175.792 39.9583 176.417 38.5417 177 37.25C177.583 35.9167 178.042 34.8125 178.375 33.9375C178.875 32.7708 179.542 31.2917 180.375 29.5C181.208 27.7083 182.042 25.9167 182.875 24.125C183.75 22.3333 184.542 20.6875 185.25 19.1875C186 17.6875 186.542 16.6458 186.875 16.0625C187.125 15.6458 187.542 15.2708 188.125 14.9375C188.75 14.6042 189.396 14.3125 190.062 14.0625C190.771 13.8125 191.417 13.6458 192 13.5625C192.625 13.4375 193.042 13.4167 193.25 13.5C193.792 13.625 194.167 13.7917 194.375 14C194.625 14.2083 194.771 14.3542 194.812 14.4375C194.896 14.6042 194.958 14.8958 195 15.3125C195.042 15.6875 195.021 16.2917 194.938 17.125C194.854 18.125 194.604 19.6458 194.188 21.6875C193.812 23.7292 193.333 26.0625 192.75 28.6875C192.208 31.2708 191.604 34.0417 190.938 37C190.312 39.9583 189.708 42.875 189.125 45.75C188.542 48.5833 188.021 51.25 187.562 53.75C187.146 56.25 186.875 58.3542 186.75 60.0625C186.667 61.9792 186.792 63.6667 187.125 65.125C187.25 65.75 187.438 66.3542 187.688 66.9375C187.938 67.5208 188.271 68.0208 188.688 68.4375C189.104 68.8958 189.604 69.2292 190.188 69.4375C190.771 69.6458 191.458 69.7083 192.25 69.625C191.208 70.3333 190.188 70.8542 189.188 71.1875C188.188 71.5208 187.208 71.6875 186.25 71.6875C185.208 71.7292 184.292 71.5625 183.5 71.1875C182.708 70.8542 182.042 70.3542 181.5 69.6875C180.958 69.0625 180.562 68.2917 180.312 67.375C180.062 66.5 179.979 65.5208 180.062 64.4375C180.146 63.4375 180.417 61.7917 180.875 59.5C181.333 57.2083 181.875 54.625 182.5 51.75C183.167 48.8333 183.875 45.8125 184.625 42.6875C185.417 39.5208 186.146 36.5625 186.812 33.8125C187.521 31.0208 188.125 28.625 188.625 26.625C189.125 24.625 189.438 23.3125 189.562 22.6875C189.646 22.1875 189.708 21.7292 189.75 21.3125C189.833 20.8542 189.917 20.4583 190 20.125C189.583 20.9583 189.062 21.9583 188.438 23.125C187.854 24.2917 187.229 25.5417 186.562 26.875C185.896 28.2083 185.208 29.6042 184.5 31.0625C183.833 32.4792 183.188 33.8542 182.562 35.1875C181.521 37.3542 180.5 39.5833 179.5 41.875C178.5 44.125 177.604 46.2708 176.812 48.3125C176.021 50.3542 175.354 52.1875 174.812 53.8125C174.312 55.4375 174.021 56.6875 173.938 57.5625V58.4375C173.938 58.6875 173.938 58.9792 173.938 59.3125C173.979 59.6458 174.042 59.9583 174.125 60.25L171.625 62.1875C171.25 62.3125 170.917 62.4167 170.625 62.5C170.375 62.5833 170.125 62.625 169.875 62.625C168.917 62.625 168.188 62.125 167.688 61.125C167.188 60.2083 166.729 58.4167 166.312 55.75C165.896 53.0833 165.771 49.8125 165.938 45.9375C166.021 44.0208 166.146 42.0833 166.312 40.125C166.521 38.1667 166.708 36.2917 166.875 34.5C167.083 32.7083 167.271 31.0417 167.438 29.5C167.604 27.9167 167.688 26.5625 167.688 25.4375C167.729 24.6042 167.708 23.8542 167.625 23.1875C167.542 22.4792 167.458 21.8333 167.375 21.25C167 22.2083 166.583 23.5208 166.125 25.1875C165.667 26.8125 165.188 28.625 164.688 30.625C164.188 32.625 163.667 34.7292 163.125 36.9375C162.625 39.1458 162.125 41.2708 161.625 43.3125C161.167 45.3542 160.729 47.25 160.312 49C159.896 50.7083 159.562 52.0833 159.312 53.125C158.896 54.7917 158.479 56.6875 158.062 58.8125C157.646 60.9375 157.125 62.9375 156.5 64.8125C155.875 66.7292 155.062 68.3333 154.062 69.625C153.062 70.9583 151.771 71.6458 150.188 71.6875ZM227.75 47.5625C227.167 48.3958 226.417 49.4375 225.5 50.6875C224.583 51.8958 223.625 53.125 222.625 54.375C221.667 55.5833 220.708 56.7083 219.75 57.75C218.833 58.75 218.062 59.4583 217.438 59.875C217.021 60.125 216.542 60.3333 216 60.5C215.458 60.6667 214.896 60.7708 214.312 60.8125C213.771 60.8542 213.25 60.8125 212.75 60.6875C212.25 60.6042 211.812 60.4375 211.438 60.1875C211.062 59.8958 210.75 59.4792 210.5 58.9375C210.292 58.4792 210.083 57.875 209.875 57.125C209.708 56.375 209.646 55.4375 209.688 54.3125C208.688 55.9792 207.583 57.2708 206.375 58.1875C205.167 59.0625 204.021 59.7083 202.938 60.125C201.688 60.5833 200.438 60.8542 199.188 60.9375C198.604 60.9375 197.979 60.7292 197.312 60.3125C196.646 59.9375 196.083 59.3333 195.625 58.5C195.167 57.625 194.875 56.5208 194.75 55.1875C194.625 53.8125 194.792 52.1875 195.25 50.3125C195.833 47.7708 196.75 45.4583 198 43.375C199.292 41.2917 200.688 39.5208 202.188 38.0625C203.688 36.5625 205.167 35.4375 206.625 34.6875C208.083 33.9375 209.292 33.6042 210.25 33.6875C211.375 33.8958 212.292 34.2292 213 34.6875C213.583 35.1042 213.958 35.7292 214.125 36.5625C214.333 37.3542 214 38.4167 213.125 39.75C213.708 39.625 214.188 39.5417 214.562 39.5C214.979 39.4583 215.292 39.4375 215.5 39.4375C215.75 39.4375 215.917 39.4583 216 39.5C216.042 39.5833 216.062 39.7708 216.062 40.0625C216.062 40.3125 216 40.7917 215.875 41.5C215.75 42.2083 215.562 43.1667 215.312 44.375C215.062 45.5833 214.729 47.1458 214.312 49.0625C214.229 49.4375 214.146 49.7917 214.062 50.125C214.021 50.4167 213.958 50.7292 213.875 51.0625C213.833 51.3542 213.771 51.7083 213.688 52.125C213.604 52.5417 213.5 53.0625 213.375 53.6875C213.333 54.0625 213.312 54.4792 213.312 54.9375C213.354 55.3542 213.438 55.75 213.562 56.125C213.688 56.5 213.875 56.8125 214.125 57.0625C214.417 57.2708 214.812 57.375 215.312 57.375C215.729 57.375 216.271 57.125 216.938 56.625C217.604 56.0833 218.312 55.4167 219.062 54.625C219.812 53.7917 220.583 52.8958 221.375 51.9375C222.208 50.9375 222.979 49.9792 223.688 49.0625C224.396 48.1458 225.021 47.3333 225.562 46.625C226.146 45.9167 226.562 45.3958 226.812 45.0625C227.146 44.6875 227.479 44.4792 227.812 44.4375C228.146 44.3542 228.396 44.4375 228.562 44.6875C228.729 44.9375 228.75 45.3125 228.625 45.8125C228.542 46.3125 228.25 46.8958 227.75 47.5625ZM209.438 50.3125C209.646 49.4792 209.896 48.5 210.188 47.375C210.479 46.25 210.729 45.1667 210.938 44.125C211.146 43.0833 211.292 42.2292 211.375 41.5625C211.5 40.8542 211.479 40.5208 211.312 40.5625C211.104 40.6042 210.875 40.6667 210.625 40.75C210.417 40.8333 210.146 40.8958 209.812 40.9375C209.479 40.9792 209.146 41.0417 208.812 41.125C209.146 40.4583 209.333 39.9167 209.375 39.5C209.458 39.0417 209.479 38.6875 209.438 38.4375C209.396 38.1458 209.312 37.9167 209.188 37.75C208.729 37.375 207.917 37.6875 206.75 38.6875C205.625 39.6458 204.312 41.4375 202.812 44.0625C202.188 45.1458 201.688 46.3125 201.312 47.5625C200.938 48.7708 200.667 49.9167 200.5 51C200.375 52.0833 200.354 53.0417 200.438 53.875C200.521 54.6667 200.688 55.1875 200.938 55.4375C201.396 55.8958 201.917 56.125 202.5 56.125C203.083 56.0833 203.667 55.9167 204.25 55.625C204.875 55.2917 205.479 54.875 206.062 54.375C206.688 53.875 207.229 53.3542 207.688 52.8125C208.188 52.2708 208.583 51.7708 208.875 51.3125C209.208 50.8542 209.396 50.5208 209.438 50.3125ZM219.062 86.6875C218.771 86.5625 218.479 86.375 218.188 86.125C217.938 85.9167 217.688 85.6458 217.438 85.3125C217.188 85.0208 216.979 84.6458 216.812 84.1875C217.979 79.7292 218.979 75.8542 219.812 72.5625C220.604 69.2708 221.292 66.5208 221.875 64.3125C222.5 61.7292 223.042 59.5625 223.5 57.8125C223.917 56.1458 224.333 54.4792 224.75 52.8125C225.083 51.3542 225.438 49.7917 225.812 48.125C226.229 46.4583 226.604 44.8958 226.938 43.4375C227.354 41.8125 227.604 40.5208 227.688 39.5625C227.771 38.5625 227.458 37.7083 226.75 37C227.25 36.5833 227.75 36.2708 228.25 36.0625C228.792 35.8125 229.271 35.6458 229.688 35.5625C230.146 35.4375 230.604 35.3958 231.062 35.4375C232.188 35.5208 232.875 35.875 233.125 36.5C233.417 37.125 233.458 38.125 233.25 39.5C233.208 39.7083 233.167 39.8958 233.125 40.0625C233.125 40.1875 233.125 40.3333 233.125 40.5C233.708 39.8333 234.354 39.1875 235.062 38.5625C235.771 37.9375 236.479 37.375 237.188 36.875C237.938 36.375 238.688 35.9792 239.438 35.6875C240.229 35.3542 240.979 35.1875 241.688 35.1875C242.646 35.1875 243.417 35.4375 244 35.9375C244.625 36.3958 245.104 37.0208 245.438 37.8125C245.771 38.6042 245.979 39.5 246.062 40.5C246.146 41.4583 246.167 42.4167 246.125 43.375C246.083 44.4167 245.896 45.5208 245.562 46.6875C245.271 47.8542 244.854 49.0417 244.312 50.25C243.771 51.4583 243.146 52.6458 242.438 53.8125C241.729 54.9792 240.979 56.0625 240.188 57.0625C240.354 57.1042 240.458 57.1458 240.5 57.1875C240.542 57.1875 240.562 57.2083 240.562 57.25C240.562 57.25 240.583 57.2708 240.625 57.3125C240.708 57.3125 240.854 57.3125 241.062 57.3125C242.021 57.3125 243 57.0625 244 56.5625C245 56.0625 245.979 55.4375 246.938 54.6875C247.896 53.8958 248.812 53.0417 249.688 52.125C250.604 51.2083 251.417 50.3333 252.125 49.5C252.875 48.625 253.5 47.8542 254 47.1875C254.5 46.4792 254.875 45.9792 255.125 45.6875C255.458 45.2708 255.771 45 256.062 44.875C256.354 44.7083 256.583 44.6875 256.75 44.8125C256.917 44.9375 257 45.1875 257 45.5625C257 45.8958 256.875 46.3333 256.625 46.875C256.458 47.25 256.104 47.8542 255.562 48.6875C255.021 49.5208 254.354 50.4583 253.562 51.5C252.771 52.5417 251.854 53.625 250.812 54.75C249.812 55.875 248.75 56.8958 247.625 57.8125C246.5 58.7292 245.333 59.4792 244.125 60.0625C242.958 60.6875 241.812 61 240.688 61C240.146 61 239.708 60.9792 239.375 60.9375C239.042 60.8958 238.75 60.8125 238.5 60.6875C238.292 60.6042 238.083 60.5 237.875 60.375C237.667 60.2917 237.417 60.1875 237.125 60.0625C236.375 60.6458 235.604 61.0833 234.812 61.375C234.021 61.7083 233.25 61.875 232.5 61.875C231.792 61.875 231.167 61.75 230.625 61.5C230.125 61.2917 229.708 60.9792 229.375 60.5625C229.042 60.1875 228.771 59.7708 228.562 59.3125C228.354 58.8125 228.188 58.3333 228.062 57.875C228.021 58.0417 227.979 58.1875 227.938 58.3125C227.938 58.4375 227.917 58.6042 227.875 58.8125C227.375 60.8125 226.854 63.125 226.312 65.75C225.854 68 225.292 70.7292 224.625 73.9375C224 77.1875 223.333 80.875 222.625 85C222.375 86.125 221.938 86.7708 221.312 86.9375C220.646 87.1042 219.896 87.0208 219.062 86.6875ZM230.5 47.9375C230.292 48.6458 230.062 49.4792 229.812 50.4375C229.604 51.3542 229.354 52.4583 229.062 53.75C229.396 53.5 229.771 53.3125 230.188 53.1875C230.604 53.0625 231.021 53 231.438 53C231.896 53 232.479 53.25 233.188 53.75C233.896 54.2083 234.75 54.7083 235.75 55.25C236.375 54.5 237.021 53.6667 237.688 52.75C238.396 51.7917 239.021 50.8125 239.562 49.8125C240.146 48.8125 240.625 47.7917 241 46.75C241.417 45.7083 241.646 44.7083 241.688 43.75C241.771 42.5 241.625 41.5208 241.25 40.8125C240.875 40.1042 240.25 39.75 239.375 39.75C238.083 39.75 236.667 40.5208 235.125 42.0625C233.625 43.5625 232.083 45.5208 230.5 47.9375Z" fill="white"/>
<path d="M51.0938 133.023C50.9531 132.93 50.8828 132.828 50.8828 132.719C50.8672 132.609 50.8906 132.5 50.9531 132.391C51.0156 132.266 51.1094 132.141 51.2344 132.016C51.3594 131.906 51.5078 131.625 51.6797 131.172C51.8516 130.734 52.0312 130.203 52.2188 129.578C52.4219 128.938 52.6172 128.242 52.8047 127.492C53.0078 126.742 53.1953 126.008 53.3672 125.289C53.5391 124.57 53.6875 123.906 53.8125 123.297C53.9375 122.688 54.0312 122.203 54.0938 121.844C54.1719 121.406 54.2578 120.93 54.3516 120.414C54.4297 119.961 54.5156 119.438 54.6094 118.844C54.7031 118.234 54.7891 117.562 54.8672 116.828L56.7422 115.984C57.0078 115.859 57.1953 115.891 57.3047 116.078C57.4141 116.25 57.4141 116.617 57.3047 117.18C57.2578 117.461 57.1719 117.922 57.0469 118.562C56.9219 119.188 56.7734 119.883 56.6016 120.648C56.4453 121.398 56.2734 122.172 56.0859 122.969C55.9141 123.75 55.7422 124.445 55.5703 125.055C55.4141 125.633 55.2344 126.297 55.0312 127.047C54.6719 128.328 54.1719 130.078 53.5312 132.297C53.75 132.672 54.1562 132.859 54.75 132.859C55.4062 132.859 56.1641 132.609 57.0234 132.109C57.8984 131.609 58.7422 130.859 59.5547 129.859C60.3672 128.859 61.0781 127.609 61.6875 126.109C62.3125 124.594 62.7031 122.828 62.8594 120.812C62.9375 119.719 62.8828 118.758 62.6953 117.93C62.5078 117.102 62.2188 116.406 61.8281 115.844C61.4531 115.281 60.9844 114.859 60.4219 114.578C59.875 114.297 59.2656 114.156 58.5938 114.156C57.0156 114.156 55.3828 114.812 53.6953 116.125L53.5781 114.18C53.9844 113.727 54.4453 113.383 54.9609 113.148C55.4922 112.898 55.9844 112.711 56.4375 112.586C56.9688 112.445 57.5078 112.367 58.0547 112.352C59.0547 112.352 60.0156 112.547 60.9375 112.938C61.875 113.312 62.6797 113.891 63.3516 114.672C64.0391 115.453 64.5625 116.438 64.9219 117.625C65.2812 118.797 65.4062 120.172 65.2969 121.75C65.2344 122.656 65.0469 123.602 64.7344 124.586C64.4375 125.555 64.0391 126.508 63.5391 127.445C63.0547 128.383 62.4766 129.273 61.8047 130.117C61.1328 130.961 60.3984 131.695 59.6016 132.32C58.8047 132.961 57.9531 133.461 57.0469 133.82C56.1406 134.195 55.2031 134.383 54.2344 134.383C53.9375 134.367 53.6172 134.312 53.2734 134.219C52.9766 134.141 52.6406 134.008 52.2656 133.82C51.8906 133.633 51.5 133.367 51.0938 133.023ZM65.2969 129.883C65.1875 130.055 65.0703 130.164 64.9453 130.211C64.8047 130.273 64.6875 130.281 64.5938 130.234C64.4844 130.203 64.4141 130.125 64.3828 130C64.3516 129.875 64.3828 129.719 64.4766 129.531C64.5234 129.438 64.6328 129.227 64.8047 128.898C64.9609 128.57 65.1562 128.18 65.3906 127.727C65.6094 127.258 65.8516 126.758 66.1172 126.227C66.3828 125.68 66.6328 125.164 66.8672 124.68C67.1172 124.195 67.3438 123.766 67.5469 123.391C67.75 123 67.8984 122.719 67.9922 122.547C67.8203 122.391 67.7031 122.281 67.6406 122.219C67.5781 122.141 67.5312 121.984 67.5 121.75C67.4688 121.547 67.5156 121.281 67.6406 120.953C67.7656 120.625 67.9297 120.312 68.1328 120.016C68.3359 119.703 68.5625 119.438 68.8125 119.219C69.0625 119 69.3047 118.891 69.5391 118.891C69.9766 118.891 70.2812 119.031 70.4531 119.312C70.6406 119.594 70.75 119.883 70.7812 120.18C70.8125 120.383 70.7969 120.641 70.7344 120.953C70.6719 121.266 70.5547 121.547 70.3828 121.797C70.4297 121.828 70.4922 121.867 70.5703 121.914C70.6484 121.945 70.7734 121.961 70.9453 121.961C71.1953 121.961 71.3672 121.945 71.4609 121.914C71.5703 121.883 71.7344 121.867 71.9531 121.867C72.2188 121.867 72.4375 121.938 72.6094 122.078C72.7812 122.203 72.9219 122.367 73.0312 122.57C73.1406 122.758 73.2188 122.969 73.2656 123.203C73.3281 123.422 73.3672 123.625 73.3828 123.812C73.4297 124.203 73.3281 124.609 73.0781 125.031C72.8281 125.453 72.5234 125.914 72.1641 126.414C71.9453 126.727 71.7266 127.078 71.5078 127.469C71.2891 127.859 71.1953 128.211 71.2266 128.523C71.2578 128.727 71.3125 128.891 71.3906 129.016C71.4688 129.141 71.6875 129.203 72.0469 129.203C72.3125 129.203 72.6016 129.109 72.9141 128.922C73.2422 128.719 73.5703 128.469 73.8984 128.172C74.2422 127.859 74.5781 127.523 74.9062 127.164C75.2344 126.789 75.5391 126.43 75.8203 126.086C76.1016 125.727 76.3359 125.406 76.5234 125.125C76.7266 124.844 76.875 124.641 76.9688 124.516C77.0469 124.391 77.1484 124.305 77.2734 124.258C77.3984 124.211 77.5078 124.211 77.6016 124.258C77.6953 124.305 77.75 124.398 77.7656 124.539C77.7969 124.68 77.7422 124.867 77.6016 125.102C77.5078 125.258 77.3438 125.508 77.1094 125.852C76.8906 126.195 76.6172 126.578 76.2891 127C75.9766 127.422 75.625 127.859 75.2344 128.312C74.8438 128.75 74.4297 129.156 73.9922 129.531C73.5703 129.891 73.1406 130.188 72.7031 130.422C72.2812 130.656 71.875 130.773 71.4844 130.773C71.0781 130.773 70.7422 130.695 70.4766 130.539C70.2109 130.383 69.9922 130.195 69.8203 129.977C69.6641 129.742 69.5469 129.492 69.4688 129.227C69.4062 128.945 69.3828 128.688 69.3984 128.453C69.4141 128.266 69.4609 128.07 69.5391 127.867C69.6328 127.648 69.7344 127.43 69.8438 127.211C69.9688 126.977 70.0938 126.75 70.2188 126.531C70.3594 126.297 70.4844 126.07 70.5938 125.852C70.8594 125.398 71.0703 125.016 71.2266 124.703C71.3984 124.375 71.4844 124.102 71.4844 123.883C71.4844 123.742 71.4531 123.617 71.3906 123.508C71.3281 123.398 71.2266 123.344 71.0859 123.344C70.9922 123.344 70.9219 123.352 70.875 123.367C70.8438 123.367 70.8047 123.367 70.7578 123.367C70.7266 123.367 70.6719 123.375 70.5938 123.391C70.5312 123.391 70.4297 123.391 70.2891 123.391C70.0859 123.391 69.9141 123.359 69.7734 123.297C69.6328 123.234 69.5 123.188 69.375 123.156C69.3125 123.266 69.1719 123.5 68.9531 123.859C68.7344 124.219 68.4766 124.641 68.1797 125.125C67.8984 125.609 67.5938 126.117 67.2656 126.648C66.9531 127.18 66.6562 127.68 66.375 128.148C66.0938 128.602 65.8594 128.992 65.6719 129.32C65.4688 129.633 65.3438 129.82 65.2969 129.883ZM87.9609 125.336C87.7422 125.648 87.4609 126.039 87.1172 126.508C86.7734 126.961 86.4141 127.422 86.0391 127.891C85.6797 128.344 85.3203 128.766 84.9609 129.156C84.6172 129.531 84.3281 129.797 84.0938 129.953C83.9375 130.047 83.7578 130.125 83.5547 130.188C83.3516 130.25 83.1406 130.289 82.9219 130.305C82.7188 130.32 82.5234 130.305 82.3359 130.258C82.1484 130.227 81.9844 130.164 81.8438 130.07C81.7031 129.961 81.5859 129.805 81.4922 129.602C81.4141 129.43 81.3359 129.203 81.2578 128.922C81.1953 128.641 81.1719 128.289 81.1875 127.867C80.8125 128.492 80.3984 128.977 79.9453 129.32C79.4922 129.648 79.0625 129.891 78.6562 130.047C78.1875 130.219 77.7188 130.32 77.25 130.352C77.0312 130.352 76.7969 130.273 76.5469 130.117C76.2969 129.977 76.0859 129.75 75.9141 129.438C75.7422 129.109 75.6328 128.695 75.5859 128.195C75.5391 127.68 75.6016 127.07 75.7734 126.367C75.9922 125.414 76.3359 124.547 76.8047 123.766C77.2891 122.984 77.8125 122.32 78.375 121.773C78.9375 121.211 79.4922 120.789 80.0391 120.508C80.5859 120.227 81.0391 120.102 81.3984 120.133C81.8203 120.211 82.1641 120.336 82.4297 120.508C82.6484 120.664 82.7891 120.898 82.8516 121.211C82.9297 121.508 82.8047 121.906 82.4766 122.406C82.6953 122.359 82.875 122.328 83.0156 122.312C83.1719 122.297 83.2891 122.289 83.3672 122.289C83.4609 122.289 83.5234 122.297 83.5547 122.312C83.5703 122.344 83.5781 122.414 83.5781 122.523C83.5781 122.617 83.5547 122.797 83.5078 123.062C83.4609 123.328 83.3906 123.688 83.2969 124.141C83.2031 124.594 83.0781 125.18 82.9219 125.898C82.8906 126.039 82.8594 126.172 82.8281 126.297C82.8125 126.406 82.7891 126.523 82.7578 126.648C82.7422 126.758 82.7188 126.891 82.6875 127.047C82.6562 127.203 82.6172 127.398 82.5703 127.633C82.5547 127.773 82.5469 127.93 82.5469 128.102C82.5625 128.258 82.5938 128.406 82.6406 128.547C82.6875 128.688 82.7578 128.805 82.8516 128.898C82.9609 128.977 83.1094 129.016 83.2969 129.016C83.4531 129.016 83.6562 128.922 83.9062 128.734C84.1562 128.531 84.4219 128.281 84.7031 127.984C84.9844 127.672 85.2734 127.336 85.5703 126.977C85.8828 126.602 86.1719 126.242 86.4375 125.898C86.7031 125.555 86.9375 125.25 87.1406 124.984C87.3594 124.719 87.5156 124.523 87.6094 124.398C87.7344 124.258 87.8594 124.18 87.9844 124.164C88.1094 124.133 88.2031 124.164 88.2656 124.258C88.3281 124.352 88.3359 124.492 88.2891 124.68C88.2578 124.867 88.1484 125.086 87.9609 125.336ZM81.0938 126.367C81.1719 126.055 81.2656 125.688 81.375 125.266C81.4844 124.844 81.5781 124.438 81.6562 124.047C81.7344 123.656 81.7891 123.336 81.8203 123.086C81.8672 122.82 81.8594 122.695 81.7969 122.711C81.7188 122.727 81.6328 122.75 81.5391 122.781C81.4609 122.812 81.3594 122.836 81.2344 122.852C81.1094 122.867 80.9844 122.891 80.8594 122.922C80.9844 122.672 81.0547 122.469 81.0703 122.312C81.1016 122.141 81.1094 122.008 81.0938 121.914C81.0781 121.805 81.0469 121.719 81 121.656C80.8281 121.516 80.5234 121.633 80.0859 122.008C79.6641 122.367 79.1719 123.039 78.6094 124.023C78.375 124.43 78.1875 124.867 78.0469 125.336C77.9062 125.789 77.8047 126.219 77.7422 126.625C77.6953 127.031 77.6875 127.391 77.7188 127.703C77.75 128 77.8125 128.195 77.9062 128.289C78.0781 128.461 78.2734 128.547 78.4922 128.547C78.7109 128.531 78.9297 128.469 79.1484 128.359C79.3828 128.234 79.6094 128.078 79.8281 127.891C80.0625 127.703 80.2656 127.508 80.4375 127.305C80.625 127.102 80.7734 126.914 80.8828 126.742C81.0078 126.57 81.0781 126.445 81.0938 126.367ZM98.6016 125.945C98.3828 126.508 98.1328 127.055 97.8516 127.586C97.5703 128.117 97.2578 128.594 96.9141 129.016C96.5703 129.438 96.2031 129.773 95.8125 130.023C95.4219 130.273 95 130.398 94.5469 130.398C93.8125 130.398 93.2578 130.156 92.8828 129.672C92.5078 129.172 92.25 128.562 92.1094 127.844C91.8906 128.172 91.6562 128.5 91.4062 128.828C91.1562 129.156 90.8906 129.445 90.6094 129.695C90.3281 129.945 90.0391 130.148 89.7422 130.305C89.4453 130.461 89.1484 130.539 88.8516 130.539C88.4453 130.539 88.1016 130.453 87.8203 130.281C87.5391 130.109 87.3047 129.875 87.1172 129.578C86.9453 129.266 86.8203 128.914 86.7422 128.523C86.6641 128.117 86.625 127.688 86.625 127.234V126.953C86.625 126.375 86.6719 125.781 86.7656 125.172C86.8594 124.562 86.9609 124 87.0703 123.484C87.1953 122.969 87.3203 122.523 87.4453 122.148C87.5703 121.758 87.6641 121.5 87.7266 121.375C87.8359 121.219 88.0703 121.07 88.4297 120.93C88.8047 120.773 89.1719 120.711 89.5312 120.742C89.7031 120.758 89.7891 120.828 89.7891 120.953C89.8047 121.078 89.7891 121.234 89.7422 121.422C89.6797 121.688 89.5703 122.086 89.4141 122.617C89.2578 123.148 89.0938 123.727 88.9219 124.352C88.7656 124.977 88.625 125.594 88.5 126.203C88.375 126.812 88.3125 127.32 88.3125 127.727C88.3125 128.227 88.3906 128.586 88.5469 128.805C88.7031 129.023 88.9453 129.133 89.2734 129.133C89.6641 129.133 90.0938 128.914 90.5625 128.477C91.0469 128.039 91.5156 127.297 91.9688 126.25C91.9531 126.156 91.9453 126.062 91.9453 125.969C91.9453 125.875 91.9453 125.773 91.9453 125.664C91.9453 124.961 91.9688 124.289 92.0156 123.648C92.0781 123.008 92.1875 122.445 92.3438 121.961C92.5156 121.477 92.7422 121.094 93.0234 120.812C93.3203 120.531 93.7031 120.391 94.1719 120.391C94.3594 120.391 94.5156 120.445 94.6406 120.555C94.7656 120.664 94.8281 120.82 94.8281 121.023C94.8281 121.523 94.6484 122.234 94.2891 123.156C93.9453 124.062 93.5312 125.062 93.0469 126.156C93 126.219 92.9688 126.281 92.9531 126.344C93 126.641 93.0547 126.953 93.1172 127.281C93.1953 127.609 93.2969 127.914 93.4219 128.195C93.5469 128.461 93.6953 128.688 93.8672 128.875C94.0391 129.047 94.2422 129.133 94.4766 129.133C94.8203 129.133 95.1328 128.969 95.4141 128.641C95.7109 128.312 95.9688 127.914 96.1875 127.445C96.4219 126.977 96.625 126.484 96.7969 125.969C96.9688 125.438 97.1016 124.969 97.1953 124.562C97.1484 124.391 97.1094 124.227 97.0781 124.07C97.0469 123.898 97.0312 123.703 97.0312 123.484C97.0312 123 97.1016 122.586 97.2422 122.242C97.3828 121.898 97.5625 121.617 97.7812 121.398C98.0156 121.164 98.2578 120.992 98.5078 120.883C98.7734 120.773 99.0156 120.719 99.2344 120.719C99.625 120.719 99.8203 120.891 99.8203 121.234C99.8203 121.484 99.7578 121.922 99.6328 122.547C99.5078 123.156 99.3281 123.852 99.0938 124.633C99.375 124.758 99.7344 124.82 100.172 124.82C100.578 124.82 100.953 124.773 101.297 124.68C101.641 124.57 101.953 124.438 102.234 124.281C102.516 124.125 102.773 123.953 103.008 123.766C103.242 123.578 103.469 123.398 103.688 123.227C103.859 123.102 104 123.094 104.109 123.203C104.219 123.312 104.203 123.484 104.062 123.719C103.938 123.922 103.719 124.156 103.406 124.422C103.109 124.688 102.742 124.945 102.305 125.195C101.883 125.43 101.406 125.633 100.875 125.805C100.359 125.961 99.8125 126.039 99.2344 126.039C99.1406 126.039 99.0391 126.031 98.9297 126.016C98.8203 126 98.7109 125.977 98.6016 125.945ZM114.797 121.375C115 121.219 115.195 121.102 115.383 121.023C115.586 120.93 115.766 120.867 115.922 120.836C116.094 120.789 116.266 120.773 116.438 120.789C116.859 120.82 117.117 120.953 117.211 121.188C117.32 121.422 117.336 121.797 117.258 122.312C117.211 122.578 117.117 122.914 116.977 123.32C116.836 123.727 116.672 124.227 116.484 124.82C116.297 125.398 116.094 126.062 115.875 126.812C115.672 127.562 115.477 128.406 115.289 129.344C115.102 130.109 114.898 130.992 114.68 131.992C114.492 132.867 114.266 133.922 114 135.156C113.75 136.391 113.477 137.805 113.18 139.398C113.102 139.789 112.93 140.016 112.664 140.078C112.414 140.141 112.148 140.109 111.867 139.984C111.758 139.922 111.656 139.852 111.562 139.773C111.484 139.695 111.398 139.602 111.305 139.492C111.211 139.398 111.133 139.266 111.07 139.094C111.43 137.781 111.742 136.586 112.008 135.508C112.289 134.43 112.539 133.492 112.758 132.695C112.992 131.773 113.211 130.945 113.414 130.211C113.492 129.883 113.562 129.562 113.625 129.25C113.703 128.922 113.781 128.602 113.859 128.289C113.656 128.617 113.438 128.93 113.203 129.227C112.969 129.523 112.711 129.781 112.43 130C112.148 130.219 111.844 130.383 111.516 130.492C111.203 130.617 110.875 130.656 110.531 130.609C109.688 130.5 109.086 130.188 108.727 129.672C108.383 129.156 108.234 128.484 108.281 127.656C108.297 127.328 108.344 126.969 108.422 126.578C108.5 126.188 108.586 125.812 108.68 125.453C108.773 125.094 108.859 124.773 108.938 124.492C109.031 124.195 109.102 123.984 109.148 123.859C109.336 123.266 109.469 122.758 109.547 122.336C109.641 121.914 109.578 121.562 109.359 121.281C109.578 121.141 109.781 121.047 109.969 121C110.172 120.938 110.352 120.891 110.508 120.859C110.68 120.844 110.852 120.844 111.023 120.859C111.445 120.922 111.688 121.078 111.75 121.328C111.828 121.578 111.805 121.953 111.68 122.453C111.617 122.719 111.516 123.062 111.375 123.484C111.234 123.891 111.086 124.312 110.93 124.75C110.773 125.188 110.633 125.594 110.508 125.969C110.383 126.328 110.312 126.586 110.297 126.742C110.156 127.445 110.148 127.992 110.273 128.383C110.398 128.758 110.672 128.945 111.094 128.945C111.297 128.945 111.523 128.859 111.773 128.688C112.023 128.5 112.273 128.258 112.523 127.961C112.789 127.664 113.047 127.328 113.297 126.953C113.547 126.562 113.773 126.172 113.977 125.781C114.195 125.391 114.383 125.008 114.539 124.633C114.711 124.258 114.836 123.922 114.914 123.625C115.023 123.047 115.094 122.594 115.125 122.266C115.156 121.938 115.047 121.641 114.797 121.375ZM125.32 126.273C125.164 126.867 124.953 127.422 124.688 127.938C124.422 128.453 124.102 128.898 123.727 129.273C123.367 129.648 122.953 129.938 122.484 130.141C122.031 130.359 121.531 130.469 120.984 130.469C120.344 130.469 119.836 130.328 119.461 130.047C119.102 129.781 118.828 129.445 118.641 129.039C118.469 128.633 118.367 128.188 118.336 127.703C118.289 127.219 118.266 126.766 118.266 126.344C118.266 126.047 118.305 125.719 118.383 125.359C118.445 125 118.539 124.633 118.664 124.258C118.789 123.883 118.945 123.508 119.133 123.133C119.336 122.758 119.57 122.414 119.836 122.102C119.93 121.836 120.07 121.602 120.258 121.398C120.461 121.195 120.688 121.031 120.938 120.906C121.203 120.766 121.484 120.664 121.781 120.602C122.078 120.523 122.367 120.484 122.648 120.484C122.695 120.484 122.734 120.492 122.766 120.508C122.812 120.523 122.859 120.539 122.906 120.555C123.109 120.57 123.359 120.648 123.656 120.789C123.969 120.93 124.266 121.141 124.547 121.422C124.844 121.703 125.094 122.062 125.297 122.5C125.5 122.922 125.602 123.438 125.602 124.047C125.602 124.172 125.594 124.328 125.578 124.516C125.562 124.688 125.547 124.836 125.531 124.961C125.891 124.82 126.266 124.648 126.656 124.445C127.047 124.242 127.422 124.031 127.781 123.812C128.156 123.578 128.5 123.344 128.812 123.109C129.125 122.875 129.375 122.664 129.562 122.477C129.719 122.336 129.852 122.258 129.961 122.242C130.07 122.227 130.148 122.258 130.195 122.336C130.242 122.414 130.25 122.523 130.219 122.664C130.188 122.805 130.102 122.961 129.961 123.133C129.883 123.227 129.68 123.414 129.352 123.695C129.039 123.977 128.664 124.281 128.227 124.609C127.789 124.938 127.312 125.258 126.797 125.57C126.281 125.883 125.789 126.117 125.32 126.273ZM121.359 122.711C121.312 122.852 121.289 123 121.289 123.156C121.289 123.406 121.305 123.672 121.336 123.953C121.367 124.219 121.445 124.461 121.57 124.68C121.695 124.898 121.891 125.086 122.156 125.242C122.438 125.383 122.82 125.453 123.305 125.453C123.383 125.453 123.461 125.453 123.539 125.453C123.617 125.438 123.695 125.422 123.773 125.406C123.82 125.203 123.859 125.023 123.891 124.867C123.938 124.695 123.961 124.547 123.961 124.422C123.992 124.125 123.992 123.82 123.961 123.508C123.93 123.195 123.867 122.914 123.773 122.664C123.695 122.398 123.586 122.188 123.445 122.031C123.32 121.859 123.164 121.773 122.977 121.773C122.68 121.773 122.391 121.859 122.109 122.031C121.844 122.188 121.594 122.414 121.359 122.711ZM119.859 126.836C119.859 127.117 119.875 127.398 119.906 127.68C119.938 127.945 120 128.188 120.094 128.406C120.188 128.609 120.312 128.781 120.469 128.922C120.625 129.047 120.828 129.109 121.078 129.109C121.359 129.109 121.617 129.047 121.852 128.922C122.086 128.781 122.297 128.609 122.484 128.406C122.672 128.188 122.836 127.945 122.977 127.68C123.133 127.398 123.266 127.109 123.375 126.812C123.266 126.828 123.156 126.844 123.047 126.859C122.953 126.859 122.844 126.859 122.719 126.859C122.125 126.859 121.609 126.688 121.172 126.344C120.75 125.984 120.422 125.531 120.188 124.984C120.094 125.312 120.016 125.633 119.953 125.945C119.891 126.258 119.859 126.555 119.859 126.836ZM130.734 130.375C130.141 130.375 129.656 130.281 129.281 130.094C128.906 129.906 128.609 129.68 128.391 129.414C128.188 129.133 128.039 128.836 127.945 128.523C127.867 128.195 127.828 127.898 127.828 127.633C127.828 127.164 127.867 126.672 127.945 126.156C128.023 125.625 128.117 125.141 128.227 124.703C128.336 124.25 128.43 123.867 128.508 123.555C128.602 123.242 128.664 123.047 128.695 122.969C128.836 122.516 129.016 122.125 129.234 121.797C129.469 121.453 129.789 121.219 130.195 121.094C130.352 121.062 130.516 121.031 130.688 121C130.828 120.984 130.969 120.977 131.109 120.977C131.266 120.977 131.406 121 131.531 121.047C131.109 122.125 130.773 123.023 130.523 123.742C130.289 124.461 130.109 125.047 129.984 125.5C129.844 126.016 129.758 126.43 129.727 126.742C129.648 127.445 129.711 127.977 129.914 128.336C130.117 128.695 130.531 128.875 131.156 128.875C131.562 128.875 131.953 128.727 132.328 128.43C132.703 128.117 133.047 127.719 133.359 127.234C133.312 126.984 133.289 126.727 133.289 126.461C133.289 125.961 133.328 125.477 133.406 125.008C133.5 124.523 133.602 124.078 133.711 123.672C133.836 123.25 133.961 122.875 134.086 122.547C134.227 122.219 134.344 121.961 134.438 121.773C134.609 121.398 134.766 121.172 134.906 121.094C135.047 121 135.273 120.945 135.586 120.93C135.711 120.914 135.812 120.914 135.891 120.93C135.984 120.93 136.062 120.938 136.125 120.953C136.312 121 136.406 121.094 136.406 121.234C136.406 121.484 136.391 121.859 136.359 122.359C136.328 122.859 136.234 123.375 136.078 123.906C135.969 124.344 135.859 124.719 135.75 125.031C135.656 125.328 135.562 125.586 135.469 125.805C135.375 126.008 135.281 126.18 135.188 126.32C135.094 126.445 135.008 126.562 134.93 126.672C134.961 127.141 135 127.516 135.047 127.797C135.094 128.078 135.148 128.297 135.211 128.453C135.289 128.594 135.375 128.695 135.469 128.758C135.578 128.805 135.695 128.828 135.82 128.828C136.039 128.828 136.297 128.727 136.594 128.523C136.891 128.305 137.195 128.039 137.508 127.727C137.836 127.398 138.156 127.047 138.469 126.672C138.797 126.281 139.094 125.914 139.359 125.57C139.625 125.227 139.852 124.93 140.039 124.68C140.227 124.414 140.344 124.25 140.391 124.188C140.5 124.047 140.602 123.961 140.695 123.93C140.805 123.898 140.891 123.914 140.953 123.977C141.016 124.023 141.047 124.109 141.047 124.234C141.062 124.344 141.031 124.469 140.953 124.609C140.641 125.203 140.25 125.836 139.781 126.508C139.328 127.164 138.836 127.773 138.305 128.336C137.789 128.898 137.266 129.367 136.734 129.742C136.203 130.117 135.703 130.305 135.234 130.305C134.812 130.305 134.477 130.164 134.227 129.883C133.992 129.586 133.789 129.164 133.617 128.617C133.258 129.18 132.836 129.617 132.352 129.93C131.867 130.227 131.328 130.375 130.734 130.375ZM138.188 129.883C138.078 130.055 137.961 130.164 137.836 130.211C137.695 130.273 137.578 130.281 137.484 130.234C137.375 130.203 137.305 130.125 137.273 130C137.242 129.875 137.273 129.719 137.367 129.531C137.414 129.438 137.523 129.227 137.695 128.898C137.852 128.57 138.047 128.18 138.281 127.727C138.5 127.258 138.742 126.758 139.008 126.227C139.273 125.68 139.523 125.164 139.758 124.68C140.008 124.195 140.234 123.766 140.438 123.391C140.641 123 140.789 122.719 140.883 122.547C140.711 122.391 140.594 122.281 140.531 122.219C140.469 122.141 140.422 121.984 140.391 121.75C140.359 121.547 140.406 121.281 140.531 120.953C140.656 120.625 140.82 120.312 141.023 120.016C141.227 119.703 141.453 119.438 141.703 119.219C141.953 119 142.195 118.891 142.43 118.891C142.867 118.891 143.172 119.031 143.344 119.312C143.531 119.594 143.641 119.883 143.672 120.18C143.703 120.383 143.688 120.641 143.625 120.953C143.562 121.266 143.445 121.547 143.273 121.797C143.32 121.828 143.383 121.867 143.461 121.914C143.539 121.945 143.664 121.961 143.836 121.961C144.086 121.961 144.258 121.945 144.352 121.914C144.461 121.883 144.625 121.867 144.844 121.867C145.109 121.867 145.328 121.938 145.5 122.078C145.672 122.203 145.812 122.367 145.922 122.57C146.031 122.758 146.109 122.969 146.156 123.203C146.219 123.422 146.258 123.625 146.273 123.812C146.32 124.203 146.219 124.609 145.969 125.031C145.719 125.453 145.414 125.914 145.055 126.414C144.836 126.727 144.617 127.078 144.398 127.469C144.18 127.859 144.086 128.211 144.117 128.523C144.148 128.727 144.203 128.891 144.281 129.016C144.359 129.141 144.578 129.203 144.938 129.203C145.203 129.203 145.492 129.109 145.805 128.922C146.133 128.719 146.461 128.469 146.789 128.172C147.133 127.859 147.469 127.523 147.797 127.164C148.125 126.789 148.43 126.43 148.711 126.086C148.992 125.727 149.227 125.406 149.414 125.125C149.617 124.844 149.766 124.641 149.859 124.516C149.938 124.391 150.039 124.305 150.164 124.258C150.289 124.211 150.398 124.211 150.492 124.258C150.586 124.305 150.641 124.398 150.656 124.539C150.688 124.68 150.633 124.867 150.492 125.102C150.398 125.258 150.234 125.508 150 125.852C149.781 126.195 149.508 126.578 149.18 127C148.867 127.422 148.516 127.859 148.125 128.312C147.734 128.75 147.32 129.156 146.883 129.531C146.461 129.891 146.031 130.188 145.594 130.422C145.172 130.656 144.766 130.773 144.375 130.773C143.969 130.773 143.633 130.695 143.367 130.539C143.102 130.383 142.883 130.195 142.711 129.977C142.555 129.742 142.438 129.492 142.359 129.227C142.297 128.945 142.273 128.688 142.289 128.453C142.305 128.266 142.352 128.07 142.43 127.867C142.523 127.648 142.625 127.43 142.734 127.211C142.859 126.977 142.984 126.75 143.109 126.531C143.25 126.297 143.375 126.07 143.484 125.852C143.75 125.398 143.961 125.016 144.117 124.703C144.289 124.375 144.375 124.102 144.375 123.883C144.375 123.742 144.344 123.617 144.281 123.508C144.219 123.398 144.117 123.344 143.977 123.344C143.883 123.344 143.812 123.352 143.766 123.367C143.734 123.367 143.695 123.367 143.648 123.367C143.617 123.367 143.562 123.375 143.484 123.391C143.422 123.391 143.32 123.391 143.18 123.391C142.977 123.391 142.805 123.359 142.664 123.297C142.523 123.234 142.391 123.188 142.266 123.156C142.203 123.266 142.062 123.5 141.844 123.859C141.625 124.219 141.367 124.641 141.07 125.125C140.789 125.609 140.484 126.117 140.156 126.648C139.844 127.18 139.547 127.68 139.266 128.148C138.984 128.602 138.75 128.992 138.562 129.32C138.359 129.633 138.234 129.82 138.188 129.883ZM164.203 124.07C164.266 123.977 164.344 123.922 164.438 123.906C164.547 123.875 164.633 123.883 164.695 123.93C164.758 123.977 164.789 124.055 164.789 124.164C164.805 124.273 164.766 124.422 164.672 124.609C164.359 125.203 163.945 125.844 163.43 126.531C162.93 127.219 162.398 127.867 161.836 128.477C161.273 129.07 160.727 129.562 160.195 129.953C159.664 130.344 159.219 130.539 158.859 130.539C158.344 130.539 157.914 130.438 157.57 130.234C157.227 130.031 156.953 129.781 156.75 129.484C156.562 129.188 156.43 128.867 156.352 128.523C156.273 128.164 156.25 127.836 156.281 127.539C156.297 127.289 156.352 126.844 156.445 126.203C156.539 125.547 156.664 124.797 156.82 123.953C156.977 123.094 157.148 122.18 157.336 121.211C157.539 120.227 157.75 119.281 157.969 118.375C157.703 118.406 157.438 118.438 157.172 118.469C156.906 118.5 156.664 118.516 156.445 118.516C155.945 118.516 155.477 118.461 155.039 118.352C154.586 118.227 154.25 118.109 154.031 118C153.906 117.938 153.852 117.852 153.867 117.742C153.883 117.617 153.93 117.5 154.008 117.391C154.086 117.266 154.188 117.164 154.312 117.086C154.422 116.992 154.523 116.945 154.617 116.945C154.914 116.977 155.234 117.008 155.578 117.039C155.922 117.055 156.297 117.055 156.703 117.039C157 117.023 157.281 117 157.547 116.969C157.828 116.938 158.102 116.898 158.367 116.852C158.57 116.102 158.766 115.453 158.953 114.906C159.156 114.344 159.336 113.953 159.492 113.734C159.539 113.656 159.641 113.594 159.797 113.547C159.969 113.484 160.148 113.445 160.336 113.43C160.523 113.398 160.703 113.398 160.875 113.43C161.047 113.445 161.172 113.5 161.25 113.594C161.328 113.719 161.359 114.039 161.344 114.555C161.328 115.07 161.242 115.727 161.086 116.523C161.742 116.523 162.32 116.562 162.82 116.641C163.336 116.703 163.773 116.781 164.133 116.875C164.492 116.953 164.781 117.039 165 117.133C165.219 117.211 165.383 117.266 165.492 117.297C165.602 117.328 165.656 117.406 165.656 117.531C165.672 117.656 165.648 117.789 165.586 117.93C165.539 118.055 165.453 118.164 165.328 118.258C165.203 118.352 165.062 118.383 164.906 118.352C164.75 118.336 164.57 118.305 164.367 118.258C164.18 118.211 163.945 118.172 163.664 118.141C163.398 118.109 163.078 118.078 162.703 118.047C162.328 118.016 161.891 118 161.391 118C161.297 118 161.188 118.008 161.062 118.023C160.953 118.023 160.836 118.023 160.711 118.023C160.648 118.273 160.586 118.523 160.523 118.773C160.477 119.008 160.406 119.258 160.312 119.523C160.109 120.148 159.875 120.828 159.609 121.562C159.375 122.203 159.094 122.938 158.766 123.766C158.438 124.594 158.07 125.477 157.664 126.414C157.57 127.086 157.578 127.602 157.688 127.961C157.812 128.305 157.961 128.555 158.133 128.711C158.336 128.883 158.586 128.977 158.883 128.992C159.117 129.023 159.398 128.945 159.727 128.758C160.07 128.555 160.422 128.289 160.781 127.961C161.141 127.633 161.5 127.273 161.859 126.883C162.234 126.492 162.578 126.109 162.891 125.734C163.203 125.359 163.477 125.023 163.711 124.727C163.945 124.414 164.109 124.195 164.203 124.07ZM174.891 124.844C175 124.719 175.109 124.656 175.219 124.656C175.344 124.641 175.438 124.672 175.5 124.75C175.578 124.812 175.609 124.914 175.594 125.055C175.594 125.195 175.531 125.352 175.406 125.523C175.109 125.93 174.766 126.352 174.375 126.789C173.984 127.211 173.562 127.625 173.109 128.031C172.672 128.438 172.227 128.82 171.773 129.18C171.32 129.539 170.883 129.836 170.461 130.07C169.992 130.336 169.594 130.469 169.266 130.469C168.953 130.469 168.641 130.266 168.328 129.859C168.047 129.5 167.906 129.117 167.906 128.711C167.922 128.289 168.016 127.766 168.188 127.141C168.297 126.75 168.445 126.289 168.633 125.758C168.836 125.211 168.992 124.688 169.102 124.188C169.227 123.688 169.266 123.266 169.219 122.922C169.172 122.562 168.969 122.383 168.609 122.383C168.359 122.383 168.086 122.469 167.789 122.641C167.508 122.812 167.219 123.039 166.922 123.32C166.641 123.586 166.367 123.891 166.102 124.234C165.836 124.578 165.602 124.914 165.398 125.242C165.273 125.852 165.148 126.453 165.023 127.047C164.914 127.547 164.797 128.094 164.672 128.688C164.562 129.266 164.453 129.781 164.344 130.234C164.25 130.312 164.148 130.367 164.039 130.398C163.93 130.43 163.828 130.445 163.734 130.445C163.625 130.445 163.516 130.438 163.406 130.422C163.281 130.391 163.164 130.344 163.055 130.281C162.961 130.219 162.867 130.133 162.773 130.023C162.68 129.93 162.609 129.797 162.562 129.625C163.266 126.734 163.82 124.414 164.227 122.664C164.633 120.914 164.945 119.578 165.164 118.656C165.414 117.562 165.586 116.805 165.68 116.383C165.727 116.086 165.766 115.797 165.797 115.516C165.828 115.266 165.844 115.008 165.844 114.742C165.844 114.477 165.82 114.234 165.773 114.016C165.898 113.938 166.031 113.875 166.172 113.828C166.328 113.781 166.477 113.742 166.617 113.711C166.789 113.664 166.961 113.625 167.133 113.594C167.305 113.562 167.461 113.547 167.602 113.547C167.727 113.547 167.844 113.562 167.953 113.594C168.062 113.609 168.133 113.656 168.164 113.734C168.258 113.812 168.297 113.969 168.281 114.203C168.281 114.438 168.266 114.68 168.234 114.93C168.172 115.227 168.102 115.547 168.023 115.891C167.695 117.156 167.328 118.391 166.922 119.594C166.516 120.781 166.141 122.055 165.797 123.414C166 123.102 166.242 122.781 166.523 122.453C166.805 122.125 167.109 121.828 167.438 121.562C167.781 121.281 168.141 121.055 168.516 120.883C168.891 120.695 169.289 120.602 169.711 120.602C169.93 120.602 170.133 120.641 170.32 120.719C170.523 120.781 170.695 120.898 170.836 121.07C170.992 121.227 171.109 121.445 171.188 121.727C171.266 121.992 171.297 122.328 171.281 122.734C171.281 122.984 171.25 123.242 171.188 123.508C171.141 123.773 171.07 124.07 170.977 124.398C170.883 124.711 170.758 125.062 170.602 125.453C170.461 125.844 170.289 126.297 170.086 126.812C169.945 127.172 169.836 127.477 169.758 127.727C169.68 127.977 169.695 128.195 169.805 128.383C169.945 128.633 170.219 128.695 170.625 128.57C171.047 128.43 171.672 128.023 172.5 127.352C172.688 127.195 172.898 127 173.133 126.766C173.367 126.531 173.594 126.297 173.812 126.062C174.031 125.812 174.234 125.578 174.422 125.359C174.609 125.141 174.766 124.969 174.891 124.844ZM179.133 116.195C179.086 116.367 178.992 116.539 178.852 116.711C178.727 116.867 178.578 117 178.406 117.109C178.25 117.203 178.086 117.266 177.914 117.297C177.742 117.328 177.602 117.297 177.492 117.203C177.164 116.953 176.992 116.688 176.977 116.406C176.961 116.109 177.031 115.836 177.188 115.586C177.344 115.32 177.539 115.102 177.773 114.93C178.008 114.742 178.211 114.633 178.383 114.602C178.555 114.57 178.695 114.609 178.805 114.719C178.93 114.812 179.023 114.945 179.086 115.117C179.148 115.273 179.18 115.453 179.18 115.656C179.195 115.859 179.18 116.039 179.133 116.195ZM175.898 121.188C175.977 121.094 176.125 121.016 176.344 120.953C176.562 120.891 176.789 120.844 177.023 120.812C177.258 120.766 177.469 120.742 177.656 120.742C177.859 120.727 177.977 120.727 178.008 120.742C178.023 120.758 177.984 120.922 177.891 121.234C177.797 121.547 177.68 121.914 177.539 122.336C177.398 122.758 177.25 123.195 177.094 123.648C176.938 124.086 176.82 124.445 176.742 124.727C176.664 125.008 176.57 125.328 176.461 125.688C176.352 126.031 176.25 126.375 176.156 126.719C176.078 127.047 176.023 127.359 175.992 127.656C175.961 127.953 175.984 128.18 176.062 128.336C176.141 128.523 176.227 128.656 176.32 128.734C176.414 128.797 176.516 128.828 176.625 128.828C176.938 128.828 177.328 128.656 177.797 128.312C178.281 127.969 178.766 127.562 179.25 127.094C179.75 126.609 180.211 126.125 180.633 125.641C181.055 125.141 181.367 124.742 181.57 124.445C181.695 124.289 181.82 124.188 181.945 124.141C182.086 124.094 182.195 124.102 182.273 124.164C182.367 124.227 182.414 124.328 182.414 124.469C182.43 124.609 182.383 124.773 182.273 124.961C182.023 125.398 181.656 125.922 181.172 126.531C180.688 127.125 180.172 127.703 179.625 128.266C179.078 128.812 178.539 129.281 178.008 129.672C177.492 130.062 177.07 130.266 176.742 130.281C176.477 130.297 176.211 130.25 175.945 130.141C175.695 130.047 175.461 129.914 175.242 129.742C175.039 129.555 174.867 129.344 174.727 129.109C174.586 128.859 174.508 128.602 174.492 128.336C174.445 127.945 174.445 127.414 174.492 126.742C174.539 126.055 174.625 125.359 174.75 124.656C174.875 123.938 175.031 123.258 175.219 122.617C175.422 121.977 175.648 121.5 175.898 121.188ZM187.523 130.586C187.164 130.586 186.852 130.516 186.586 130.375C186.336 130.25 186.133 130.078 185.977 129.859C185.82 129.641 185.719 129.391 185.672 129.109C185.625 128.812 185.641 128.5 185.719 128.172C185.766 127.953 185.844 127.664 185.953 127.305C186.062 126.93 186.172 126.531 186.281 126.109C186.406 125.672 186.516 125.242 186.609 124.82C186.719 124.383 186.789 123.992 186.82 123.648C186.852 123.289 186.836 123 186.773 122.781C186.711 122.547 186.578 122.43 186.375 122.43C186.125 122.43 185.867 122.516 185.602 122.688C185.336 122.844 185.062 123.062 184.781 123.344C184.516 123.625 184.242 123.953 183.961 124.328C183.695 124.688 183.43 125.062 183.164 125.453C183.023 125.984 182.906 126.453 182.812 126.859C182.719 127.25 182.633 127.609 182.555 127.938C182.492 128.25 182.43 128.531 182.367 128.781C182.305 129.016 182.25 129.242 182.203 129.461C182.156 129.617 182.016 129.773 181.781 129.93C181.547 130.07 181.297 130.188 181.031 130.281C180.766 130.375 180.539 130.422 180.352 130.422C180.148 130.422 180.062 130.352 180.094 130.211C180.109 130.117 180.164 129.906 180.258 129.578C180.336 129.25 180.438 128.867 180.562 128.43C180.672 127.977 180.789 127.5 180.914 127C181.039 126.5 181.156 126.023 181.266 125.57C181.344 125.211 181.43 124.812 181.523 124.375C181.602 124 181.695 123.562 181.805 123.062C181.93 122.562 182.07 122.016 182.227 121.422C182.336 121.328 182.445 121.258 182.555 121.211C182.68 121.148 182.805 121.102 182.93 121.07C183.055 121.023 183.188 120.992 183.328 120.977C183.453 120.977 183.578 120.984 183.703 121C183.812 121.016 183.922 121.047 184.031 121.094C184.156 121.125 184.266 121.18 184.359 121.258C184.312 121.367 184.258 121.523 184.195 121.727C184.133 121.914 184.07 122.117 184.008 122.336C183.945 122.586 183.867 122.844 183.773 123.109C183.977 122.828 184.203 122.547 184.453 122.266C184.719 121.969 185 121.703 185.297 121.469C185.609 121.234 185.938 121.047 186.281 120.906C186.625 120.75 186.977 120.672 187.336 120.672C187.633 120.672 187.898 120.758 188.133 120.93C188.367 121.102 188.547 121.344 188.672 121.656C188.812 121.953 188.891 122.312 188.906 122.734C188.938 123.156 188.883 123.617 188.742 124.117L188.484 125.148C188.406 125.477 188.305 125.867 188.18 126.32C188.07 126.758 187.93 127.242 187.758 127.773C187.664 128.117 187.625 128.414 187.641 128.664C187.672 128.914 187.828 129.039 188.109 129.039C188.391 129.039 188.742 128.867 189.164 128.523C189.602 128.18 190.039 127.766 190.477 127.281C190.914 126.797 191.328 126.305 191.719 125.805C192.109 125.289 192.406 124.875 192.609 124.562C192.75 124.359 192.883 124.227 193.008 124.164C193.133 124.102 193.227 124.094 193.289 124.141C193.367 124.188 193.406 124.297 193.406 124.469C193.406 124.625 193.344 124.828 193.219 125.078C193.109 125.297 192.938 125.586 192.703 125.945C192.484 126.305 192.219 126.688 191.906 127.094C191.594 127.5 191.258 127.914 190.898 128.336C190.539 128.742 190.164 129.117 189.773 129.461C189.383 129.789 188.992 130.055 188.602 130.258C188.227 130.477 187.867 130.586 187.523 130.586ZM203.672 125.336C203.312 125.93 202.898 126.547 202.43 127.188C201.977 127.812 201.492 128.391 200.977 128.922C200.461 129.438 199.93 129.867 199.383 130.211C198.836 130.555 198.289 130.727 197.742 130.727C197.195 130.727 196.797 130.539 196.547 130.164C196.312 129.805 196.203 129.398 196.219 128.945C196.219 128.742 196.234 128.562 196.266 128.406C196.312 128.25 196.359 128.109 196.406 127.984C196.453 127.859 196.5 127.734 196.547 127.609C196.609 127.469 196.664 127.312 196.711 127.141C196.773 126.938 196.773 126.758 196.711 126.602C196.664 126.43 196.602 126.281 196.523 126.156C196.383 126.312 196.219 126.453 196.031 126.578C195.859 126.688 195.641 126.742 195.375 126.742C195.188 126.742 195.016 126.656 194.859 126.484C194.703 126.297 194.625 126.07 194.625 125.805C194.625 125.586 194.672 125.406 194.766 125.266C194.875 125.125 194.992 125.016 195.117 124.938C195.258 124.859 195.398 124.805 195.539 124.773C195.68 124.742 195.797 124.727 195.891 124.727C195.938 124.727 196.031 124.734 196.172 124.75C196.328 124.766 196.492 124.789 196.664 124.82C197.227 124.367 197.625 123.961 197.859 123.602C198.109 123.227 198.133 122.891 197.93 122.594C197.805 122.391 197.648 122.289 197.461 122.289C197.273 122.273 197.078 122.32 196.875 122.43C196.672 122.523 196.469 122.648 196.266 122.805C196.078 122.961 195.906 123.109 195.75 123.25C195.438 123.562 195.086 123.938 194.695 124.375C194.32 124.797 194.008 125.148 193.758 125.43C193.648 125.898 193.539 126.391 193.43 126.906C193.336 127.359 193.227 127.875 193.102 128.453C192.992 129.016 192.875 129.602 192.75 130.211C192.656 130.258 192.555 130.289 192.445 130.305C192.352 130.336 192.266 130.359 192.188 130.375C192.094 130.391 192 130.398 191.906 130.398C191.781 130.398 191.664 130.391 191.555 130.375C191.445 130.375 191.359 130.336 191.297 130.258C191.219 130.195 191.18 130.086 191.18 129.93C191.164 129.773 191.203 129.555 191.297 129.273C191.422 128.867 191.578 128.328 191.766 127.656C191.953 126.969 192.148 126.219 192.352 125.406C192.555 124.594 192.758 123.75 192.961 122.875C193.18 121.984 193.383 121.141 193.57 120.344C193.758 119.531 193.914 118.805 194.039 118.164C194.18 117.508 194.281 116.992 194.344 116.617C194.391 116.211 194.438 115.82 194.484 115.445C194.516 115.133 194.531 114.828 194.531 114.531C194.547 114.219 194.531 113.984 194.484 113.828C194.562 113.75 194.672 113.68 194.812 113.617C194.953 113.555 195.109 113.508 195.281 113.477C195.453 113.43 195.656 113.391 195.891 113.359C196.156 113.328 196.375 113.32 196.547 113.336C196.734 113.352 196.867 113.43 196.945 113.57C197.039 113.727 197.055 113.992 196.992 114.367C196.945 114.727 196.836 115.234 196.664 115.891C196.445 116.734 196.219 117.508 195.984 118.211C195.766 118.898 195.547 119.547 195.328 120.156C195.125 120.766 194.922 121.359 194.719 121.938C194.531 122.5 194.359 123.078 194.203 123.672C194.516 123.219 194.906 122.742 195.375 122.242C195.844 121.727 196.375 121.305 196.969 120.977C197.594 120.648 198.109 120.484 198.516 120.484C199.016 120.484 199.375 120.656 199.594 121C199.812 121.328 199.914 121.719 199.898 122.172C199.883 122.531 199.789 122.867 199.617 123.18C199.461 123.477 199.266 123.758 199.031 124.023C198.797 124.273 198.547 124.492 198.281 124.68C198.016 124.867 197.789 125.023 197.602 125.148C197.82 125.273 198.008 125.445 198.164 125.664C198.336 125.867 198.414 126.125 198.398 126.438C198.383 126.859 198.297 127.234 198.141 127.562C198 127.875 197.93 128.164 197.93 128.43C197.945 128.633 197.984 128.781 198.047 128.875C198.125 128.969 198.281 129.016 198.516 129.016C198.938 129.016 199.375 128.836 199.828 128.477C200.297 128.117 200.734 127.703 201.141 127.234C201.547 126.766 201.922 126.305 202.266 125.852C202.609 125.383 202.875 125.039 203.062 124.82C203.328 124.539 203.547 124.469 203.719 124.609C203.906 124.734 203.891 124.977 203.672 125.336Z" fill="white"/>
</svg>
