<svg width="364" height="112" viewBox="0 0 364 112" fill="none" xmlns="http://www.w3.org/2000/svg">
<rect width="364" height="112" fill="#5D5FEF"/>
<rect width="364" height="112" fill="url(#paint0_linear_3_5)"/>
<path d="M44.2891 27.9844C43.7266 28.1719 43.3047 28.1953 43.0234 28.0547C42.7422 27.9141 42.5312 27.6797 42.3906 27.3516C42.25 27.0234 42.1797 26.6719 42.1797 26.2969C42.1797 25.875 42.2031 25.4766 42.25 25.1016C42.2969 24.7734 42.3672 24.3984 42.4609 23.9766C42.6016 23.5547 42.7656 23.1563 42.9531 22.7812C43.1406 22.4062 43.3516 22.1016 43.5859 21.8672C43.8672 21.5859 44.2188 21.3984 44.6406 21.3047C46.7969 20.9297 48.8828 20.6484 50.8984 20.4609C52.9609 20.2734 54.8125 20.1328 56.4531 20.0391C58.3281 19.8984 60.1328 19.8281 61.8672 19.8281C62.2422 19.8281 62.6172 19.8516 62.9922 19.8984C63.3672 19.8984 63.7422 19.8984 64.1172 19.8984C64.5391 19.8047 64.8672 19.7813 65.1016 19.8281C65.3828 19.8281 65.6172 19.8516 65.8047 19.8984C67.1641 19.9453 68.5703 20.0156 70.0234 20.1094C71.2422 20.2031 72.6016 20.3203 74.1016 20.4609C75.6484 20.5547 77.1719 20.6953 78.6719 20.8828C78.8125 21.2578 78.8359 21.7266 78.7422 22.2891C78.6953 22.5703 78.6484 22.8516 78.6016 23.1328C78.5547 23.4141 78.4375 23.6719 78.25 23.9062C78.1094 24.1406 77.9219 24.375 77.6875 24.6094C77.5 24.7969 77.2656 24.9609 76.9844 25.1016C75.3906 25.0547 73.8438 25.0312 72.3438 25.0312C70.8906 24.9844 69.6016 24.9609 68.4766 24.9609H64.6797C64.0703 27.1172 63.3203 29.7891 62.4297 32.9766C61.5391 36.1172 60.625 39.4453 59.6875 42.9609C58.7969 46.4297 57.9297 49.8984 57.0859 53.3672C56.2891 56.7891 55.6562 59.8828 55.1875 62.6484C54.7188 65.3203 54.25 67.9453 53.7812 70.5234C53.5938 71.6016 53.3828 72.7266 53.1484 73.8984C52.9609 75.0703 52.7734 76.2188 52.5859 77.3438C52.4453 78.4688 52.3047 79.5469 52.1641 80.5781C52.0234 81.6094 51.9062 82.5469 51.8125 83.3906C51.0625 83.7656 50.3594 84.0469 49.7031 84.2344C49.0469 84.4688 48.4609 84.6328 47.9453 84.7266C47.3359 84.8672 46.7734 84.9375 46.2578 84.9375C45.1328 84.9375 44.4297 84.7969 44.1484 84.5156C43.9141 84.2812 43.8906 83.7891 44.0781 83.0391C44.2188 82.3828 44.6406 80.6016 45.3438 77.6953C45.625 76.4766 45.9766 74.9297 46.3984 73.0547C46.8672 71.2266 47.4062 69 48.0156 66.375C48.625 63.7031 49.3516 60.6094 50.1953 57.0938C51.0391 53.5312 52 49.4531 53.0781 44.8594L57.7891 25.3125C56.3828 25.5 55 25.7109 53.6406 25.9453C52.2812 26.1797 50.9922 26.4375 49.7734 26.7188C48.6016 26.9531 47.5234 27.1875 46.5391 27.4219C45.6016 27.6563 44.8516 27.8438 44.2891 27.9844ZM74.8047 27.9844C74.2422 28.1719 73.8203 28.1953 73.5391 28.0547C73.2578 27.9141 73.0469 27.6797 72.9062 27.3516C72.7656 27.0234 72.6953 26.6719 72.6953 26.2969C72.6953 25.875 72.7188 25.4766 72.7656 25.1016C72.8125 24.7734 72.8828 24.3984 72.9766 23.9766C73.1172 23.5547 73.2812 23.1563 73.4688 22.7812C73.6562 22.4062 73.8672 22.1016 74.1016 21.8672C74.3828 21.5859 74.7344 21.3984 75.1562 21.3047C77.3125 20.9297 79.3984 20.6484 81.4141 20.4609C83.4766 20.2734 85.3281 20.1328 86.9688 20.0391C88.8438 19.8984 90.6484 19.8281 92.3828 19.8281C92.7578 19.8281 93.1328 19.8516 93.5078 19.8984C93.8828 19.8984 94.2578 19.8984 94.6328 19.8984C95.0547 19.8047 95.3828 19.7813 95.6172 19.8281C95.8984 19.8281 96.1328 19.8516 96.3203 19.8984C97.6797 19.9453 99.0859 20.0156 100.539 20.1094C101.758 20.2031 103.117 20.3203 104.617 20.4609C106.164 20.5547 107.688 20.6953 109.188 20.8828C109.328 21.2578 109.352 21.7266 109.258 22.2891C109.211 22.5703 109.164 22.8516 109.117 23.1328C109.07 23.4141 108.953 23.6719 108.766 23.9062C108.625 24.1406 108.438 24.375 108.203 24.6094C108.016 24.7969 107.781 24.9609 107.5 25.1016C105.906 25.0547 104.359 25.0312 102.859 25.0312C101.406 24.9844 100.117 24.9609 98.9922 24.9609H95.1953C94.5859 27.1172 93.8359 29.7891 92.9453 32.9766C92.0547 36.1172 91.1406 39.4453 90.2031 42.9609C89.3125 46.4297 88.4453 49.8984 87.6016 53.3672C86.8047 56.7891 86.1719 59.8828 85.7031 62.6484C85.2344 65.3203 84.7656 67.9453 84.2969 70.5234C84.1094 71.6016 83.8984 72.7266 83.6641 73.8984C83.4766 75.0703 83.2891 76.2188 83.1016 77.3438C82.9609 78.4688 82.8203 79.5469 82.6797 80.5781C82.5391 81.6094 82.4219 82.5469 82.3281 83.3906C81.5781 83.7656 80.875 84.0469 80.2188 84.2344C79.5625 84.4688 78.9766 84.6328 78.4609 84.7266C77.8516 84.8672 77.2891 84.9375 76.7734 84.9375C75.6484 84.9375 74.9453 84.7969 74.6641 84.5156C74.4297 84.2812 74.4062 83.7891 74.5938 83.0391C74.7344 82.3828 75.1562 80.6016 75.8594 77.6953C76.1406 76.4766 76.4922 74.9297 76.9141 73.0547C77.3828 71.2266 77.9219 69 78.5312 66.375C79.1406 63.7031 79.8672 60.6094 80.7109 57.0938C81.5547 53.5312 82.5156 49.4531 83.5938 44.8594L88.3047 25.3125C86.8984 25.5 85.5156 25.7109 84.1562 25.9453C82.7969 26.1797 81.5078 26.4375 80.2891 26.7188C79.1172 26.9531 78.0391 27.1875 77.0547 27.4219C76.1172 27.6563 75.3672 27.8438 74.8047 27.9844ZM116.5 30.5859C116.359 31.1016 116.078 31.6172 115.656 32.1328C115.281 32.6016 114.836 33 114.32 33.3281C113.852 33.6094 113.359 33.7969 112.844 33.8906C112.328 33.9844 111.906 33.8906 111.578 33.6094C110.594 32.8594 110.078 32.0625 110.031 31.2188C109.984 30.3281 110.195 29.5078 110.664 28.7578C111.133 27.9609 111.719 27.3047 112.422 26.7891C113.125 26.2266 113.734 25.8984 114.25 25.8047C114.766 25.7109 115.188 25.8281 115.516 26.1562C115.891 26.4375 116.172 26.8359 116.359 27.3516C116.547 27.8203 116.641 28.3594 116.641 28.9688C116.688 29.5781 116.641 30.1172 116.5 30.5859ZM106.797 45.5625C107.031 45.2812 107.477 45.0469 108.133 44.8594C108.789 44.6719 109.469 44.5312 110.172 44.4375C110.875 44.2969 111.508 44.2266 112.07 44.2266C112.68 44.1797 113.031 44.1797 113.125 44.2266C113.172 44.2734 113.055 44.7656 112.773 45.7031C112.492 46.6406 112.141 47.7422 111.719 49.0078C111.297 50.2734 110.852 51.5859 110.383 52.9453C109.914 54.2578 109.562 55.3359 109.328 56.1797C109.094 57.0234 108.812 57.9844 108.484 59.0625C108.156 60.0938 107.852 61.125 107.57 62.1562C107.336 63.1406 107.172 64.0781 107.078 64.9688C106.984 65.8594 107.055 66.5391 107.289 67.0078C107.523 67.5703 107.781 67.9688 108.062 68.2031C108.344 68.3906 108.648 68.4844 108.977 68.4844C109.914 68.4844 111.086 67.9688 112.492 66.9375C113.945 65.9062 115.398 64.6875 116.852 63.2812C118.352 61.8281 119.734 60.375 121 58.9219C122.266 57.4219 123.203 56.2266 123.812 55.3359C124.188 54.8672 124.562 54.5625 124.938 54.4219C125.359 54.2812 125.688 54.3047 125.922 54.4922C126.203 54.6797 126.344 54.9844 126.344 55.4062C126.391 55.8281 126.25 56.3203 125.922 56.8828C125.172 58.1953 124.07 59.7656 122.617 61.5938C121.164 63.375 119.617 65.1094 117.977 66.7969C116.336 68.4375 114.719 69.8438 113.125 71.0156C111.578 72.1875 110.312 72.7969 109.328 72.8438C108.531 72.8906 107.734 72.75 106.938 72.4219C106.188 72.1406 105.484 71.7422 104.828 71.2266C104.219 70.6641 103.703 70.0312 103.281 69.3281C102.859 68.5781 102.625 67.8047 102.578 67.0078C102.438 65.8359 102.438 64.2422 102.578 62.2266C102.719 60.1641 102.977 58.0781 103.352 55.9688C103.727 53.8125 104.195 51.7734 104.758 49.8516C105.367 47.9297 106.047 46.5 106.797 45.5625ZM141.672 73.7578C140.594 73.7578 139.656 73.5469 138.859 73.125C138.109 72.75 137.5 72.2344 137.031 71.5781C136.562 70.9219 136.258 70.1719 136.117 69.3281C135.977 68.4375 136.023 67.5 136.258 66.5156C136.398 65.8594 136.633 64.9922 136.961 63.9141C137.289 62.7891 137.617 61.5938 137.945 60.3281C138.32 59.0156 138.648 57.7266 138.93 56.4609C139.258 55.1484 139.469 53.9766 139.562 52.9453C139.656 51.8672 139.609 51 139.422 50.3438C139.234 49.6406 138.836 49.2891 138.227 49.2891C137.477 49.2891 136.703 49.5469 135.906 50.0625C135.109 50.5312 134.289 51.1875 133.445 52.0312C132.648 52.875 131.828 53.8594 130.984 54.9844C130.188 56.0625 129.391 57.1875 128.594 58.3594C128.172 59.9531 127.82 61.3594 127.539 62.5781C127.258 63.75 127 64.8281 126.766 65.8125C126.578 66.75 126.391 67.5938 126.203 68.3438C126.016 69.0469 125.852 69.7266 125.711 70.3828C125.57 70.8516 125.148 71.3203 124.445 71.7891C123.742 72.2109 122.992 72.5625 122.195 72.8438C121.398 73.125 120.719 73.2656 120.156 73.2656C119.547 73.2656 119.289 73.0547 119.383 72.6328C119.43 72.3516 119.594 71.7188 119.875 70.7344C120.109 69.75 120.414 68.6016 120.789 67.2891C121.117 65.9297 121.469 64.5 121.844 63C122.219 61.5 122.57 60.0703 122.898 58.7109C123.133 57.6328 123.391 56.4375 123.672 55.125C123.906 54 124.188 52.6875 124.516 51.1875C124.891 49.6875 125.312 48.0469 125.781 46.2656C126.109 45.9844 126.438 45.7734 126.766 45.6328C127.141 45.4453 127.516 45.3047 127.891 45.2109C128.266 45.0703 128.664 44.9766 129.086 44.9297C129.461 44.9297 129.836 44.9531 130.211 45C130.539 45.0469 130.867 45.1406 131.195 45.2812C131.57 45.375 131.898 45.5391 132.18 45.7734C132.039 46.1016 131.875 46.5703 131.688 47.1797C131.5 47.7422 131.312 48.3516 131.125 49.0078C130.938 49.7578 130.703 50.5312 130.422 51.3281C131.031 50.4844 131.711 49.6406 132.461 48.7969C133.258 47.9062 134.102 47.1094 134.992 46.4062C135.93 45.7031 136.914 45.1406 137.945 44.7188C138.977 44.25 140.031 44.0156 141.109 44.0156C142 44.0156 142.797 44.2734 143.5 44.7891C144.203 45.3047 144.742 46.0312 145.117 46.9688C145.539 47.8594 145.773 48.9375 145.82 50.2031C145.914 51.4688 145.75 52.8516 145.328 54.3516L144.555 57.4453C144.32 58.4297 144.016 59.6016 143.641 60.9609C143.312 62.2734 142.891 63.7266 142.375 65.3203C142.094 66.3516 141.977 67.2422 142.023 67.9922C142.117 68.7422 142.586 69.1172 143.43 69.1172C144.273 69.1172 145.328 68.6016 146.594 67.5703C147.906 66.5391 149.219 65.2969 150.531 63.8438C151.844 62.3906 153.086 60.9141 154.258 59.4141C155.43 57.8672 156.32 56.625 156.93 55.6875C157.352 55.0781 157.75 54.6797 158.125 54.4922C158.5 54.3047 158.781 54.2812 158.969 54.4219C159.203 54.5625 159.32 54.8906 159.32 55.4062C159.32 55.875 159.133 56.4844 158.758 57.2344C158.43 57.8906 157.914 58.7578 157.211 59.8359C156.555 60.9141 155.758 62.0625 154.82 63.2812C153.883 64.5 152.875 65.7422 151.797 67.0078C150.719 68.2266 149.594 69.3516 148.422 70.3828C147.25 71.3672 146.078 72.1641 144.906 72.7734C143.781 73.4297 142.703 73.7578 141.672 73.7578ZM172.609 82.0547C172.375 83.1797 172.07 84.5859 171.695 86.2734C171.367 87.9609 170.969 89.7422 170.5 91.6172C170.078 93.4922 169.562 95.3438 168.953 97.1719C168.391 99.0469 167.758 100.711 167.055 102.164C166.352 103.664 165.578 104.883 164.734 105.82C163.891 106.758 162.953 107.227 161.922 107.227C160.375 107.227 159.039 106.758 157.914 105.82C156.836 104.93 155.922 103.781 155.172 102.375C154.422 101.016 153.883 99.5391 153.555 97.9453C153.18 96.3516 152.992 94.875 152.992 93.5156C152.992 91.6406 153.156 90.0703 153.484 88.8047C153.812 87.5859 154.375 86.4141 155.172 85.2891C156.016 84.1641 157.141 82.9688 158.547 81.7031C159.953 80.4375 161.758 78.8672 163.961 76.9922C165.039 76.0547 166.07 75.1641 167.055 74.3203C168.039 73.4766 168.977 72.7031 169.867 72C170.102 71.0625 170.312 70.1953 170.5 69.3984C170.734 68.5547 170.922 67.8047 171.062 67.1484C169.844 68.7891 168.367 70.1719 166.633 71.2969C164.945 72.4219 163 72.9844 160.797 72.9844C158.781 72.9844 157.141 72.0938 155.875 70.3125C154.656 68.4844 154.047 65.8125 154.047 62.2969C154.047 60.5625 154.375 58.5703 155.031 56.3203C155.688 54.0703 156.625 51.9609 157.844 49.9922C159.062 48.0234 160.562 46.3594 162.344 45C164.125 43.6406 166.117 42.9609 168.32 42.9609C169.352 42.9609 170.242 43.2188 170.992 43.7344C171.742 44.25 172.375 44.9062 172.891 45.7031C173.406 46.4531 173.805 47.2734 174.086 48.1641C174.367 49.0078 174.578 49.8047 174.719 50.5547C174.812 50.2734 174.883 49.9922 174.93 49.7109C174.977 49.3828 175.047 49.1016 175.141 48.8672C175.609 47.2734 176.125 46.1953 176.688 45.6328C177.297 45.0234 178.188 44.7188 179.359 44.7188C180.016 44.7188 180.555 44.8359 180.977 45.0703C181.445 45.3047 181.68 45.5156 181.68 45.7031C181.445 46.2188 181.258 46.6172 181.117 46.8984C180.977 47.1797 180.836 47.4844 180.695 47.8125C180.555 48.0938 180.414 48.4688 180.273 48.9375C180.133 49.4062 179.945 50.0859 179.711 50.9766C179.617 51.3047 179.43 52.0781 179.148 53.2969C178.914 54.4688 178.586 55.875 178.164 57.5156C177.789 59.1562 177.367 60.9609 176.898 62.9297C176.477 64.8984 176.055 66.8203 175.633 68.6953C176.945 67.9453 178.305 67.0312 179.711 65.9531C181.117 64.875 182.453 63.7734 183.719 62.6484C184.984 61.5234 186.109 60.4688 187.094 59.4844C188.078 58.4531 188.805 57.6094 189.273 56.9531C189.648 56.3906 190.07 55.9922 190.539 55.7578C191.008 55.5234 191.406 55.4531 191.734 55.5469C192.109 55.5938 192.32 55.8047 192.367 56.1797C192.461 56.5078 192.32 56.9766 191.945 57.5859C190.867 59.3203 189.555 61.0078 188.008 62.6484C186.461 64.2422 184.867 65.7422 183.227 67.1484C181.633 68.5078 180.062 69.7266 178.516 70.8047C177.016 71.8359 175.727 72.6797 174.648 73.3359C174.18 75.4453 173.781 77.1562 173.453 78.4688C173.125 79.7812 172.844 80.9766 172.609 82.0547ZM163.75 68.2031C164.734 68.2031 165.648 67.9453 166.492 67.4297C167.383 66.9141 168.18 66.3281 168.883 65.6719C169.586 64.9688 170.172 64.2656 170.641 63.5625C171.109 62.8594 171.461 62.2969 171.695 61.875C171.883 61.4531 172.094 60.8906 172.328 60.1875C172.609 59.4844 172.82 58.8047 172.961 58.1484C173.102 57.4922 173.148 56.9062 173.102 56.3906C173.102 55.875 172.938 55.5938 172.609 55.5469C172.328 55.5 172.094 55.3125 171.906 54.9844C171.766 54.6562 171.648 54.2812 171.555 53.8594C171.461 53.4375 171.391 53.0156 171.344 52.5938C171.344 52.1719 171.32 51.7969 171.273 51.4688C171.039 49.8281 170.641 48.6328 170.078 47.8828C169.516 47.1328 168.883 46.7578 168.18 46.7578C167.008 46.7578 165.883 47.2266 164.805 48.1641C163.773 49.1016 162.836 50.3203 161.992 51.8203C161.195 53.2734 160.562 54.8906 160.094 56.6719C159.625 58.4062 159.391 60.0703 159.391 61.6641C159.391 63.6328 159.672 65.2266 160.234 66.4453C160.797 67.6172 161.969 68.2031 163.75 68.2031ZM160.516 100.828C161.453 100.828 162.203 100.125 162.766 98.7188C163.375 97.3594 164.008 95.4844 164.664 93.0938C164.805 92.5312 164.992 91.7109 165.227 90.6328C165.508 89.6016 165.812 88.4062 166.141 87.0469C166.516 85.6875 166.891 84.2109 167.266 82.6172C167.641 81.0703 168.039 79.5 168.461 77.9062C168.086 78.2344 167.688 78.5625 167.266 78.8906C166.891 79.2656 166.492 79.6875 166.07 80.1562C165.039 81.1406 164.031 82.0781 163.047 82.9688C162.109 83.9062 161.266 84.8672 160.516 85.8516C159.766 86.8828 159.156 87.9844 158.688 89.1562C158.266 90.3281 158.055 91.6875 158.055 93.2344C158.055 94.7812 158.102 96.0469 158.195 97.0312C158.336 98.0156 158.5 98.7891 158.688 99.3516C158.922 99.9141 159.18 100.289 159.461 100.477C159.789 100.711 160.141 100.828 160.516 100.828ZM208.961 85.1484C207.133 85.1953 205.633 84.8672 204.461 84.1641C203.242 83.4609 202.305 82.4297 201.648 81.0703C200.945 79.7578 200.5 78.1406 200.312 76.2188C200.125 74.3438 200.125 72.2812 200.312 70.0312C200.547 68.2969 200.969 66.4922 201.578 64.6172C202.094 63.0234 202.891 61.2656 203.969 59.3438C205 57.4219 206.406 55.5469 208.188 53.7188C208.562 53.8125 208.867 53.9297 209.102 54.0703C209.336 54.1641 209.523 54.2812 209.664 54.4219C209.805 54.6094 209.898 54.7734 209.945 54.9141C210.039 55.4297 209.898 56.0156 209.523 56.6719C209.148 57.3281 208.773 58.0312 208.398 58.7812C207.367 60.9375 206.594 62.9766 206.078 64.8984C205.562 66.8203 205.234 68.6016 205.094 70.2422C205 71.6484 205.023 72.9141 205.164 74.0391C205.258 75.2109 205.422 76.1953 205.656 76.9922C205.891 77.8359 206.148 78.4688 206.43 78.8906C206.711 79.3594 206.969 79.5938 207.203 79.5938C207.438 79.5938 207.672 79.4297 207.906 79.1016C208.188 78.7734 208.445 78.375 208.68 77.9062C208.961 77.4375 209.289 76.7109 209.664 75.7266C210.039 74.7891 210.438 73.6875 210.859 72.4219C211.281 71.1562 211.68 69.7969 212.055 68.3438C212.477 66.8438 212.852 65.3438 213.18 63.8438C213.836 60.8438 214.539 57.4688 215.289 53.7188C216.039 49.9219 217.141 45.9609 218.594 41.8359C219.062 40.1016 219.648 38.2031 220.352 36.1406C220.914 34.3594 221.617 32.2969 222.461 29.9531C223.352 27.5625 224.359 24.9844 225.484 22.2188C225.484 21.9844 225.672 21.7734 226.047 21.5859C226.469 21.3516 226.938 21.1172 227.453 20.8828C228.016 20.6484 228.648 20.4141 229.352 20.1797C230.289 19.8516 231.016 19.6641 231.531 19.6172C232.094 19.5703 232.516 19.6406 232.797 19.8281C233.078 20.0156 233.266 20.2734 233.359 20.6016C233.453 20.8828 233.5 21.2109 233.5 21.5859C233.594 23.1328 233.641 24.5859 233.641 25.9453C233.688 27.3047 233.734 28.5 233.781 29.5312C233.828 30.75 233.852 31.8516 233.852 32.8359C233.898 34.1484 233.828 35.9062 233.641 38.1094C233.453 40.2656 233.242 42.5391 233.008 44.9297C232.82 47.3203 232.633 49.6641 232.445 51.9609C232.305 54.2109 232.281 56.0859 232.375 57.5859C232.375 58.3828 232.398 59.1328 232.445 59.8359C232.539 60.4922 232.633 61.1484 232.727 61.8047C233.336 60.1172 234.016 58.3594 234.766 56.5312C235.516 54.6562 236.266 52.875 237.016 51.1875C237.766 49.4531 238.469 47.8594 239.125 46.4062C239.781 44.9062 240.297 43.6641 240.672 42.6797C241.234 41.3672 241.984 39.7031 242.922 37.6875C243.859 35.6719 244.797 33.6562 245.734 31.6406C246.719 29.625 247.609 27.7734 248.406 26.0859C249.25 24.3984 249.859 23.2266 250.234 22.5703C250.516 22.1016 250.984 21.6797 251.641 21.3047C252.344 20.9297 253.07 20.6016 253.82 20.3203C254.617 20.0391 255.344 19.8516 256 19.7578C256.703 19.6172 257.172 19.5937 257.406 19.6875C258.016 19.8281 258.438 20.0156 258.672 20.25C258.953 20.4844 259.117 20.6484 259.164 20.7422C259.258 20.9297 259.328 21.2578 259.375 21.7266C259.422 22.1484 259.398 22.8281 259.305 23.7656C259.211 24.8906 258.93 26.6016 258.461 28.8984C258.039 31.1953 257.5 33.8203 256.844 36.7734C256.234 39.6797 255.555 42.7969 254.805 46.125C254.102 49.4531 253.422 52.7344 252.766 55.9688C252.109 59.1562 251.523 62.1562 251.008 64.9688C250.539 67.7812 250.234 70.1484 250.094 72.0703C250 74.2266 250.141 76.125 250.516 77.7656C250.656 78.4688 250.867 79.1484 251.148 79.8047C251.43 80.4609 251.805 81.0234 252.273 81.4922C252.742 82.0078 253.305 82.3828 253.961 82.6172C254.617 82.8516 255.391 82.9219 256.281 82.8281C255.109 83.625 253.961 84.2109 252.836 84.5859C251.711 84.9609 250.609 85.1484 249.531 85.1484C248.359 85.1953 247.328 85.0078 246.438 84.5859C245.547 84.2109 244.797 83.6484 244.188 82.8984C243.578 82.1953 243.133 81.3281 242.852 80.2969C242.57 79.3125 242.477 78.2109 242.57 76.9922C242.664 75.8672 242.969 74.0156 243.484 71.4375C244 68.8594 244.609 65.9531 245.312 62.7188C246.062 59.4375 246.859 56.0391 247.703 52.5234C248.594 48.9609 249.414 45.6328 250.164 42.5391C250.961 39.3984 251.641 36.7031 252.203 34.4531C252.766 32.2031 253.117 30.7266 253.258 30.0234C253.352 29.4609 253.422 28.9453 253.469 28.4766C253.562 27.9609 253.656 27.5156 253.75 27.1406C253.281 28.0781 252.695 29.2031 251.992 30.5156C251.336 31.8281 250.633 33.2344 249.883 34.7344C249.133 36.2344 248.359 37.8047 247.562 39.4453C246.812 41.0391 246.086 42.5859 245.383 44.0859C244.211 46.5234 243.062 49.0312 241.938 51.6094C240.812 54.1406 239.805 56.5547 238.914 58.8516C238.023 61.1484 237.273 63.2109 236.664 65.0391C236.102 66.8672 235.773 68.2734 235.68 69.2578V70.2422C235.68 70.5234 235.68 70.8516 235.68 71.2266C235.727 71.6016 235.797 71.9531 235.891 72.2812L233.078 74.4609C232.656 74.6016 232.281 74.7188 231.953 74.8125C231.672 74.9062 231.391 74.9531 231.109 74.9531C230.031 74.9531 229.211 74.3906 228.648 73.2656C228.086 72.2344 227.57 70.2188 227.102 67.2188C226.633 64.2188 226.492 60.5391 226.68 56.1797C226.773 54.0234 226.914 51.8438 227.102 49.6406C227.336 47.4375 227.547 45.3281 227.734 43.3125C227.969 41.2969 228.18 39.4219 228.367 37.6875C228.555 35.9062 228.648 34.3828 228.648 33.1172C228.695 32.1797 228.672 31.3359 228.578 30.5859C228.484 29.7891 228.391 29.0625 228.297 28.4062C227.875 29.4844 227.406 30.9609 226.891 32.8359C226.375 34.6641 225.836 36.7031 225.273 38.9531C224.711 41.2031 224.125 43.5703 223.516 46.0547C222.953 48.5391 222.391 50.9297 221.828 53.2266C221.312 55.5234 220.82 57.6562 220.352 59.625C219.883 61.5469 219.508 63.0938 219.227 64.2656C218.758 66.1406 218.289 68.2734 217.82 70.6641C217.352 73.0547 216.766 75.3047 216.062 77.4141C215.359 79.5703 214.445 81.375 213.32 82.8281C212.195 84.3281 210.742 85.1016 208.961 85.1484ZM296.219 58.0078C295.562 58.9453 294.719 60.1172 293.688 61.5234C292.656 62.8828 291.578 64.2656 290.453 65.6719C289.375 67.0312 288.297 68.2969 287.219 69.4688C286.188 70.5938 285.32 71.3906 284.617 71.8594C284.148 72.1406 283.609 72.375 283 72.5625C282.391 72.75 281.758 72.8672 281.102 72.9141C280.492 72.9609 279.906 72.9141 279.344 72.7734C278.781 72.6797 278.289 72.4922 277.867 72.2109C277.445 71.8828 277.094 71.4141 276.812 70.8047C276.578 70.2891 276.344 69.6094 276.109 68.7656C275.922 67.9219 275.852 66.8672 275.898 65.6016C274.773 67.4766 273.531 68.9297 272.172 69.9609C270.812 70.9453 269.523 71.6719 268.305 72.1406C266.898 72.6562 265.492 72.9609 264.086 73.0547C263.43 73.0547 262.727 72.8203 261.977 72.3516C261.227 71.9297 260.594 71.25 260.078 70.3125C259.562 69.3281 259.234 68.0859 259.094 66.5859C258.953 65.0391 259.141 63.2109 259.656 61.1016C260.312 58.2422 261.344 55.6406 262.75 53.2969C264.203 50.9531 265.773 48.9609 267.461 47.3203C269.148 45.6328 270.812 44.3672 272.453 43.5234C274.094 42.6797 275.453 42.3047 276.531 42.3984C277.797 42.6328 278.828 43.0078 279.625 43.5234C280.281 43.9922 280.703 44.6953 280.891 45.6328C281.125 46.5234 280.75 47.7188 279.766 49.2188C280.422 49.0781 280.961 48.9844 281.383 48.9375C281.852 48.8906 282.203 48.8672 282.438 48.8672C282.719 48.8672 282.906 48.8906 283 48.9375C283.047 49.0312 283.07 49.2422 283.07 49.5703C283.07 49.8516 283 50.3906 282.859 51.1875C282.719 51.9844 282.508 53.0625 282.227 54.4219C281.945 55.7812 281.57 57.5391 281.102 59.6953C281.008 60.1172 280.914 60.5156 280.82 60.8906C280.773 61.2188 280.703 61.5703 280.609 61.9453C280.562 62.2734 280.492 62.6719 280.398 63.1406C280.305 63.6094 280.188 64.1953 280.047 64.8984C280 65.3203 279.977 65.7891 279.977 66.3047C280.023 66.7734 280.117 67.2188 280.258 67.6406C280.398 68.0625 280.609 68.4141 280.891 68.6953C281.219 68.9297 281.664 69.0469 282.227 69.0469C282.695 69.0469 283.305 68.7656 284.055 68.2031C284.805 67.5938 285.602 66.8438 286.445 65.9531C287.289 65.0156 288.156 64.0078 289.047 62.9297C289.984 61.8047 290.852 60.7266 291.648 59.6953C292.445 58.6641 293.148 57.75 293.758 56.9531C294.414 56.1562 294.883 55.5703 295.164 55.1953C295.539 54.7734 295.914 54.5391 296.289 54.4922C296.664 54.3984 296.945 54.4922 297.133 54.7734C297.32 55.0547 297.344 55.4766 297.203 56.0391C297.109 56.6016 296.781 57.2578 296.219 58.0078ZM275.617 61.1016C275.852 60.1641 276.133 59.0625 276.461 57.7969C276.789 56.5312 277.07 55.3125 277.305 54.1406C277.539 52.9688 277.703 52.0078 277.797 51.2578C277.938 50.4609 277.914 50.0859 277.727 50.1328C277.492 50.1797 277.234 50.25 276.953 50.3438C276.719 50.4375 276.414 50.5078 276.039 50.5547C275.664 50.6016 275.289 50.6719 274.914 50.7656C275.289 50.0156 275.5 49.4062 275.547 48.9375C275.641 48.4219 275.664 48.0234 275.617 47.7422C275.57 47.4141 275.477 47.1562 275.336 46.9688C274.82 46.5469 273.906 46.8984 272.594 48.0234C271.328 49.1016 269.852 51.1172 268.164 54.0703C267.461 55.2891 266.898 56.6016 266.477 58.0078C266.055 59.3672 265.75 60.6562 265.562 61.875C265.422 63.0938 265.398 64.1719 265.492 65.1094C265.586 66 265.773 66.5859 266.055 66.8672C266.57 67.3828 267.156 67.6406 267.812 67.6406C268.469 67.5938 269.125 67.4062 269.781 67.0781C270.484 66.7031 271.164 66.2344 271.82 65.6719C272.523 65.1094 273.133 64.5234 273.648 63.9141C274.211 63.3047 274.656 62.7422 274.984 62.2266C275.359 61.7109 275.57 61.3359 275.617 61.1016ZM286.445 102.023C286.117 101.883 285.789 101.672 285.461 101.391C285.18 101.156 284.898 100.852 284.617 100.477C284.336 100.148 284.102 99.7266 283.914 99.2109C285.227 94.1953 286.352 89.8359 287.289 86.1328C288.18 82.4297 288.953 79.3359 289.609 76.8516C290.312 73.9453 290.922 71.5078 291.438 69.5391C291.906 67.6641 292.375 65.7891 292.844 63.9141C293.219 62.2734 293.617 60.5156 294.039 58.6406C294.508 56.7656 294.93 55.0078 295.305 53.3672C295.773 51.5391 296.055 50.0859 296.148 49.0078C296.242 47.8828 295.891 46.9219 295.094 46.125C295.656 45.6562 296.219 45.3047 296.781 45.0703C297.391 44.7891 297.93 44.6016 298.398 44.5078C298.914 44.3672 299.43 44.3203 299.945 44.3672C301.211 44.4609 301.984 44.8594 302.266 45.5625C302.594 46.2656 302.641 47.3906 302.406 48.9375C302.359 49.1719 302.312 49.3828 302.266 49.5703C302.266 49.7109 302.266 49.875 302.266 50.0625C302.922 49.3125 303.648 48.5859 304.445 47.8828C305.242 47.1797 306.039 46.5469 306.836 45.9844C307.68 45.4219 308.523 44.9766 309.367 44.6484C310.258 44.2734 311.102 44.0859 311.898 44.0859C312.977 44.0859 313.844 44.3672 314.5 44.9297C315.203 45.4453 315.742 46.1484 316.117 47.0391C316.492 47.9297 316.727 48.9375 316.82 50.0625C316.914 51.1406 316.938 52.2188 316.891 53.2969C316.844 54.4688 316.633 55.7109 316.258 57.0234C315.93 58.3359 315.461 59.6719 314.852 61.0312C314.242 62.3906 313.539 63.7266 312.742 65.0391C311.945 66.3516 311.102 67.5703 310.211 68.6953C310.398 68.7422 310.516 68.7891 310.562 68.8359C310.609 68.8359 310.633 68.8594 310.633 68.9062C310.633 68.9062 310.656 68.9297 310.703 68.9766C310.797 68.9766 310.961 68.9766 311.195 68.9766C312.273 68.9766 313.375 68.6953 314.5 68.1328C315.625 67.5703 316.727 66.8672 317.805 66.0234C318.883 65.1328 319.914 64.1719 320.898 63.1406C321.93 62.1094 322.844 61.125 323.641 60.1875C324.484 59.2031 325.188 58.3359 325.75 57.5859C326.312 56.7891 326.734 56.2266 327.016 55.8984C327.391 55.4297 327.742 55.125 328.07 54.9844C328.398 54.7969 328.656 54.7734 328.844 54.9141C329.031 55.0547 329.125 55.3359 329.125 55.7578C329.125 56.1328 328.984 56.625 328.703 57.2344C328.516 57.6562 328.117 58.3359 327.508 59.2734C326.898 60.2109 326.148 61.2656 325.258 62.4375C324.367 63.6094 323.336 64.8281 322.164 66.0938C321.039 67.3594 319.844 68.5078 318.578 69.5391C317.312 70.5703 316 71.4141 314.641 72.0703C313.328 72.7734 312.039 73.125 310.773 73.125C310.164 73.125 309.672 73.1016 309.297 73.0547C308.922 73.0078 308.594 72.9141 308.312 72.7734C308.078 72.6797 307.844 72.5625 307.609 72.4219C307.375 72.3281 307.094 72.2109 306.766 72.0703C305.922 72.7266 305.055 73.2188 304.164 73.5469C303.273 73.9219 302.406 74.1094 301.562 74.1094C300.766 74.1094 300.062 73.9688 299.453 73.6875C298.891 73.4531 298.422 73.1016 298.047 72.6328C297.672 72.2109 297.367 71.7422 297.133 71.2266C296.898 70.6641 296.711 70.125 296.57 69.6094C296.523 69.7969 296.477 69.9609 296.43 70.1016C296.43 70.2422 296.406 70.4297 296.359 70.6641C295.797 72.9141 295.211 75.5156 294.602 78.4688C294.086 81 293.453 84.0703 292.703 87.6797C292 91.3359 291.25 95.4844 290.453 100.125C290.172 101.391 289.68 102.117 288.977 102.305C288.227 102.492 287.383 102.398 286.445 102.023ZM299.312 58.4297C299.078 59.2266 298.82 60.1641 298.539 61.2422C298.305 62.2734 298.023 63.5156 297.695 64.9688C298.07 64.6875 298.492 64.4766 298.961 64.3359C299.43 64.1953 299.898 64.125 300.367 64.125C300.883 64.125 301.539 64.4062 302.336 64.9688C303.133 65.4844 304.094 66.0469 305.219 66.6562C305.922 65.8125 306.648 64.875 307.398 63.8438C308.195 62.7656 308.898 61.6641 309.508 60.5391C310.164 59.4141 310.703 58.2656 311.125 57.0938C311.594 55.9219 311.852 54.7969 311.898 53.7188C311.992 52.3125 311.828 51.2109 311.406 50.4141C310.984 49.6172 310.281 49.2188 309.297 49.2188C307.844 49.2188 306.25 50.0859 304.516 51.8203C302.828 53.5078 301.094 55.7109 299.312 58.4297Z" fill="white"/>
<defs>
<linearGradient id="paint0_linear_3_5" x1="-80.6203" y1="-29.4766" x2="102.446" y2="367.185" gradientUnits="userSpaceOnUse">
<stop stop-color="#40FF75"/>
<stop offset="1" stop-color="#A43F3F" stop-opacity="0"/>
</linearGradient>
</defs>
</svg>
