<svg width="288" height="89" viewBox="0 0 288 89" fill="none" xmlns="http://www.w3.org/2000/svg">
<path d="M2.28906 8.98438C1.72656 9.17187 1.30469 9.19531 1.02344 9.05469C0.742188 8.91406 0.53125 8.67969 0.390625 8.35156C0.25 8.02344 0.179688 7.67188 0.179688 7.29688C0.179688 6.875 0.203125 6.47656 0.25 6.10156C0.296875 5.77344 0.367188 5.39844 0.460938 4.97656C0.601562 4.55469 0.765625 4.15625 0.953125 3.78125C1.14062 3.40625 1.35156 3.10156 1.58594 2.86719C1.86719 2.58594 2.21875 2.39844 2.64062 2.30469C4.79688 1.92969 6.88281 1.64844 8.89844 1.46094C10.9609 1.27344 12.8125 1.13281 14.4531 1.03906C16.3281 0.898438 18.1328 0.828125 19.8672 0.828125C20.2422 0.828125 20.6172 0.851563 20.9922 0.898438C21.3672 0.898438 21.7422 0.898438 22.1172 0.898438C22.5391 0.804687 22.8672 0.78125 23.1016 0.828125C23.3828 0.828125 23.6172 0.851563 23.8047 0.898438C25.1641 0.945312 26.5703 1.01562 28.0234 1.10938C29.2422 1.20313 30.6016 1.32031 32.1016 1.46094C33.6484 1.55469 35.1719 1.69531 36.6719 1.88281C36.8125 2.25781 36.8359 2.72656 36.7422 3.28906C36.6953 3.57031 36.6484 3.85156 36.6016 4.13281C36.5547 4.41406 36.4375 4.67187 36.25 4.90625C36.1094 5.14063 35.9219 5.375 35.6875 5.60938C35.5 5.79687 35.2656 5.96094 34.9844 6.10156C33.3906 6.05469 31.8438 6.03125 30.3438 6.03125C28.8906 5.98438 27.6016 5.96094 26.4766 5.96094H22.6797C22.0703 8.11719 21.3203 10.7891 20.4297 13.9766C19.5391 17.1172 18.625 20.4453 17.6875 23.9609C16.7969 27.4297 15.9297 30.8984 15.0859 34.3672C14.2891 37.7891 13.6562 40.8828 13.1875 43.6484C12.7188 46.3203 12.25 48.9453 11.7812 51.5234C11.5938 52.6016 11.3828 53.7266 11.1484 54.8984C10.9609 56.0703 10.7734 57.2188 10.5859 58.3438C10.4453 59.4688 10.3047 60.5469 10.1641 61.5781C10.0234 62.6094 9.90625 63.5469 9.8125 64.3906C9.0625 64.7656 8.35938 65.0469 7.70312 65.2344C7.04688 65.4688 6.46094 65.6328 5.94531 65.7266C5.33594 65.8672 4.77344 65.9375 4.25781 65.9375C3.13281 65.9375 2.42969 65.7969 2.14844 65.5156C1.91406 65.2812 1.89062 64.7891 2.07812 64.0391C2.21875 63.3828 2.64062 61.6016 3.34375 58.6953C3.625 57.4766 3.97656 55.9297 4.39844 54.0547C4.86719 52.2266 5.40625 50 6.01562 47.375C6.625 44.7031 7.35156 41.6094 8.19531 38.0938C9.03906 34.5312 10 30.4531 11.0781 25.8594L15.7891 6.3125C14.3828 6.5 13 6.71094 11.6406 6.94531C10.2812 7.17969 8.99219 7.4375 7.77344 7.71875C6.60156 7.95313 5.52344 8.1875 4.53906 8.42188C3.60156 8.65625 2.85156 8.84375 2.28906 8.98438ZM32.8047 8.98438C32.2422 9.17187 31.8203 9.19531 31.5391 9.05469C31.2578 8.91406 31.0469 8.67969 30.9062 8.35156C30.7656 8.02344 30.6953 7.67188 30.6953 7.29688C30.6953 6.875 30.7188 6.47656 30.7656 6.10156C30.8125 5.77344 30.8828 5.39844 30.9766 4.97656C31.1172 4.55469 31.2812 4.15625 31.4688 3.78125C31.6562 3.40625 31.8672 3.10156 32.1016 2.86719C32.3828 2.58594 32.7344 2.39844 33.1562 2.30469C35.3125 1.92969 37.3984 1.64844 39.4141 1.46094C41.4766 1.27344 43.3281 1.13281 44.9688 1.03906C46.8438 0.898438 48.6484 0.828125 50.3828 0.828125C50.7578 0.828125 51.1328 0.851563 51.5078 0.898438C51.8828 0.898438 52.2578 0.898438 52.6328 0.898438C53.0547 0.804687 53.3828 0.78125 53.6172 0.828125C53.8984 0.828125 54.1328 0.851563 54.3203 0.898438C55.6797 0.945312 57.0859 1.01562 58.5391 1.10938C59.7578 1.20313 61.1172 1.32031 62.6172 1.46094C64.1641 1.55469 65.6875 1.69531 67.1875 1.88281C67.3281 2.25781 67.3516 2.72656 67.2578 3.28906C67.2109 3.57031 67.1641 3.85156 67.1172 4.13281C67.0703 4.41406 66.9531 4.67187 66.7656 4.90625C66.625 5.14063 66.4375 5.375 66.2031 5.60938C66.0156 5.79687 65.7812 5.96094 65.5 6.10156C63.9062 6.05469 62.3594 6.03125 60.8594 6.03125C59.4062 5.98438 58.1172 5.96094 56.9922 5.96094H53.1953C52.5859 8.11719 51.8359 10.7891 50.9453 13.9766C50.0547 17.1172 49.1406 20.4453 48.2031 23.9609C47.3125 27.4297 46.4453 30.8984 45.6016 34.3672C44.8047 37.7891 44.1719 40.8828 43.7031 43.6484C43.2344 46.3203 42.7656 48.9453 42.2969 51.5234C42.1094 52.6016 41.8984 53.7266 41.6641 54.8984C41.4766 56.0703 41.2891 57.2188 41.1016 58.3438C40.9609 59.4688 40.8203 60.5469 40.6797 61.5781C40.5391 62.6094 40.4219 63.5469 40.3281 64.3906C39.5781 64.7656 38.875 65.0469 38.2188 65.2344C37.5625 65.4688 36.9766 65.6328 36.4609 65.7266C35.8516 65.8672 35.2891 65.9375 34.7734 65.9375C33.6484 65.9375 32.9453 65.7969 32.6641 65.5156C32.4297 65.2812 32.4062 64.7891 32.5938 64.0391C32.7344 63.3828 33.1562 61.6016 33.8594 58.6953C34.1406 57.4766 34.4922 55.9297 34.9141 54.0547C35.3828 52.2266 35.9219 50 36.5312 47.375C37.1406 44.7031 37.8672 41.6094 38.7109 38.0938C39.5547 34.5312 40.5156 30.4531 41.5938 25.8594L46.3047 6.3125C44.8984 6.5 43.5156 6.71094 42.1562 6.94531C40.7969 7.17969 39.5078 7.4375 38.2891 7.71875C37.1172 7.95313 36.0391 8.1875 35.0547 8.42188C34.1172 8.65625 33.3672 8.84375 32.8047 8.98438ZM74.5 11.5859C74.3594 12.1016 74.0781 12.6172 73.6562 13.1328C73.2812 13.6016 72.8359 14 72.3203 14.3281C71.8516 14.6094 71.3594 14.7969 70.8438 14.8906C70.3281 14.9844 69.9062 14.8906 69.5781 14.6094C68.5938 13.8594 68.0781 13.0625 68.0312 12.2188C67.9844 11.3281 68.1953 10.5078 68.6641 9.75781C69.1328 8.96094 69.7188 8.30469 70.4219 7.78906C71.125 7.22656 71.7344 6.89844 72.25 6.80469C72.7656 6.71094 73.1875 6.82813 73.5156 7.15625C73.8906 7.4375 74.1719 7.83594 74.3594 8.35156C74.5469 8.82031 74.6406 9.35938 74.6406 9.96875C74.6875 10.5781 74.6406 11.1172 74.5 11.5859ZM64.7969 26.5625C65.0312 26.2812 65.4766 26.0469 66.1328 25.8594C66.7891 25.6719 67.4688 25.5312 68.1719 25.4375C68.875 25.2969 69.5078 25.2266 70.0703 25.2266C70.6797 25.1797 71.0312 25.1797 71.125 25.2266C71.1719 25.2734 71.0547 25.7656 70.7734 26.7031C70.4922 27.6406 70.1406 28.7422 69.7188 30.0078C69.2969 31.2734 68.8516 32.5859 68.3828 33.9453C67.9141 35.2578 67.5625 36.3359 67.3281 37.1797C67.0938 38.0234 66.8125 38.9844 66.4844 40.0625C66.1562 41.0938 65.8516 42.125 65.5703 43.1562C65.3359 44.1406 65.1719 45.0781 65.0781 45.9688C64.9844 46.8594 65.0547 47.5391 65.2891 48.0078C65.5234 48.5703 65.7812 48.9688 66.0625 49.2031C66.3438 49.3906 66.6484 49.4844 66.9766 49.4844C67.9141 49.4844 69.0859 48.9688 70.4922 47.9375C71.9453 46.9062 73.3984 45.6875 74.8516 44.2812C76.3516 42.8281 77.7344 41.375 79 39.9219C80.2656 38.4219 81.2031 37.2266 81.8125 36.3359C82.1875 35.8672 82.5625 35.5625 82.9375 35.4219C83.3594 35.2812 83.6875 35.3047 83.9219 35.4922C84.2031 35.6797 84.3438 35.9844 84.3438 36.4062C84.3906 36.8281 84.25 37.3203 83.9219 37.8828C83.1719 39.1953 82.0703 40.7656 80.6172 42.5938C79.1641 44.375 77.6172 46.1094 75.9766 47.7969C74.3359 49.4375 72.7188 50.8438 71.125 52.0156C69.5781 53.1875 68.3125 53.7969 67.3281 53.8438C66.5312 53.8906 65.7344 53.75 64.9375 53.4219C64.1875 53.1406 63.4844 52.7422 62.8281 52.2266C62.2188 51.6641 61.7031 51.0312 61.2812 50.3281C60.8594 49.5781 60.625 48.8047 60.5781 48.0078C60.4375 46.8359 60.4375 45.2422 60.5781 43.2266C60.7188 41.1641 60.9766 39.0781 61.3516 36.9688C61.7266 34.8125 62.1953 32.7734 62.7578 30.8516C63.3672 28.9297 64.0469 27.5 64.7969 26.5625ZM99.6719 54.7578C98.5938 54.7578 97.6562 54.5469 96.8594 54.125C96.1094 53.75 95.5 53.2344 95.0312 52.5781C94.5625 51.9219 94.2578 51.1719 94.1172 50.3281C93.9766 49.4375 94.0234 48.5 94.2578 47.5156C94.3984 46.8594 94.6328 45.9922 94.9609 44.9141C95.2891 43.7891 95.6172 42.5938 95.9453 41.3281C96.3203 40.0156 96.6484 38.7266 96.9297 37.4609C97.2578 36.1484 97.4688 34.9766 97.5625 33.9453C97.6562 32.8672 97.6094 32 97.4219 31.3438C97.2344 30.6406 96.8359 30.2891 96.2266 30.2891C95.4766 30.2891 94.7031 30.5469 93.9062 31.0625C93.1094 31.5312 92.2891 32.1875 91.4453 33.0312C90.6484 33.875 89.8281 34.8594 88.9844 35.9844C88.1875 37.0625 87.3906 38.1875 86.5938 39.3594C86.1719 40.9531 85.8203 42.3594 85.5391 43.5781C85.2578 44.75 85 45.8281 84.7656 46.8125C84.5781 47.75 84.3906 48.5938 84.2031 49.3438C84.0156 50.0469 83.8516 50.7266 83.7109 51.3828C83.5703 51.8516 83.1484 52.3203 82.4453 52.7891C81.7422 53.2109 80.9922 53.5625 80.1953 53.8438C79.3984 54.125 78.7188 54.2656 78.1562 54.2656C77.5469 54.2656 77.2891 54.0547 77.3828 53.6328C77.4297 53.3516 77.5938 52.7188 77.875 51.7344C78.1094 50.75 78.4141 49.6016 78.7891 48.2891C79.1172 46.9297 79.4688 45.5 79.8438 44C80.2188 42.5 80.5703 41.0703 80.8984 39.7109C81.1328 38.6328 81.3906 37.4375 81.6719 36.125C81.9062 35 82.1875 33.6875 82.5156 32.1875C82.8906 30.6875 83.3125 29.0469 83.7812 27.2656C84.1094 26.9844 84.4375 26.7734 84.7656 26.6328C85.1406 26.4453 85.5156 26.3047 85.8906 26.2109C86.2656 26.0703 86.6641 25.9766 87.0859 25.9297C87.4609 25.9297 87.8359 25.9531 88.2109 26C88.5391 26.0469 88.8672 26.1406 89.1953 26.2812C89.5703 26.375 89.8984 26.5391 90.1797 26.7734C90.0391 27.1016 89.875 27.5703 89.6875 28.1797C89.5 28.7422 89.3125 29.3516 89.125 30.0078C88.9375 30.7578 88.7031 31.5312 88.4219 32.3281C89.0312 31.4844 89.7109 30.6406 90.4609 29.7969C91.2578 28.9062 92.1016 28.1094 92.9922 27.4062C93.9297 26.7031 94.9141 26.1406 95.9453 25.7188C96.9766 25.25 98.0312 25.0156 99.1094 25.0156C100 25.0156 100.797 25.2734 101.5 25.7891C102.203 26.3047 102.742 27.0312 103.117 27.9688C103.539 28.8594 103.773 29.9375 103.82 31.2031C103.914 32.4688 103.75 33.8516 103.328 35.3516L102.555 38.4453C102.32 39.4297 102.016 40.6016 101.641 41.9609C101.312 43.2734 100.891 44.7266 100.375 46.3203C100.094 47.3516 99.9766 48.2422 100.023 48.9922C100.117 49.7422 100.586 50.1172 101.43 50.1172C102.273 50.1172 103.328 49.6016 104.594 48.5703C105.906 47.5391 107.219 46.2969 108.531 44.8438C109.844 43.3906 111.086 41.9141 112.258 40.4141C113.43 38.8672 114.32 37.625 114.93 36.6875C115.352 36.0781 115.75 35.6797 116.125 35.4922C116.5 35.3047 116.781 35.2812 116.969 35.4219C117.203 35.5625 117.32 35.8906 117.32 36.4062C117.32 36.875 117.133 37.4844 116.758 38.2344C116.43 38.8906 115.914 39.7578 115.211 40.8359C114.555 41.9141 113.758 43.0625 112.82 44.2812C111.883 45.5 110.875 46.7422 109.797 48.0078C108.719 49.2266 107.594 50.3516 106.422 51.3828C105.25 52.3672 104.078 53.1641 102.906 53.7734C101.781 54.4297 100.703 54.7578 99.6719 54.7578ZM130.609 63.0547C130.375 64.1797 130.07 65.5859 129.695 67.2734C129.367 68.9609 128.969 70.7422 128.5 72.6172C128.078 74.4922 127.562 76.3438 126.953 78.1719C126.391 80.0469 125.758 81.7109 125.055 83.1641C124.352 84.6641 123.578 85.8828 122.734 86.8203C121.891 87.7578 120.953 88.2266 119.922 88.2266C118.375 88.2266 117.039 87.7578 115.914 86.8203C114.836 85.9297 113.922 84.7812 113.172 83.375C112.422 82.0156 111.883 80.5391 111.555 78.9453C111.18 77.3516 110.992 75.875 110.992 74.5156C110.992 72.6406 111.156 71.0703 111.484 69.8047C111.812 68.5859 112.375 67.4141 113.172 66.2891C114.016 65.1641 115.141 63.9688 116.547 62.7031C117.953 61.4375 119.758 59.8672 121.961 57.9922C123.039 57.0547 124.07 56.1641 125.055 55.3203C126.039 54.4766 126.977 53.7031 127.867 53C128.102 52.0625 128.312 51.1953 128.5 50.3984C128.734 49.5547 128.922 48.8047 129.062 48.1484C127.844 49.7891 126.367 51.1719 124.633 52.2969C122.945 53.4219 121 53.9844 118.797 53.9844C116.781 53.9844 115.141 53.0938 113.875 51.3125C112.656 49.4844 112.047 46.8125 112.047 43.2969C112.047 41.5625 112.375 39.5703 113.031 37.3203C113.688 35.0703 114.625 32.9609 115.844 30.9922C117.062 29.0234 118.562 27.3594 120.344 26C122.125 24.6406 124.117 23.9609 126.32 23.9609C127.352 23.9609 128.242 24.2188 128.992 24.7344C129.742 25.25 130.375 25.9062 130.891 26.7031C131.406 27.4531 131.805 28.2734 132.086 29.1641C132.367 30.0078 132.578 30.8047 132.719 31.5547C132.812 31.2734 132.883 30.9922 132.93 30.7109C132.977 30.3828 133.047 30.1016 133.141 29.8672C133.609 28.2734 134.125 27.1953 134.688 26.6328C135.297 26.0234 136.188 25.7188 137.359 25.7188C138.016 25.7188 138.555 25.8359 138.977 26.0703C139.445 26.3047 139.68 26.5156 139.68 26.7031C139.445 27.2188 139.258 27.6172 139.117 27.8984C138.977 28.1797 138.836 28.4844 138.695 28.8125C138.555 29.0938 138.414 29.4688 138.273 29.9375C138.133 30.4062 137.945 31.0859 137.711 31.9766C137.617 32.3047 137.43 33.0781 137.148 34.2969C136.914 35.4688 136.586 36.875 136.164 38.5156C135.789 40.1562 135.367 41.9609 134.898 43.9297C134.477 45.8984 134.055 47.8203 133.633 49.6953C134.945 48.9453 136.305 48.0312 137.711 46.9531C139.117 45.875 140.453 44.7734 141.719 43.6484C142.984 42.5234 144.109 41.4688 145.094 40.4844C146.078 39.4531 146.805 38.6094 147.273 37.9531C147.648 37.3906 148.07 36.9922 148.539 36.7578C149.008 36.5234 149.406 36.4531 149.734 36.5469C150.109 36.5938 150.32 36.8047 150.367 37.1797C150.461 37.5078 150.32 37.9766 149.945 38.5859C148.867 40.3203 147.555 42.0078 146.008 43.6484C144.461 45.2422 142.867 46.7422 141.227 48.1484C139.633 49.5078 138.062 50.7266 136.516 51.8047C135.016 52.8359 133.727 53.6797 132.648 54.3359C132.18 56.4453 131.781 58.1562 131.453 59.4688C131.125 60.7812 130.844 61.9766 130.609 63.0547ZM121.75 49.2031C122.734 49.2031 123.648 48.9453 124.492 48.4297C125.383 47.9141 126.18 47.3281 126.883 46.6719C127.586 45.9688 128.172 45.2656 128.641 44.5625C129.109 43.8594 129.461 43.2969 129.695 42.875C129.883 42.4531 130.094 41.8906 130.328 41.1875C130.609 40.4844 130.82 39.8047 130.961 39.1484C131.102 38.4922 131.148 37.9062 131.102 37.3906C131.102 36.875 130.938 36.5938 130.609 36.5469C130.328 36.5 130.094 36.3125 129.906 35.9844C129.766 35.6562 129.648 35.2812 129.555 34.8594C129.461 34.4375 129.391 34.0156 129.344 33.5938C129.344 33.1719 129.32 32.7969 129.273 32.4688C129.039 30.8281 128.641 29.6328 128.078 28.8828C127.516 28.1328 126.883 27.7578 126.18 27.7578C125.008 27.7578 123.883 28.2266 122.805 29.1641C121.773 30.1016 120.836 31.3203 119.992 32.8203C119.195 34.2734 118.562 35.8906 118.094 37.6719C117.625 39.4062 117.391 41.0703 117.391 42.6641C117.391 44.6328 117.672 46.2266 118.234 47.4453C118.797 48.6172 119.969 49.2031 121.75 49.2031ZM118.516 81.8281C119.453 81.8281 120.203 81.125 120.766 79.7188C121.375 78.3594 122.008 76.4844 122.664 74.0938C122.805 73.5312 122.992 72.7109 123.227 71.6328C123.508 70.6016 123.812 69.4062 124.141 68.0469C124.516 66.6875 124.891 65.2109 125.266 63.6172C125.641 62.0703 126.039 60.5 126.461 58.9062C126.086 59.2344 125.688 59.5625 125.266 59.8906C124.891 60.2656 124.492 60.6875 124.07 61.1562C123.039 62.1406 122.031 63.0781 121.047 63.9688C120.109 64.9062 119.266 65.8672 118.516 66.8516C117.766 67.8828 117.156 68.9844 116.688 70.1562C116.266 71.3281 116.055 72.6875 116.055 74.2344C116.055 75.7812 116.102 77.0469 116.195 78.0312C116.336 79.0156 116.5 79.7891 116.688 80.3516C116.922 80.9141 117.18 81.2891 117.461 81.4766C117.789 81.7109 118.141 81.8281 118.516 81.8281ZM166.961 66.1484C165.133 66.1953 163.633 65.8672 162.461 65.1641C161.242 64.4609 160.305 63.4297 159.648 62.0703C158.945 60.7578 158.5 59.1406 158.312 57.2188C158.125 55.3438 158.125 53.2812 158.312 51.0312C158.547 49.2969 158.969 47.4922 159.578 45.6172C160.094 44.0234 160.891 42.2656 161.969 40.3438C163 38.4219 164.406 36.5469 166.188 34.7188C166.562 34.8125 166.867 34.9297 167.102 35.0703C167.336 35.1641 167.523 35.2812 167.664 35.4219C167.805 35.6094 167.898 35.7734 167.945 35.9141C168.039 36.4297 167.898 37.0156 167.523 37.6719C167.148 38.3281 166.773 39.0312 166.398 39.7812C165.367 41.9375 164.594 43.9766 164.078 45.8984C163.562 47.8203 163.234 49.6016 163.094 51.2422C163 52.6484 163.023 53.9141 163.164 55.0391C163.258 56.2109 163.422 57.1953 163.656 57.9922C163.891 58.8359 164.148 59.4688 164.43 59.8906C164.711 60.3594 164.969 60.5938 165.203 60.5938C165.438 60.5938 165.672 60.4297 165.906 60.1016C166.188 59.7734 166.445 59.375 166.68 58.9062C166.961 58.4375 167.289 57.7109 167.664 56.7266C168.039 55.7891 168.438 54.6875 168.859 53.4219C169.281 52.1562 169.68 50.7969 170.055 49.3438C170.477 47.8438 170.852 46.3438 171.18 44.8438C171.836 41.8438 172.539 38.4688 173.289 34.7188C174.039 30.9219 175.141 26.9609 176.594 22.8359C177.062 21.1016 177.648 19.2031 178.352 17.1406C178.914 15.3594 179.617 13.2969 180.461 10.9531C181.352 8.5625 182.359 5.98438 183.484 3.21875C183.484 2.98437 183.672 2.77344 184.047 2.58594C184.469 2.35156 184.938 2.11719 185.453 1.88281C186.016 1.64844 186.648 1.41406 187.352 1.17969C188.289 0.851563 189.016 0.664062 189.531 0.617188C190.094 0.570313 190.516 0.640625 190.797 0.828125C191.078 1.01562 191.266 1.27344 191.359 1.60156C191.453 1.88281 191.5 2.21094 191.5 2.58594C191.594 4.13281 191.641 5.58594 191.641 6.94531C191.688 8.30469 191.734 9.5 191.781 10.5312C191.828 11.75 191.852 12.8516 191.852 13.8359C191.898 15.1484 191.828 16.9062 191.641 19.1094C191.453 21.2656 191.242 23.5391 191.008 25.9297C190.82 28.3203 190.633 30.6641 190.445 32.9609C190.305 35.2109 190.281 37.0859 190.375 38.5859C190.375 39.3828 190.398 40.1328 190.445 40.8359C190.539 41.4922 190.633 42.1484 190.727 42.8047C191.336 41.1172 192.016 39.3594 192.766 37.5312C193.516 35.6562 194.266 33.875 195.016 32.1875C195.766 30.4531 196.469 28.8594 197.125 27.4062C197.781 25.9062 198.297 24.6641 198.672 23.6797C199.234 22.3672 199.984 20.7031 200.922 18.6875C201.859 16.6719 202.797 14.6562 203.734 12.6406C204.719 10.625 205.609 8.77344 206.406 7.08594C207.25 5.39844 207.859 4.22656 208.234 3.57031C208.516 3.10156 208.984 2.67969 209.641 2.30469C210.344 1.92969 211.07 1.60156 211.82 1.32031C212.617 1.03906 213.344 0.851563 214 0.757812C214.703 0.617188 215.172 0.59375 215.406 0.6875C216.016 0.828125 216.438 1.01562 216.672 1.25C216.953 1.48438 217.117 1.64844 217.164 1.74219C217.258 1.92969 217.328 2.25781 217.375 2.72656C217.422 3.14844 217.398 3.82812 217.305 4.76562C217.211 5.89062 216.93 7.60156 216.461 9.89844C216.039 12.1953 215.5 14.8203 214.844 17.7734C214.234 20.6797 213.555 23.7969 212.805 27.125C212.102 30.4531 211.422 33.7344 210.766 36.9688C210.109 40.1562 209.523 43.1562 209.008 45.9688C208.539 48.7812 208.234 51.1484 208.094 53.0703C208 55.2266 208.141 57.125 208.516 58.7656C208.656 59.4688 208.867 60.1484 209.148 60.8047C209.43 61.4609 209.805 62.0234 210.273 62.4922C210.742 63.0078 211.305 63.3828 211.961 63.6172C212.617 63.8516 213.391 63.9219 214.281 63.8281C213.109 64.625 211.961 65.2109 210.836 65.5859C209.711 65.9609 208.609 66.1484 207.531 66.1484C206.359 66.1953 205.328 66.0078 204.438 65.5859C203.547 65.2109 202.797 64.6484 202.188 63.8984C201.578 63.1953 201.133 62.3281 200.852 61.2969C200.57 60.3125 200.477 59.2109 200.57 57.9922C200.664 56.8672 200.969 55.0156 201.484 52.4375C202 49.8594 202.609 46.9531 203.312 43.7188C204.062 40.4375 204.859 37.0391 205.703 33.5234C206.594 29.9609 207.414 26.6328 208.164 23.5391C208.961 20.3984 209.641 17.7031 210.203 15.4531C210.766 13.2031 211.117 11.7266 211.258 11.0234C211.352 10.4609 211.422 9.94531 211.469 9.47656C211.562 8.96094 211.656 8.51563 211.75 8.14062C211.281 9.07813 210.695 10.2031 209.992 11.5156C209.336 12.8281 208.633 14.2344 207.883 15.7344C207.133 17.2344 206.359 18.8047 205.562 20.4453C204.812 22.0391 204.086 23.5859 203.383 25.0859C202.211 27.5234 201.062 30.0312 199.938 32.6094C198.812 35.1406 197.805 37.5547 196.914 39.8516C196.023 42.1484 195.273 44.2109 194.664 46.0391C194.102 47.8672 193.773 49.2734 193.68 50.2578V51.2422C193.68 51.5234 193.68 51.8516 193.68 52.2266C193.727 52.6016 193.797 52.9531 193.891 53.2812L191.078 55.4609C190.656 55.6016 190.281 55.7188 189.953 55.8125C189.672 55.9062 189.391 55.9531 189.109 55.9531C188.031 55.9531 187.211 55.3906 186.648 54.2656C186.086 53.2344 185.57 51.2188 185.102 48.2188C184.633 45.2188 184.492 41.5391 184.68 37.1797C184.773 35.0234 184.914 32.8438 185.102 30.6406C185.336 28.4375 185.547 26.3281 185.734 24.3125C185.969 22.2969 186.18 20.4219 186.367 18.6875C186.555 16.9062 186.648 15.3828 186.648 14.1172C186.695 13.1797 186.672 12.3359 186.578 11.5859C186.484 10.7891 186.391 10.0625 186.297 9.40625C185.875 10.4844 185.406 11.9609 184.891 13.8359C184.375 15.6641 183.836 17.7031 183.273 19.9531C182.711 22.2031 182.125 24.5703 181.516 27.0547C180.953 29.5391 180.391 31.9297 179.828 34.2266C179.312 36.5234 178.82 38.6562 178.352 40.625C177.883 42.5469 177.508 44.0938 177.227 45.2656C176.758 47.1406 176.289 49.2734 175.82 51.6641C175.352 54.0547 174.766 56.3047 174.062 58.4141C173.359 60.5703 172.445 62.375 171.32 63.8281C170.195 65.3281 168.742 66.1016 166.961 66.1484ZM254.219 39.0078C253.562 39.9453 252.719 41.1172 251.688 42.5234C250.656 43.8828 249.578 45.2656 248.453 46.6719C247.375 48.0312 246.297 49.2969 245.219 50.4688C244.188 51.5938 243.32 52.3906 242.617 52.8594C242.148 53.1406 241.609 53.375 241 53.5625C240.391 53.75 239.758 53.8672 239.102 53.9141C238.492 53.9609 237.906 53.9141 237.344 53.7734C236.781 53.6797 236.289 53.4922 235.867 53.2109C235.445 52.8828 235.094 52.4141 234.812 51.8047C234.578 51.2891 234.344 50.6094 234.109 49.7656C233.922 48.9219 233.852 47.8672 233.898 46.6016C232.773 48.4766 231.531 49.9297 230.172 50.9609C228.812 51.9453 227.523 52.6719 226.305 53.1406C224.898 53.6562 223.492 53.9609 222.086 54.0547C221.43 54.0547 220.727 53.8203 219.977 53.3516C219.227 52.9297 218.594 52.25 218.078 51.3125C217.562 50.3281 217.234 49.0859 217.094 47.5859C216.953 46.0391 217.141 44.2109 217.656 42.1016C218.312 39.2422 219.344 36.6406 220.75 34.2969C222.203 31.9531 223.773 29.9609 225.461 28.3203C227.148 26.6328 228.812 25.3672 230.453 24.5234C232.094 23.6797 233.453 23.3047 234.531 23.3984C235.797 23.6328 236.828 24.0078 237.625 24.5234C238.281 24.9922 238.703 25.6953 238.891 26.6328C239.125 27.5234 238.75 28.7188 237.766 30.2188C238.422 30.0781 238.961 29.9844 239.383 29.9375C239.852 29.8906 240.203 29.8672 240.438 29.8672C240.719 29.8672 240.906 29.8906 241 29.9375C241.047 30.0312 241.07 30.2422 241.07 30.5703C241.07 30.8516 241 31.3906 240.859 32.1875C240.719 32.9844 240.508 34.0625 240.227 35.4219C239.945 36.7812 239.57 38.5391 239.102 40.6953C239.008 41.1172 238.914 41.5156 238.82 41.8906C238.773 42.2188 238.703 42.5703 238.609 42.9453C238.562 43.2734 238.492 43.6719 238.398 44.1406C238.305 44.6094 238.188 45.1953 238.047 45.8984C238 46.3203 237.977 46.7891 237.977 47.3047C238.023 47.7734 238.117 48.2188 238.258 48.6406C238.398 49.0625 238.609 49.4141 238.891 49.6953C239.219 49.9297 239.664 50.0469 240.227 50.0469C240.695 50.0469 241.305 49.7656 242.055 49.2031C242.805 48.5938 243.602 47.8438 244.445 46.9531C245.289 46.0156 246.156 45.0078 247.047 43.9297C247.984 42.8047 248.852 41.7266 249.648 40.6953C250.445 39.6641 251.148 38.75 251.758 37.9531C252.414 37.1562 252.883 36.5703 253.164 36.1953C253.539 35.7734 253.914 35.5391 254.289 35.4922C254.664 35.3984 254.945 35.4922 255.133 35.7734C255.32 36.0547 255.344 36.4766 255.203 37.0391C255.109 37.6016 254.781 38.2578 254.219 39.0078ZM233.617 42.1016C233.852 41.1641 234.133 40.0625 234.461 38.7969C234.789 37.5312 235.07 36.3125 235.305 35.1406C235.539 33.9688 235.703 33.0078 235.797 32.2578C235.938 31.4609 235.914 31.0859 235.727 31.1328C235.492 31.1797 235.234 31.25 234.953 31.3438C234.719 31.4375 234.414 31.5078 234.039 31.5547C233.664 31.6016 233.289 31.6719 232.914 31.7656C233.289 31.0156 233.5 30.4062 233.547 29.9375C233.641 29.4219 233.664 29.0234 233.617 28.7422C233.57 28.4141 233.477 28.1562 233.336 27.9688C232.82 27.5469 231.906 27.8984 230.594 29.0234C229.328 30.1016 227.852 32.1172 226.164 35.0703C225.461 36.2891 224.898 37.6016 224.477 39.0078C224.055 40.3672 223.75 41.6562 223.562 42.875C223.422 44.0938 223.398 45.1719 223.492 46.1094C223.586 47 223.773 47.5859 224.055 47.8672C224.57 48.3828 225.156 48.6406 225.812 48.6406C226.469 48.5938 227.125 48.4062 227.781 48.0781C228.484 47.7031 229.164 47.2344 229.82 46.6719C230.523 46.1094 231.133 45.5234 231.648 44.9141C232.211 44.3047 232.656 43.7422 232.984 43.2266C233.359 42.7109 233.57 42.3359 233.617 42.1016ZM244.445 83.0234C244.117 82.8828 243.789 82.6719 243.461 82.3906C243.18 82.1562 242.898 81.8516 242.617 81.4766C242.336 81.1484 242.102 80.7266 241.914 80.2109C243.227 75.1953 244.352 70.8359 245.289 67.1328C246.18 63.4297 246.953 60.3359 247.609 57.8516C248.312 54.9453 248.922 52.5078 249.438 50.5391C249.906 48.6641 250.375 46.7891 250.844 44.9141C251.219 43.2734 251.617 41.5156 252.039 39.6406C252.508 37.7656 252.93 36.0078 253.305 34.3672C253.773 32.5391 254.055 31.0859 254.148 30.0078C254.242 28.8828 253.891 27.9219 253.094 27.125C253.656 26.6562 254.219 26.3047 254.781 26.0703C255.391 25.7891 255.93 25.6016 256.398 25.5078C256.914 25.3672 257.43 25.3203 257.945 25.3672C259.211 25.4609 259.984 25.8594 260.266 26.5625C260.594 27.2656 260.641 28.3906 260.406 29.9375C260.359 30.1719 260.312 30.3828 260.266 30.5703C260.266 30.7109 260.266 30.875 260.266 31.0625C260.922 30.3125 261.648 29.5859 262.445 28.8828C263.242 28.1797 264.039 27.5469 264.836 26.9844C265.68 26.4219 266.523 25.9766 267.367 25.6484C268.258 25.2734 269.102 25.0859 269.898 25.0859C270.977 25.0859 271.844 25.3672 272.5 25.9297C273.203 26.4453 273.742 27.1484 274.117 28.0391C274.492 28.9297 274.727 29.9375 274.82 31.0625C274.914 32.1406 274.938 33.2188 274.891 34.2969C274.844 35.4688 274.633 36.7109 274.258 38.0234C273.93 39.3359 273.461 40.6719 272.852 42.0312C272.242 43.3906 271.539 44.7266 270.742 46.0391C269.945 47.3516 269.102 48.5703 268.211 49.6953C268.398 49.7422 268.516 49.7891 268.562 49.8359C268.609 49.8359 268.633 49.8594 268.633 49.9062C268.633 49.9062 268.656 49.9297 268.703 49.9766C268.797 49.9766 268.961 49.9766 269.195 49.9766C270.273 49.9766 271.375 49.6953 272.5 49.1328C273.625 48.5703 274.727 47.8672 275.805 47.0234C276.883 46.1328 277.914 45.1719 278.898 44.1406C279.93 43.1094 280.844 42.125 281.641 41.1875C282.484 40.2031 283.188 39.3359 283.75 38.5859C284.312 37.7891 284.734 37.2266 285.016 36.8984C285.391 36.4297 285.742 36.125 286.07 35.9844C286.398 35.7969 286.656 35.7734 286.844 35.9141C287.031 36.0547 287.125 36.3359 287.125 36.7578C287.125 37.1328 286.984 37.625 286.703 38.2344C286.516 38.6562 286.117 39.3359 285.508 40.2734C284.898 41.2109 284.148 42.2656 283.258 43.4375C282.367 44.6094 281.336 45.8281 280.164 47.0938C279.039 48.3594 277.844 49.5078 276.578 50.5391C275.312 51.5703 274 52.4141 272.641 53.0703C271.328 53.7734 270.039 54.125 268.773 54.125C268.164 54.125 267.672 54.1016 267.297 54.0547C266.922 54.0078 266.594 53.9141 266.312 53.7734C266.078 53.6797 265.844 53.5625 265.609 53.4219C265.375 53.3281 265.094 53.2109 264.766 53.0703C263.922 53.7266 263.055 54.2188 262.164 54.5469C261.273 54.9219 260.406 55.1094 259.562 55.1094C258.766 55.1094 258.062 54.9688 257.453 54.6875C256.891 54.4531 256.422 54.1016 256.047 53.6328C255.672 53.2109 255.367 52.7422 255.133 52.2266C254.898 51.6641 254.711 51.125 254.57 50.6094C254.523 50.7969 254.477 50.9609 254.43 51.1016C254.43 51.2422 254.406 51.4297 254.359 51.6641C253.797 53.9141 253.211 56.5156 252.602 59.4688C252.086 62 251.453 65.0703 250.703 68.6797C250 72.3359 249.25 76.4844 248.453 81.125C248.172 82.3906 247.68 83.1172 246.977 83.3047C246.227 83.4922 245.383 83.3984 244.445 83.0234ZM257.312 39.4297C257.078 40.2266 256.82 41.1641 256.539 42.2422C256.305 43.2734 256.023 44.5156 255.695 45.9688C256.07 45.6875 256.492 45.4766 256.961 45.3359C257.43 45.1953 257.898 45.125 258.367 45.125C258.883 45.125 259.539 45.4062 260.336 45.9688C261.133 46.4844 262.094 47.0469 263.219 47.6562C263.922 46.8125 264.648 45.875 265.398 44.8438C266.195 43.7656 266.898 42.6641 267.508 41.5391C268.164 40.4141 268.703 39.2656 269.125 38.0938C269.594 36.9219 269.852 35.7969 269.898 34.7188C269.992 33.3125 269.828 32.2109 269.406 31.4141C268.984 30.6172 268.281 30.2188 267.297 30.2188C265.844 30.2188 264.25 31.0859 262.516 32.8203C260.828 34.5078 259.094 36.7109 257.312 39.4297Z" fill="white"/>
</svg>
