<svg width="193" height="45" viewBox="0 0 193 45" fill="none" xmlns="http://www.w3.org/2000/svg">
<rect x="2" y="2" width="189" height="41" rx="20.5" stroke="white" stroke-width="4"/>
<path d="M50.6484 27.625C51.3359 24.7344 51.8828 22.4141 52.2891 20.6641C52.7109 18.9141 53.0312 17.5781 53.25 16.6562C53.5 15.5625 53.6719 14.8047 53.7656 14.3828C53.8125 14.0859 53.8516 13.7969 53.8828 13.5156C53.9141 13.2656 53.9297 13.0078 53.9297 12.7422C53.9297 12.4766 53.9062 12.2344 53.8594 12.0156C53.9844 11.9375 54.1172 11.875 54.2578 11.8281C54.4141 11.7812 54.5625 11.7422 54.7031 11.7109C54.875 11.6641 55.0469 11.625 55.2188 11.5938C55.3906 11.5625 55.5469 11.5469 55.6875 11.5469C55.8125 11.5469 55.9297 11.5625 56.0391 11.5938C56.1484 11.6094 56.2188 11.6562 56.25 11.7344C56.3438 11.8125 56.3828 11.9688 56.3672 12.2031C56.3672 12.4375 56.3516 12.6797 56.3203 12.9297C56.2578 13.2266 56.1875 13.5469 56.1094 13.8906C55.9219 14.5625 55.6641 15.5312 55.3359 16.7969C55.0547 17.875 54.6719 19.3438 54.1875 21.2031C53.7188 23.0625 53.125 25.4062 52.4062 28.2344C52.3281 28.3125 52.2344 28.3672 52.125 28.3984C52.0156 28.4297 51.9141 28.4453 51.8203 28.4453C51.7109 28.4453 51.5938 28.4375 51.4688 28.4219C51.3594 28.3906 51.25 28.3438 51.1406 28.2812C51.0469 28.2188 50.9531 28.1328 50.8594 28.0234C50.7656 27.9297 50.6953 27.7969 50.6484 27.625ZM66.8672 23.125C66.3984 23.8125 65.8672 24.4844 65.2734 25.1406C64.6797 25.7812 64.0469 26.3594 63.375 26.875C62.7188 27.375 62.0391 27.7812 61.3359 28.0938C60.6484 28.4062 59.9766 28.5625 59.3203 28.5625C58.9766 28.5625 58.6016 28.4766 58.1953 28.3047C57.8047 28.1484 57.4453 27.8984 57.1172 27.5547C56.7891 27.2109 56.5234 26.7656 56.3203 26.2188C56.1328 25.6719 56.0781 25.0078 56.1562 24.2266C56.2188 23.5859 56.4141 22.9141 56.7422 22.2109C57.0859 21.4922 57.5 20.8359 57.9844 20.2422C58.4844 19.6484 59.0391 19.1562 59.6484 18.7656C60.2734 18.375 60.8984 18.1797 61.5234 18.1797C62.1172 18.1797 62.5469 18.3281 62.8125 18.625C63.0781 18.9219 63.1953 19.2891 63.1641 19.7266C63.1172 20.2109 62.9766 20.6562 62.7422 21.0625C62.5234 21.4688 62.2578 21.8359 61.9453 22.1641C61.6328 22.4922 61.2969 22.7891 60.9375 23.0547C60.5938 23.3203 60.2656 23.5625 59.9531 23.7812C59.6094 24.0156 59.2812 24.2422 58.9688 24.4609C58.6562 24.6641 58.3828 24.8516 58.1484 25.0234C58.1641 25.4141 58.2344 25.7422 58.3594 26.0078C58.4844 26.2734 58.6406 26.4922 58.8281 26.6641C59.0156 26.8203 59.2266 26.9375 59.4609 27.0156C59.7109 27.0781 59.9609 27.1094 60.2109 27.1094C60.7422 27.1094 61.2969 26.9453 61.875 26.6172C62.4531 26.2734 63.0156 25.8672 63.5625 25.3984C64.125 24.9141 64.6406 24.4141 65.1094 23.8984C65.5938 23.3828 65.9922 22.9375 66.3047 22.5625C66.4141 22.4375 66.5234 22.3672 66.6328 22.3516C66.7578 22.3203 66.8516 22.3359 66.9141 22.3984C66.9922 22.4453 67.0312 22.5391 67.0312 22.6797C67.0312 22.8047 66.9766 22.9531 66.8672 23.125ZM60.8672 19.5156C60.6797 19.5156 60.4531 19.6094 60.1875 19.7969C59.9375 19.9844 59.6875 20.2578 59.4375 20.6172C59.1875 20.9609 58.9531 21.3906 58.7344 21.9062C58.5156 22.4062 58.3516 22.9844 58.2422 23.6406C58.4297 23.5 58.6328 23.3594 58.8516 23.2188C59.0703 23.0625 59.2891 22.8984 59.5078 22.7266C60.1797 22.2109 60.6484 21.7578 60.9141 21.3672C61.1797 20.9766 61.3281 20.6406 61.3594 20.3594C61.3906 20.0625 61.3594 19.8516 61.2656 19.7266C61.1719 19.5859 61.0391 19.5156 60.8672 19.5156ZM73.8281 22.0703C73.8906 21.9766 73.9688 21.9219 74.0625 21.9062C74.1719 21.875 74.2578 21.8828 74.3203 21.9297C74.3828 21.9766 74.4141 22.0547 74.4141 22.1641C74.4297 22.2734 74.3906 22.4219 74.2969 22.6094C73.9844 23.2031 73.5703 23.8438 73.0547 24.5312C72.5547 25.2188 72.0234 25.8672 71.4609 26.4766C70.8984 27.0703 70.3516 27.5625 69.8203 27.9531C69.2891 28.3438 68.8438 28.5391 68.4844 28.5391C67.9688 28.5391 67.5391 28.4375 67.1953 28.2344C66.8516 28.0312 66.5781 27.7812 66.375 27.4844C66.1875 27.1875 66.0547 26.8672 65.9766 26.5234C65.8984 26.1641 65.875 25.8359 65.9062 25.5391C65.9219 25.2891 65.9766 24.8438 66.0703 24.2031C66.1641 23.5469 66.2891 22.7969 66.4453 21.9531C66.6016 21.0938 66.7734 20.1797 66.9609 19.2109C67.1641 18.2266 67.375 17.2812 67.5938 16.375C67.3281 16.4062 67.0625 16.4375 66.7969 16.4688C66.5312 16.5 66.2891 16.5156 66.0703 16.5156C65.5703 16.5156 65.1016 16.4609 64.6641 16.3516C64.2109 16.2266 63.875 16.1094 63.6562 16C63.5312 15.9375 63.4766 15.8516 63.4922 15.7422C63.5078 15.6172 63.5547 15.5 63.6328 15.3906C63.7109 15.2656 63.8125 15.1641 63.9375 15.0859C64.0469 14.9922 64.1484 14.9453 64.2422 14.9453C64.5391 14.9766 64.8594 15.0078 65.2031 15.0391C65.5469 15.0547 65.9219 15.0547 66.3281 15.0391C66.625 15.0234 66.9062 15 67.1719 14.9688C67.4531 14.9375 67.7266 14.8984 67.9922 14.8516C68.1953 14.1016 68.3906 13.4531 68.5781 12.9062C68.7812 12.3438 68.9609 11.9531 69.1172 11.7344C69.1641 11.6562 69.2656 11.5938 69.4219 11.5469C69.5938 11.4844 69.7734 11.4453 69.9609 11.4297C70.1484 11.3984 70.3281 11.3984 70.5 11.4297C70.6719 11.4453 70.7969 11.5 70.875 11.5938C70.9531 11.7188 70.9844 12.0391 70.9688 12.5547C70.9531 13.0703 70.8672 13.7266 70.7109 14.5234C71.3672 14.5234 71.9453 14.5625 72.4453 14.6406C72.9609 14.7031 73.3984 14.7812 73.7578 14.875C74.1172 14.9531 74.4062 15.0391 74.625 15.1328C74.8438 15.2109 75.0078 15.2656 75.1172 15.2969C75.2266 15.3281 75.2812 15.4062 75.2812 15.5312C75.2969 15.6562 75.2734 15.7891 75.2109 15.9297C75.1641 16.0547 75.0781 16.1641 74.9531 16.2578C74.8281 16.3516 74.6875 16.3828 74.5312 16.3516C74.375 16.3359 74.1953 16.3047 73.9922 16.2578C73.8047 16.2109 73.5703 16.1719 73.2891 16.1406C73.0234 16.1094 72.7031 16.0781 72.3281 16.0469C71.9531 16.0156 71.5156 16 71.0156 16C70.9219 16 70.8125 16.0078 70.6875 16.0234C70.5781 16.0234 70.4609 16.0234 70.3359 16.0234C70.2734 16.2734 70.2109 16.5234 70.1484 16.7734C70.1016 17.0078 70.0312 17.2578 69.9375 17.5234C69.7344 18.1484 69.5 18.8281 69.2344 19.5625C69 20.2031 68.7188 20.9375 68.3906 21.7656C68.0625 22.5938 67.6953 23.4766 67.2891 24.4141C67.1953 25.0859 67.2031 25.6016 67.3125 25.9609C67.4375 26.3047 67.5859 26.5547 67.7578 26.7109C67.9609 26.8828 68.2109 26.9766 68.5078 26.9922C68.7422 27.0234 69.0234 26.9453 69.3516 26.7578C69.6953 26.5547 70.0469 26.2891 70.4062 25.9609C70.7656 25.6328 71.125 25.2734 71.4844 24.8828C71.8594 24.4922 72.2031 24.1094 72.5156 23.7344C72.8281 23.3594 73.1016 23.0234 73.3359 22.7266C73.5703 22.4141 73.7344 22.1953 73.8281 22.0703ZM74.6953 14.4766C74.4453 14.4453 74.2344 14.3359 74.0625 14.1484C73.9062 13.9453 73.8516 13.6641 73.8984 13.3047C73.9297 13.0703 74.0078 12.8594 74.1328 12.6719C74.2578 12.4688 74.4062 12.2969 74.5781 12.1562C74.7656 12.0156 74.9688 11.9141 75.1875 11.8516C75.4062 11.7891 75.6328 11.7656 75.8672 11.7812C76.2734 11.8281 76.5312 12.0312 76.6406 12.3906C76.7656 12.7344 76.7891 13.1172 76.7109 13.5391C76.6797 13.7578 76.6172 14.0156 76.5234 14.3125C76.4297 14.6094 76.2891 14.9141 76.1016 15.2266C75.9297 15.5391 75.7109 15.8438 75.4453 16.1406C75.1953 16.4375 74.8906 16.7031 74.5312 16.9375C74.375 17.0312 74.25 17.0781 74.1562 17.0781C74.0781 17.0625 74.0234 17.0234 73.9922 16.9609C73.9609 16.8828 73.9531 16.7891 73.9688 16.6797C74 16.5703 74.0547 16.4688 74.1328 16.375C74.3047 16.2031 74.4844 15.9453 74.6719 15.6016C74.875 15.2422 75.0156 14.8594 75.0938 14.4531C75.0156 14.4688 74.9453 14.4844 74.8828 14.5C74.8203 14.5156 74.7578 14.5078 74.6953 14.4766ZM79.4297 27.2031C79.5234 27.2656 79.6406 27.2969 79.7812 27.2969C79.9375 27.2969 80.0859 27.2656 80.2266 27.2031C80.3828 27.1406 80.5234 27.0547 80.6484 26.9453C80.7891 26.8359 80.8906 26.6953 80.9531 26.5234C81.0156 26.3516 81.0156 26.1094 80.9531 25.7969C80.8906 25.4688 80.7891 25.125 80.6484 24.7656C80.5234 24.3906 80.3828 24.0156 80.2266 23.6406C80.0703 23.2656 79.9375 22.9219 79.8281 22.6094C79.7344 22.375 79.6562 22.1562 79.5938 21.9531C79.5312 21.7812 79.4688 21.6172 79.4062 21.4609C79.3594 21.2891 79.3203 21.1719 79.2891 21.1094C79.2109 21.2344 79.0703 21.4375 78.8672 21.7188C78.6797 22 78.4688 22.2969 78.2344 22.6094C78.0156 22.9062 77.8047 23.1875 77.6016 23.4531C77.3984 23.7031 77.2578 23.875 77.1797 23.9688C77.0547 24.1094 76.9297 24.1953 76.8047 24.2266C76.6953 24.2422 76.6016 24.2188 76.5234 24.1562C76.4453 24.0781 76.3984 23.9766 76.3828 23.8516C76.3828 23.7109 76.4453 23.5469 76.5703 23.3594C76.6641 23.2344 76.8047 23.0391 76.9922 22.7734C77.1797 22.4922 77.3672 22.2109 77.5547 21.9297C77.7422 21.6328 77.9141 21.375 78.0703 21.1562C78.2266 20.9219 78.3125 20.7812 78.3281 20.7344C78.3594 20.6094 78.3125 20.4453 78.1875 20.2422C78.0781 20.0391 78.0625 19.8047 78.1406 19.5391C78.2031 19.3203 78.3438 19.0703 78.5625 18.7891C78.7812 18.4922 79.0391 18.2266 79.3359 17.9922C79.6328 17.7578 79.9375 17.5859 80.25 17.4766C80.5625 17.3516 80.8438 17.3516 81.0938 17.4766C81.2969 17.6016 81.4609 17.7422 81.5859 17.8984C81.7109 18.0391 81.7578 18.1875 81.7266 18.3438C81.6953 18.4219 81.6484 18.5234 81.5859 18.6484C81.5234 18.7734 81.4297 18.9297 81.3047 19.1172C81.1797 19.2891 81 19.5156 80.7656 19.7969C80.8125 20.1562 80.875 20.4844 80.9531 20.7812C81.0469 21.0781 81.1328 21.3359 81.2109 21.5547C81.3047 21.8203 81.4062 22.0625 81.5156 22.2812C81.6562 22.5625 81.8047 22.8516 81.9609 23.1484C82.1172 23.4453 82.2578 23.7422 82.3828 24.0391C82.5078 24.3203 82.6094 24.5859 82.6875 24.8359C82.7656 25.0859 82.7891 25.2969 82.7578 25.4688C82.7109 25.7344 82.5703 26.0547 82.3359 26.4297C82.1172 26.8047 81.8359 27.1719 81.4922 27.5312C81.1641 27.875 80.7812 28.1719 80.3438 28.4219C79.9219 28.6719 79.4766 28.7969 79.0078 28.7969C78.6797 28.7969 78.3594 28.6953 78.0469 28.4922C77.75 28.2891 77.4922 28.0547 77.2734 27.7891C77.0703 27.5078 76.9141 27.2344 76.8047 26.9688C76.7109 26.7031 76.7031 26.5 76.7812 26.3594C76.875 26.1719 76.9609 26.0234 77.0391 25.9141C77.1172 25.8047 77.2344 25.6797 77.3906 25.5391C77.4531 25.4922 77.5312 25.4375 77.625 25.375C77.7031 25.3281 77.8125 25.2812 77.9531 25.2344C78.0938 25.1875 78.2578 25.1328 78.4453 25.0703C78.6016 25.5547 78.7422 25.9375 78.8672 26.2188C78.9922 26.4844 79.0938 26.6953 79.1719 26.8516C79.2656 27.0234 79.3516 27.1406 79.4297 27.2031ZM91.3828 31.0234C91.2422 30.9297 91.1719 30.8281 91.1719 30.7188C91.1562 30.6094 91.1797 30.5 91.2422 30.3906C91.3047 30.2656 91.3984 30.1406 91.5234 30.0156C91.6484 29.9062 91.7969 29.625 91.9688 29.1719C92.1406 28.7344 92.3203 28.2031 92.5078 27.5781C92.7109 26.9375 92.9062 26.2422 93.0938 25.4922C93.2969 24.7422 93.4844 24.0078 93.6562 23.2891C93.8281 22.5703 93.9766 21.9062 94.1016 21.2969C94.2266 20.6875 94.3203 20.2031 94.3828 19.8438C94.4609 19.4062 94.5469 18.9297 94.6406 18.4141C94.7188 17.9609 94.8047 17.4375 94.8984 16.8438C94.9922 16.2344 95.0781 15.5625 95.1562 14.8281L97.0312 13.9844C97.2969 13.8594 97.4844 13.8906 97.5938 14.0781C97.7031 14.25 97.7031 14.6172 97.5938 15.1797C97.5469 15.4609 97.4609 15.9219 97.3359 16.5625C97.2109 17.1875 97.0625 17.8828 96.8906 18.6484C96.7344 19.3984 96.5625 20.1719 96.375 20.9688C96.2031 21.75 96.0312 22.4453 95.8594 23.0547C95.7031 23.6328 95.5234 24.2969 95.3203 25.0469C94.9609 26.3281 94.4609 28.0781 93.8203 30.2969C94.0391 30.6719 94.4453 30.8594 95.0391 30.8594C95.6953 30.8594 96.4531 30.6094 97.3125 30.1094C98.1875 29.6094 99.0312 28.8594 99.8438 27.8594C100.656 26.8594 101.367 25.6094 101.977 24.1094C102.602 22.5938 102.992 20.8281 103.148 18.8125C103.227 17.7188 103.172 16.7578 102.984 15.9297C102.797 15.1016 102.508 14.4062 102.117 13.8438C101.742 13.2812 101.273 12.8594 100.711 12.5781C100.164 12.2969 99.5547 12.1562 98.8828 12.1562C97.3047 12.1562 95.6719 12.8125 93.9844 14.125L93.8672 12.1797C94.2734 11.7266 94.7344 11.3828 95.25 11.1484C95.7812 10.8984 96.2734 10.7109 96.7266 10.5859C97.2578 10.4453 97.7969 10.3672 98.3438 10.3516C99.3438 10.3516 100.305 10.5469 101.227 10.9375C102.164 11.3125 102.969 11.8906 103.641 12.6719C104.328 13.4531 104.852 14.4375 105.211 15.625C105.57 16.7969 105.695 18.1719 105.586 19.75C105.523 20.6562 105.336 21.6016 105.023 22.5859C104.727 23.5547 104.328 24.5078 103.828 25.4453C103.344 26.3828 102.766 27.2734 102.094 28.1172C101.422 28.9609 100.688 29.6953 99.8906 30.3203C99.0938 30.9609 98.2422 31.4609 97.3359 31.8203C96.4297 32.1953 95.4922 32.3828 94.5234 32.3828C94.2266 32.3672 93.9062 32.3125 93.5625 32.2188C93.2656 32.1406 92.9297 32.0078 92.5547 31.8203C92.1797 31.6328 91.7891 31.3672 91.3828 31.0234ZM105.586 27.8828C105.477 28.0547 105.359 28.1641 105.234 28.2109C105.094 28.2734 104.977 28.2812 104.883 28.2344C104.773 28.2031 104.703 28.125 104.672 28C104.641 27.875 104.672 27.7188 104.766 27.5312C104.812 27.4375 104.922 27.2266 105.094 26.8984C105.25 26.5703 105.445 26.1797 105.68 25.7266C105.898 25.2578 106.141 24.7578 106.406 24.2266C106.672 23.6797 106.922 23.1641 107.156 22.6797C107.406 22.1953 107.633 21.7656 107.836 21.3906C108.039 21 108.188 20.7188 108.281 20.5469C108.109 20.3906 107.992 20.2812 107.93 20.2188C107.867 20.1406 107.82 19.9844 107.789 19.75C107.758 19.5469 107.805 19.2812 107.93 18.9531C108.055 18.625 108.219 18.3125 108.422 18.0156C108.625 17.7031 108.852 17.4375 109.102 17.2188C109.352 17 109.594 16.8906 109.828 16.8906C110.266 16.8906 110.57 17.0312 110.742 17.3125C110.93 17.5938 111.039 17.8828 111.07 18.1797C111.102 18.3828 111.086 18.6406 111.023 18.9531C110.961 19.2656 110.844 19.5469 110.672 19.7969C110.719 19.8281 110.781 19.8672 110.859 19.9141C110.938 19.9453 111.062 19.9609 111.234 19.9609C111.484 19.9609 111.656 19.9453 111.75 19.9141C111.859 19.8828 112.023 19.8672 112.242 19.8672C112.508 19.8672 112.727 19.9375 112.898 20.0781C113.07 20.2031 113.211 20.3672 113.32 20.5703C113.43 20.7578 113.508 20.9688 113.555 21.2031C113.617 21.4219 113.656 21.625 113.672 21.8125C113.719 22.2031 113.617 22.6094 113.367 23.0312C113.117 23.4531 112.812 23.9141 112.453 24.4141C112.234 24.7266 112.016 25.0781 111.797 25.4688C111.578 25.8594 111.484 26.2109 111.516 26.5234C111.547 26.7266 111.602 26.8906 111.68 27.0156C111.758 27.1406 111.977 27.2031 112.336 27.2031C112.602 27.2031 112.891 27.1094 113.203 26.9219C113.531 26.7188 113.859 26.4688 114.188 26.1719C114.531 25.8594 114.867 25.5234 115.195 25.1641C115.523 24.7891 115.828 24.4297 116.109 24.0859C116.391 23.7266 116.625 23.4062 116.812 23.125C117.016 22.8438 117.164 22.6406 117.258 22.5156C117.336 22.3906 117.438 22.3047 117.562 22.2578C117.688 22.2109 117.797 22.2109 117.891 22.2578C117.984 22.3047 118.039 22.3984 118.055 22.5391C118.086 22.6797 118.031 22.8672 117.891 23.1016C117.797 23.2578 117.633 23.5078 117.398 23.8516C117.18 24.1953 116.906 24.5781 116.578 25C116.266 25.4219 115.914 25.8594 115.523 26.3125C115.133 26.75 114.719 27.1562 114.281 27.5312C113.859 27.8906 113.43 28.1875 112.992 28.4219C112.57 28.6562 112.164 28.7734 111.773 28.7734C111.367 28.7734 111.031 28.6953 110.766 28.5391C110.5 28.3828 110.281 28.1953 110.109 27.9766C109.953 27.7422 109.836 27.4922 109.758 27.2266C109.695 26.9453 109.672 26.6875 109.688 26.4531C109.703 26.2656 109.75 26.0703 109.828 25.8672C109.922 25.6484 110.023 25.4297 110.133 25.2109C110.258 24.9766 110.383 24.75 110.508 24.5312C110.648 24.2969 110.773 24.0703 110.883 23.8516C111.148 23.3984 111.359 23.0156 111.516 22.7031C111.688 22.375 111.773 22.1016 111.773 21.8828C111.773 21.7422 111.742 21.6172 111.68 21.5078C111.617 21.3984 111.516 21.3438 111.375 21.3438C111.281 21.3438 111.211 21.3516 111.164 21.3672C111.133 21.3672 111.094 21.3672 111.047 21.3672C111.016 21.3672 110.961 21.375 110.883 21.3906C110.82 21.3906 110.719 21.3906 110.578 21.3906C110.375 21.3906 110.203 21.3594 110.062 21.2969C109.922 21.2344 109.789 21.1875 109.664 21.1562C109.602 21.2656 109.461 21.5 109.242 21.8594C109.023 22.2188 108.766 22.6406 108.469 23.125C108.188 23.6094 107.883 24.1172 107.555 24.6484C107.242 25.1797 106.945 25.6797 106.664 26.1484C106.383 26.6016 106.148 26.9922 105.961 27.3203C105.758 27.6328 105.633 27.8203 105.586 27.8828ZM128.25 23.3359C128.031 23.6484 127.75 24.0391 127.406 24.5078C127.062 24.9609 126.703 25.4219 126.328 25.8906C125.969 26.3438 125.609 26.7656 125.25 27.1562C124.906 27.5312 124.617 27.7969 124.383 27.9531C124.227 28.0469 124.047 28.125 123.844 28.1875C123.641 28.25 123.43 28.2891 123.211 28.3047C123.008 28.3203 122.812 28.3047 122.625 28.2578C122.438 28.2266 122.273 28.1641 122.133 28.0703C121.992 27.9609 121.875 27.8047 121.781 27.6016C121.703 27.4297 121.625 27.2031 121.547 26.9219C121.484 26.6406 121.461 26.2891 121.477 25.8672C121.102 26.4922 120.688 26.9766 120.234 27.3203C119.781 27.6484 119.352 27.8906 118.945 28.0469C118.477 28.2188 118.008 28.3203 117.539 28.3516C117.32 28.3516 117.086 28.2734 116.836 28.1172C116.586 27.9766 116.375 27.75 116.203 27.4375C116.031 27.1094 115.922 26.6953 115.875 26.1953C115.828 25.6797 115.891 25.0703 116.062 24.3672C116.281 23.4141 116.625 22.5469 117.094 21.7656C117.578 20.9844 118.102 20.3203 118.664 19.7734C119.227 19.2109 119.781 18.7891 120.328 18.5078C120.875 18.2266 121.328 18.1016 121.688 18.1328C122.109 18.2109 122.453 18.3359 122.719 18.5078C122.938 18.6641 123.078 18.8984 123.141 19.2109C123.219 19.5078 123.094 19.9062 122.766 20.4062C122.984 20.3594 123.164 20.3281 123.305 20.3125C123.461 20.2969 123.578 20.2891 123.656 20.2891C123.75 20.2891 123.812 20.2969 123.844 20.3125C123.859 20.3438 123.867 20.4141 123.867 20.5234C123.867 20.6172 123.844 20.7969 123.797 21.0625C123.75 21.3281 123.68 21.6875 123.586 22.1406C123.492 22.5938 123.367 23.1797 123.211 23.8984C123.18 24.0391 123.148 24.1719 123.117 24.2969C123.102 24.4062 123.078 24.5234 123.047 24.6484C123.031 24.7578 123.008 24.8906 122.977 25.0469C122.945 25.2031 122.906 25.3984 122.859 25.6328C122.844 25.7734 122.836 25.9297 122.836 26.1016C122.852 26.2578 122.883 26.4062 122.93 26.5469C122.977 26.6875 123.047 26.8047 123.141 26.8984C123.25 26.9766 123.398 27.0156 123.586 27.0156C123.742 27.0156 123.945 26.9219 124.195 26.7344C124.445 26.5312 124.711 26.2812 124.992 25.9844C125.273 25.6719 125.562 25.3359 125.859 24.9766C126.172 24.6016 126.461 24.2422 126.727 23.8984C126.992 23.5547 127.227 23.25 127.43 22.9844C127.648 22.7188 127.805 22.5234 127.898 22.3984C128.023 22.2578 128.148 22.1797 128.273 22.1641C128.398 22.1328 128.492 22.1641 128.555 22.2578C128.617 22.3516 128.625 22.4922 128.578 22.6797C128.547 22.8672 128.438 23.0859 128.25 23.3359ZM121.383 24.3672C121.461 24.0547 121.555 23.6875 121.664 23.2656C121.773 22.8438 121.867 22.4375 121.945 22.0469C122.023 21.6562 122.078 21.3359 122.109 21.0859C122.156 20.8203 122.148 20.6953 122.086 20.7109C122.008 20.7266 121.922 20.75 121.828 20.7812C121.75 20.8125 121.648 20.8359 121.523 20.8516C121.398 20.8672 121.273 20.8906 121.148 20.9219C121.273 20.6719 121.344 20.4688 121.359 20.3125C121.391 20.1406 121.398 20.0078 121.383 19.9141C121.367 19.8047 121.336 19.7188 121.289 19.6562C121.117 19.5156 120.812 19.6328 120.375 20.0078C119.953 20.3672 119.461 21.0391 118.898 22.0234C118.664 22.4297 118.477 22.8672 118.336 23.3359C118.195 23.7891 118.094 24.2188 118.031 24.625C117.984 25.0312 117.977 25.3906 118.008 25.7031C118.039 26 118.102 26.1953 118.195 26.2891C118.367 26.4609 118.562 26.5469 118.781 26.5469C119 26.5312 119.219 26.4688 119.438 26.3594C119.672 26.2344 119.898 26.0781 120.117 25.8906C120.352 25.7031 120.555 25.5078 120.727 25.3047C120.914 25.1016 121.062 24.9141 121.172 24.7422C121.297 24.5703 121.367 24.4453 121.383 24.3672ZM138.891 23.9453C138.672 24.5078 138.422 25.0547 138.141 25.5859C137.859 26.1172 137.547 26.5938 137.203 27.0156C136.859 27.4375 136.492 27.7734 136.102 28.0234C135.711 28.2734 135.289 28.3984 134.836 28.3984C134.102 28.3984 133.547 28.1562 133.172 27.6719C132.797 27.1719 132.539 26.5625 132.398 25.8438C132.18 26.1719 131.945 26.5 131.695 26.8281C131.445 27.1562 131.18 27.4453 130.898 27.6953C130.617 27.9453 130.328 28.1484 130.031 28.3047C129.734 28.4609 129.438 28.5391 129.141 28.5391C128.734 28.5391 128.391 28.4531 128.109 28.2812C127.828 28.1094 127.594 27.875 127.406 27.5781C127.234 27.2656 127.109 26.9141 127.031 26.5234C126.953 26.1172 126.914 25.6875 126.914 25.2344V24.9531C126.914 24.375 126.961 23.7812 127.055 23.1719C127.148 22.5625 127.25 22 127.359 21.4844C127.484 20.9688 127.609 20.5234 127.734 20.1484C127.859 19.7578 127.953 19.5 128.016 19.375C128.125 19.2188 128.359 19.0703 128.719 18.9297C129.094 18.7734 129.461 18.7109 129.82 18.7422C129.992 18.7578 130.078 18.8281 130.078 18.9531C130.094 19.0781 130.078 19.2344 130.031 19.4219C129.969 19.6875 129.859 20.0859 129.703 20.6172C129.547 21.1484 129.383 21.7266 129.211 22.3516C129.055 22.9766 128.914 23.5938 128.789 24.2031C128.664 24.8125 128.602 25.3203 128.602 25.7266C128.602 26.2266 128.68 26.5859 128.836 26.8047C128.992 27.0234 129.234 27.1328 129.562 27.1328C129.953 27.1328 130.383 26.9141 130.852 26.4766C131.336 26.0391 131.805 25.2969 132.258 24.25C132.242 24.1562 132.234 24.0625 132.234 23.9688C132.234 23.875 132.234 23.7734 132.234 23.6641C132.234 22.9609 132.258 22.2891 132.305 21.6484C132.367 21.0078 132.477 20.4453 132.633 19.9609C132.805 19.4766 133.031 19.0938 133.312 18.8125C133.609 18.5312 133.992 18.3906 134.461 18.3906C134.648 18.3906 134.805 18.4453 134.93 18.5547C135.055 18.6641 135.117 18.8203 135.117 19.0234C135.117 19.5234 134.938 20.2344 134.578 21.1562C134.234 22.0625 133.82 23.0625 133.336 24.1562C133.289 24.2188 133.258 24.2812 133.242 24.3438C133.289 24.6406 133.344 24.9531 133.406 25.2812C133.484 25.6094 133.586 25.9141 133.711 26.1953C133.836 26.4609 133.984 26.6875 134.156 26.875C134.328 27.0469 134.531 27.1328 134.766 27.1328C135.109 27.1328 135.422 26.9688 135.703 26.6406C136 26.3125 136.258 25.9141 136.477 25.4453C136.711 24.9766 136.914 24.4844 137.086 23.9688C137.258 23.4375 137.391 22.9688 137.484 22.5625C137.438 22.3906 137.398 22.2266 137.367 22.0703C137.336 21.8984 137.32 21.7031 137.32 21.4844C137.32 21 137.391 20.5859 137.531 20.2422C137.672 19.8984 137.852 19.6172 138.07 19.3984C138.305 19.1641 138.547 18.9922 138.797 18.8828C139.062 18.7734 139.305 18.7188 139.523 18.7188C139.914 18.7188 140.109 18.8906 140.109 19.2344C140.109 19.4844 140.047 19.9219 139.922 20.5469C139.797 21.1562 139.617 21.8516 139.383 22.6328C139.664 22.7578 140.023 22.8203 140.461 22.8203C140.867 22.8203 141.242 22.7734 141.586 22.6797C141.93 22.5703 142.242 22.4375 142.523 22.2812C142.805 22.125 143.062 21.9531 143.297 21.7656C143.531 21.5781 143.758 21.3984 143.977 21.2266C144.148 21.1016 144.289 21.0938 144.398 21.2031C144.508 21.3125 144.492 21.4844 144.352 21.7188C144.227 21.9219 144.008 22.1562 143.695 22.4219C143.398 22.6875 143.031 22.9453 142.594 23.1953C142.172 23.4297 141.695 23.6328 141.164 23.8047C140.648 23.9609 140.102 24.0391 139.523 24.0391C139.43 24.0391 139.328 24.0312 139.219 24.0156C139.109 24 139 23.9766 138.891 23.9453Z" fill="white"/>
</svg>
